<svg xmlns="http://www.w3.org/2000/svg" xmlns:xlink="http://www.w3.org/1999/xlink" width="2221" zoomAndPan="magnify" viewBox="0 0 1665.75 313.499995" height="418" preserveAspectRatio="xMidYMid meet" version="1.0"><defs><g/><clipPath id="5e0f97228c"><path d="M 111.65625 29 L 1545.617188 29 L 1545.617188 312.4375 L 111.65625 312.4375 Z M 111.65625 29 " clip-rule="nonzero"/></clipPath><clipPath id="a61c378efd"><path d="M 111.65625 3.929688 L 1545.617188 3.929688 L 1545.617188 287 L 111.65625 287 Z M 111.65625 3.929688 " clip-rule="nonzero"/></clipPath></defs><g clip-path="url(#5e0f97228c)"><path fill="#a6842a" d="M 188.953125 29.878906 L 1468.335938 29.878906 C 1469.597656 29.878906 1470.863281 29.910156 1472.125 29.972656 C 1473.386719 30.035156 1474.644531 30.128906 1475.902344 30.253906 C 1477.160156 30.375 1478.414062 30.53125 1479.667969 30.71875 C 1480.917969 30.902344 1482.160156 31.117188 1483.402344 31.367188 C 1484.640625 31.613281 1485.875 31.890625 1487.097656 32.195312 C 1488.324219 32.503906 1489.542969 32.839844 1490.753906 33.207031 C 1491.960938 33.574219 1493.160156 33.972656 1494.351562 34.398438 C 1495.542969 34.824219 1496.71875 35.277344 1497.886719 35.761719 C 1499.054688 36.246094 1500.210938 36.757812 1501.355469 37.300781 C 1502.496094 37.839844 1503.625 38.410156 1504.738281 39.003906 C 1505.855469 39.601562 1506.953125 40.226562 1508.039062 40.875 C 1509.121094 41.527344 1510.1875 42.203125 1511.238281 42.90625 C 1512.292969 43.605469 1513.324219 44.335938 1514.339844 45.089844 C 1515.355469 45.84375 1516.351562 46.621094 1517.328125 47.421875 C 1518.304688 48.226562 1519.261719 49.050781 1520.199219 49.898438 C 1521.132812 50.75 1522.050781 51.621094 1522.941406 52.515625 C 1523.835938 53.410156 1524.707031 54.324219 1525.558594 55.261719 C 1526.40625 56.199219 1527.230469 57.15625 1528.03125 58.136719 C 1528.835938 59.113281 1529.613281 60.109375 1530.363281 61.125 C 1531.117188 62.140625 1531.84375 63.175781 1532.546875 64.226562 C 1533.25 65.277344 1533.925781 66.347656 1534.574219 67.429688 C 1535.226562 68.515625 1535.847656 69.617188 1536.445312 70.730469 C 1537.039062 71.847656 1537.609375 72.976562 1538.148438 74.121094 C 1538.6875 75.261719 1539.199219 76.417969 1539.683594 77.585938 C 1540.167969 78.757812 1540.621094 79.9375 1541.046875 81.125 C 1541.472656 82.316406 1541.871094 83.519531 1542.238281 84.726562 C 1542.605469 85.9375 1542.941406 87.15625 1543.25 88.382812 C 1543.554688 89.609375 1543.832031 90.84375 1544.078125 92.085938 C 1544.324219 93.324219 1544.542969 94.570312 1544.726562 95.824219 C 1544.914062 97.074219 1545.066406 98.328125 1545.191406 99.585938 C 1545.316406 100.84375 1545.40625 102.105469 1545.46875 103.371094 C 1545.53125 104.632812 1545.5625 105.898438 1545.5625 107.160156 L 1545.5625 235.21875 C 1545.5625 236.480469 1545.53125 237.746094 1545.46875 239.007812 C 1545.40625 240.273438 1545.316406 241.535156 1545.191406 242.792969 C 1545.066406 244.050781 1544.914062 245.304688 1544.726562 246.558594 C 1544.542969 247.808594 1544.324219 249.054688 1544.078125 250.292969 C 1543.832031 251.535156 1543.554688 252.769531 1543.25 253.996094 C 1542.941406 255.222656 1542.605469 256.441406 1542.238281 257.652344 C 1541.871094 258.863281 1541.472656 260.0625 1541.046875 261.253906 C 1540.621094 262.445312 1540.167969 263.625 1539.683594 264.792969 C 1539.199219 265.960938 1538.6875 267.117188 1538.148438 268.257812 C 1537.609375 269.402344 1537.039062 270.53125 1536.445312 271.648438 C 1535.847656 272.761719 1535.226562 273.863281 1534.574219 274.949219 C 1533.925781 276.03125 1533.25 277.101562 1532.546875 278.152344 C 1531.84375 279.203125 1531.117188 280.238281 1530.363281 281.253906 C 1529.613281 282.269531 1528.835938 283.265625 1528.03125 284.246094 C 1527.230469 285.222656 1526.40625 286.179688 1525.558594 287.117188 C 1524.707031 288.054688 1523.835938 288.96875 1522.941406 289.863281 C 1522.050781 290.757812 1521.132812 291.628906 1520.199219 292.480469 C 1519.261719 293.328125 1518.304688 294.15625 1517.328125 294.957031 C 1516.351562 295.757812 1515.355469 296.539062 1514.339844 297.289062 C 1513.324219 298.042969 1512.292969 298.773438 1511.238281 299.476562 C 1510.1875 300.175781 1509.121094 300.855469 1508.039062 301.503906 C 1506.953125 302.152344 1505.855469 302.777344 1504.738281 303.375 C 1503.625 303.96875 1502.496094 304.539062 1501.355469 305.078125 C 1500.210938 305.621094 1499.054688 306.132812 1497.886719 306.617188 C 1496.722656 307.101562 1495.542969 307.554688 1494.351562 307.980469 C 1493.160156 308.40625 1491.960938 308.804688 1490.753906 309.171875 C 1489.542969 309.539062 1488.324219 309.875 1487.097656 310.183594 C 1485.875 310.492188 1484.640625 310.765625 1483.402344 311.015625 C 1482.160156 311.261719 1480.917969 311.476562 1479.667969 311.664062 C 1478.414062 311.847656 1477.160156 312.003906 1475.902344 312.125 C 1474.644531 312.25 1473.386719 312.34375 1472.125 312.40625 C 1470.863281 312.46875 1469.597656 312.5 1468.335938 312.5 L 188.953125 312.5 C 187.691406 312.5 186.425781 312.46875 185.164062 312.40625 C 183.902344 312.34375 182.640625 312.25 181.382812 312.125 C 180.125 312.003906 178.871094 311.847656 177.621094 311.664062 C 176.371094 311.476562 175.128906 311.261719 173.886719 311.015625 C 172.648438 310.765625 171.414062 310.492188 170.1875 310.183594 C 168.964844 309.875 167.746094 309.539062 166.535156 309.171875 C 165.328125 308.804688 164.125 308.40625 162.9375 307.980469 C 161.746094 307.554688 160.566406 307.101562 159.398438 306.617188 C 158.230469 306.132812 157.078125 305.621094 155.933594 305.078125 C 154.792969 304.539062 153.664062 303.96875 152.550781 303.375 C 151.433594 302.777344 150.335938 302.152344 149.25 301.503906 C 148.167969 300.855469 147.097656 300.175781 146.046875 299.476562 C 144.996094 298.773438 143.964844 298.042969 142.949219 297.289062 C 141.933594 296.539062 140.9375 295.757812 139.960938 294.957031 C 138.984375 294.15625 138.027344 293.328125 137.089844 292.480469 C 136.152344 291.628906 135.238281 290.757812 134.34375 289.863281 C 133.453125 288.96875 132.582031 288.054688 131.730469 287.117188 C 130.882812 286.179688 130.058594 285.222656 129.253906 284.246094 C 128.453125 283.265625 127.675781 282.269531 126.921875 281.253906 C 126.171875 280.238281 125.441406 279.203125 124.742188 278.152344 C 124.039062 277.101562 123.363281 276.03125 122.714844 274.949219 C 122.0625 273.863281 121.441406 272.761719 120.84375 271.648438 C 120.25 270.53125 119.679688 269.402344 119.140625 268.257812 C 118.601562 267.117188 118.089844 265.960938 117.605469 264.792969 C 117.121094 263.625 116.664062 262.445312 116.238281 261.253906 C 115.8125 260.0625 115.417969 258.863281 115.050781 257.652344 C 114.683594 256.441406 114.347656 255.222656 114.039062 253.996094 C 113.734375 252.769531 113.457031 251.535156 113.210938 250.292969 C 112.964844 249.054688 112.746094 247.808594 112.5625 246.558594 C 112.375 245.304688 112.222656 244.050781 112.097656 242.792969 C 111.972656 241.535156 111.878906 240.273438 111.820312 239.007812 C 111.757812 237.746094 111.726562 236.480469 111.726562 235.21875 L 111.726562 107.160156 C 111.726562 105.898438 111.757812 104.632812 111.820312 103.371094 C 111.878906 102.105469 111.972656 100.84375 112.097656 99.585938 C 112.222656 98.328125 112.375 97.074219 112.5625 95.824219 C 112.746094 94.570312 112.964844 93.324219 113.210938 92.085938 C 113.457031 90.84375 113.734375 89.609375 114.039062 88.382812 C 114.347656 87.15625 114.683594 85.9375 115.050781 84.726562 C 115.417969 83.519531 115.8125 82.316406 116.238281 81.125 C 116.664062 79.9375 117.121094 78.757812 117.605469 77.585938 C 118.089844 76.417969 118.601562 75.261719 119.140625 74.121094 C 119.679688 72.976562 120.25 71.847656 120.84375 70.730469 C 121.441406 69.617188 122.0625 68.515625 122.714844 67.429688 C 123.363281 66.347656 124.039062 65.277344 124.742188 64.226562 C 125.441406 63.175781 126.171875 62.140625 126.921875 61.125 C 127.675781 60.109375 128.453125 59.113281 129.253906 58.136719 C 130.058594 57.15625 130.882812 56.199219 131.730469 55.261719 C 132.582031 54.324219 133.453125 53.410156 134.34375 52.515625 C 135.238281 51.621094 136.152344 50.75 137.089844 49.898438 C 138.027344 49.050781 138.984375 48.226562 139.960938 47.421875 C 140.9375 46.621094 141.933594 45.84375 142.949219 45.089844 C 143.964844 44.335938 144.996094 43.605469 146.046875 42.90625 C 147.097656 42.203125 148.167969 41.527344 149.25 40.875 C 150.335938 40.226562 151.433594 39.601562 152.550781 39.003906 C 153.664062 38.410156 154.792969 37.839844 155.933594 37.300781 C 157.078125 36.757812 158.230469 36.246094 159.398438 35.761719 C 160.566406 35.277344 161.746094 34.824219 162.9375 34.398438 C 164.125 33.972656 165.328125 33.574219 166.535156 33.207031 C 167.746094 32.839844 168.964844 32.503906 170.1875 32.195312 C 171.414062 31.890625 172.648438 31.613281 173.886719 31.367188 C 175.128906 31.117188 176.371094 30.902344 177.621094 30.71875 C 178.871094 30.53125 180.125 30.375 181.382812 30.253906 C 182.640625 30.128906 183.902344 30.035156 185.164062 29.972656 C 186.425781 29.910156 187.691406 29.878906 188.953125 29.878906 Z M 188.953125 29.878906 " fill-opacity="1" fill-rule="nonzero"/></g><g clip-path="url(#a61c378efd)"><path fill="#febe29" d="M 188.953125 3.929688 L 1468.335938 3.929688 C 1469.597656 3.929688 1470.863281 3.960938 1472.125 4.023438 C 1473.386719 4.085938 1474.644531 4.175781 1475.902344 4.300781 C 1477.160156 4.425781 1478.414062 4.582031 1479.667969 4.765625 C 1480.917969 4.953125 1482.160156 5.167969 1483.402344 5.414062 C 1484.640625 5.660156 1485.875 5.9375 1487.097656 6.246094 C 1488.324219 6.550781 1489.542969 6.890625 1490.753906 7.257812 C 1491.960938 7.625 1493.160156 8.019531 1494.351562 8.445312 C 1495.542969 8.871094 1496.71875 9.328125 1497.886719 9.8125 C 1499.054688 10.296875 1500.210938 10.808594 1501.355469 11.347656 C 1502.496094 11.890625 1503.625 12.457031 1504.738281 13.054688 C 1505.855469 13.652344 1506.953125 14.273438 1508.039062 14.925781 C 1509.121094 15.574219 1510.1875 16.25 1511.238281 16.953125 C 1512.292969 17.65625 1513.324219 18.382812 1514.339844 19.136719 C 1515.355469 19.890625 1516.351562 20.667969 1517.328125 21.472656 C 1518.304688 22.273438 1519.261719 23.097656 1520.199219 23.949219 C 1521.132812 24.796875 1522.050781 25.671875 1522.941406 26.566406 C 1523.835938 27.457031 1524.707031 28.375 1525.558594 29.3125 C 1526.40625 30.25 1527.230469 31.207031 1528.03125 32.183594 C 1528.835938 33.160156 1529.613281 34.160156 1530.363281 35.175781 C 1531.117188 36.191406 1531.84375 37.222656 1532.546875 38.277344 C 1533.25 39.328125 1533.925781 40.394531 1534.574219 41.480469 C 1535.226562 42.566406 1535.847656 43.664062 1536.445312 44.78125 C 1537.039062 45.894531 1537.609375 47.023438 1538.148438 48.167969 C 1538.6875 49.3125 1539.199219 50.46875 1539.683594 51.636719 C 1540.167969 52.804688 1540.621094 53.984375 1541.046875 55.175781 C 1541.472656 56.367188 1541.871094 57.566406 1542.238281 58.777344 C 1542.605469 59.988281 1542.941406 61.207031 1543.25 62.433594 C 1543.554688 63.660156 1543.832031 64.894531 1544.078125 66.132812 C 1544.324219 67.375 1544.542969 68.621094 1544.726562 69.871094 C 1544.914062 71.121094 1545.066406 72.378906 1545.191406 73.636719 C 1545.316406 74.894531 1545.40625 76.15625 1545.46875 77.417969 C 1545.53125 78.683594 1545.5625 79.945312 1545.5625 81.210938 L 1545.5625 209.265625 C 1545.5625 210.53125 1545.53125 211.796875 1545.46875 213.058594 C 1545.40625 214.320312 1545.316406 215.582031 1545.191406 216.839844 C 1545.066406 218.101562 1544.914062 219.355469 1544.726562 220.605469 C 1544.542969 221.855469 1544.324219 223.101562 1544.078125 224.34375 C 1543.832031 225.582031 1543.554688 226.816406 1543.25 228.042969 C 1542.941406 229.269531 1542.605469 230.488281 1542.238281 231.699219 C 1541.871094 232.910156 1541.472656 234.109375 1541.046875 235.300781 C 1540.621094 236.492188 1540.167969 237.671875 1539.683594 238.839844 C 1539.199219 240.007812 1538.6875 241.164062 1538.148438 242.308594 C 1537.609375 243.453125 1537.039062 244.582031 1536.445312 245.695312 C 1535.847656 246.8125 1535.226562 247.910156 1534.574219 248.996094 C 1533.925781 250.082031 1533.25 251.148438 1532.546875 252.203125 C 1531.84375 253.253906 1531.117188 254.285156 1530.363281 255.304688 C 1529.613281 256.320312 1528.835938 257.316406 1528.03125 258.292969 C 1527.230469 259.269531 1526.40625 260.226562 1525.558594 261.164062 C 1524.707031 262.101562 1523.835938 263.019531 1522.941406 263.914062 C 1522.050781 264.808594 1521.132812 265.679688 1520.199219 266.527344 C 1519.261719 267.378906 1518.304688 268.203125 1517.328125 269.003906 C 1516.351562 269.808594 1515.355469 270.585938 1514.339844 271.339844 C 1513.324219 272.09375 1512.292969 272.820312 1511.238281 273.523438 C 1510.1875 274.226562 1509.121094 274.902344 1508.039062 275.554688 C 1506.953125 276.203125 1505.855469 276.828125 1504.738281 277.421875 C 1503.625 278.019531 1502.496094 278.585938 1501.355469 279.128906 C 1500.210938 279.667969 1499.054688 280.179688 1497.886719 280.664062 C 1496.722656 281.148438 1495.542969 281.605469 1494.351562 282.03125 C 1493.160156 282.457031 1491.960938 282.851562 1490.753906 283.21875 C 1489.542969 283.585938 1488.324219 283.925781 1487.097656 284.230469 C 1485.875 284.539062 1484.640625 284.816406 1483.402344 285.0625 C 1482.160156 285.308594 1480.917969 285.527344 1479.667969 285.710938 C 1478.414062 285.898438 1477.160156 286.050781 1475.902344 286.175781 C 1474.644531 286.300781 1473.386719 286.394531 1472.125 286.453125 C 1470.863281 286.515625 1469.597656 286.546875 1468.335938 286.546875 L 188.953125 286.546875 C 187.691406 286.546875 186.425781 286.515625 185.164062 286.453125 C 183.902344 286.394531 182.640625 286.300781 181.382812 286.175781 C 180.125 286.050781 178.871094 285.898438 177.621094 285.710938 C 176.371094 285.527344 175.128906 285.308594 173.886719 285.0625 C 172.648438 284.816406 171.414062 284.539062 170.1875 284.230469 C 168.964844 283.925781 167.746094 283.585938 166.535156 283.21875 C 165.328125 282.851562 164.125 282.457031 162.9375 282.03125 C 161.746094 281.605469 160.566406 281.148438 159.398438 280.664062 C 158.230469 280.179688 157.078125 279.667969 155.933594 279.128906 C 154.792969 278.585938 153.664062 278.019531 152.550781 277.421875 C 151.433594 276.828125 150.335938 276.203125 149.25 275.554688 C 148.167969 274.902344 147.097656 274.226562 146.046875 273.523438 C 144.996094 272.820312 143.964844 272.09375 142.949219 271.339844 C 141.933594 270.585938 140.9375 269.808594 139.960938 269.003906 C 138.984375 268.203125 138.027344 267.378906 137.089844 266.527344 C 136.152344 265.679688 135.238281 264.808594 134.34375 263.914062 C 133.453125 263.019531 132.582031 262.101562 131.730469 261.164062 C 130.882812 260.226562 130.058594 259.269531 129.253906 258.292969 C 128.453125 257.316406 127.675781 256.320312 126.921875 255.304688 C 126.171875 254.285156 125.441406 253.253906 124.742188 252.203125 C 124.039062 251.148438 123.363281 250.082031 122.714844 248.996094 C 122.0625 247.910156 121.441406 246.8125 120.84375 245.695312 C 120.25 244.582031 119.679688 243.453125 119.140625 242.308594 C 118.601562 241.164062 118.089844 240.007812 117.605469 238.839844 C 117.121094 237.671875 116.664062 236.492188 116.238281 235.300781 C 115.8125 234.109375 115.417969 232.910156 115.050781 231.699219 C 114.683594 230.488281 114.347656 229.269531 114.039062 228.042969 C 113.734375 226.816406 113.457031 225.582031 113.210938 224.34375 C 112.964844 223.101562 112.746094 221.855469 112.5625 220.605469 C 112.375 219.355469 112.222656 218.101562 112.097656 216.839844 C 111.972656 215.582031 111.878906 214.320312 111.820312 213.058594 C 111.757812 211.796875 111.726562 210.53125 111.726562 209.265625 L 111.726562 81.210938 C 111.726562 79.945312 111.757812 78.683594 111.820312 77.417969 C 111.878906 76.15625 111.972656 74.894531 112.097656 73.636719 C 112.222656 72.378906 112.375 71.121094 112.5625 69.871094 C 112.746094 68.621094 112.964844 67.375 113.210938 66.132812 C 113.457031 64.894531 113.734375 63.660156 114.039062 62.433594 C 114.347656 61.207031 114.683594 59.988281 115.050781 58.777344 C 115.417969 57.566406 115.8125 56.367188 116.238281 55.175781 C 116.664062 53.984375 117.121094 52.804688 117.605469 51.636719 C 118.089844 50.46875 118.601562 49.3125 119.140625 48.167969 C 119.679688 47.023438 120.25 45.894531 120.84375 44.78125 C 121.441406 43.664062 122.0625 42.566406 122.714844 41.480469 C 123.363281 40.394531 124.039062 39.328125 124.742188 38.277344 C 125.441406 37.222656 126.171875 36.191406 126.921875 35.175781 C 127.675781 34.160156 128.453125 33.160156 129.253906 32.183594 C 130.058594 31.207031 130.882812 30.25 131.730469 29.3125 C 132.582031 28.375 133.453125 27.457031 134.34375 26.566406 C 135.238281 25.671875 136.152344 24.796875 137.089844 23.949219 C 138.027344 23.097656 138.984375 22.273438 139.960938 21.472656 C 140.9375 20.667969 141.933594 19.890625 142.949219 19.136719 C 143.964844 18.382812 144.996094 17.65625 146.046875 16.953125 C 147.097656 16.25 148.167969 15.574219 149.25 14.925781 C 150.335938 14.273438 151.433594 13.652344 152.550781 13.054688 C 153.664062 12.457031 154.792969 11.890625 155.933594 11.347656 C 157.078125 10.808594 158.230469 10.296875 159.398438 9.8125 C 160.566406 9.328125 161.746094 8.871094 162.9375 8.445312 C 164.125 8.019531 165.328125 7.625 166.535156 7.257812 C 167.746094 6.890625 168.964844 6.550781 170.1875 6.246094 C 171.414062 5.9375 172.648438 5.660156 173.886719 5.414062 C 175.128906 5.167969 176.371094 4.953125 177.621094 4.765625 C 178.871094 4.582031 180.125 4.425781 181.382812 4.300781 C 182.640625 4.175781 183.902344 4.085938 185.164062 4.023438 C 186.425781 3.960938 187.691406 3.929688 188.953125 3.929688 Z M 188.953125 3.929688 " fill-opacity="1" fill-rule="nonzero"/></g><g fill="#000000" fill-opacity="0.4"><g transform="translate(208.132289, 209.867808)"><g><path d="M 43.09375 -84.21875 L 43.09375 -89.015625 C 43.09375 -91.984375 42.320312 -94.523438 40.78125 -96.640625 C 39.238281 -98.753906 36.925781 -99.8125 33.84375 -99.8125 C 32.414062 -99.8125 30.988281 -99.453125 29.5625 -98.734375 C 28.132812 -98.023438 26.945312 -96.882812 26 -95.3125 C 25.0625 -93.738281 24.59375 -91.640625 24.59375 -89.015625 C 24.59375 -86.328125 25.117188 -84.023438 26.171875 -82.109375 C 27.222656 -80.203125 28.707031 -78.421875 30.625 -76.765625 C 32.539062 -75.109375 34.753906 -73.28125 37.265625 -71.28125 C 41.265625 -68.195312 45.003906 -65.195312 48.484375 -62.28125 C 51.972656 -59.363281 55.03125 -56.273438 57.65625 -53.015625 C 60.28125 -49.765625 62.332031 -46.113281 63.8125 -42.0625 C 65.300781 -38.007812 66.046875 -33.269531 66.046875 -27.84375 C 66.046875 -23.84375 65.289062 -20.054688 63.78125 -16.484375 C 62.269531 -12.921875 60.128906 -9.753906 57.359375 -6.984375 C 54.585938 -4.210938 51.257812 -2.039062 47.375 -0.46875 C 43.488281 1.101562 39.175781 1.890625 34.4375 1.890625 C 29.300781 1.890625 24.789062 1.046875 20.90625 -0.640625 C 17.019531 -2.328125 13.773438 -4.597656 11.171875 -7.453125 C 8.578125 -10.304688 6.632812 -13.585938 5.34375 -17.296875 C 4.0625 -21.015625 3.421875 -24.875 3.421875 -28.875 L 3.421875 -33.40625 C 3.421875 -34.894531 3.609375 -35.953125 3.984375 -36.578125 C 4.359375 -37.210938 5.144531 -37.53125 6.34375 -37.53125 L 21.9375 -37.53125 C 23.132812 -37.53125 23.914062 -37.269531 24.28125 -36.75 C 24.65625 -36.238281 24.84375 -35.328125 24.84375 -34.015625 L 24.84375 -30.15625 C 24.84375 -27.300781 25.351562 -25.046875 26.375 -23.390625 C 27.40625 -21.734375 28.675781 -20.5625 30.1875 -19.875 C 31.707031 -19.1875 33.179688 -18.84375 34.609375 -18.84375 C 37.296875 -18.84375 39.59375 -19.753906 41.5 -21.578125 C 43.414062 -23.410156 44.375 -25.898438 44.375 -29.046875 C 44.375 -31.835938 43.859375 -34.25 42.828125 -36.28125 C 41.804688 -38.3125 40.195312 -40.351562 38 -42.40625 C 35.800781 -44.457031 32.929688 -46.914062 29.390625 -49.78125 C 24.929688 -53.425781 21.054688 -56.648438 17.765625 -59.453125 C 14.484375 -62.253906 11.785156 -65.039062 9.671875 -67.8125 C 7.566406 -70.582031 6 -73.679688 4.96875 -77.109375 C 3.9375 -80.535156 3.421875 -84.703125 3.421875 -89.609375 C 3.421875 -94.066406 4.078125 -97.992188 5.390625 -101.390625 C 6.710938 -104.785156 8.472656 -107.679688 10.671875 -110.078125 C 12.867188 -112.484375 15.304688 -114.441406 17.984375 -115.953125 C 20.671875 -117.460938 23.382812 -118.570312 26.125 -119.28125 C 28.863281 -120 31.4375 -120.359375 33.84375 -120.359375 C 39.78125 -120.359375 45.03125 -119.070312 49.59375 -116.5 C 54.164062 -113.9375 57.75 -110.3125 60.34375 -105.625 C 62.945312 -100.945312 64.25 -95.4375 64.25 -89.09375 L 64.25 -84.21875 C 64.25 -83.019531 64.035156 -82.175781 63.609375 -81.6875 C 63.179688 -81.195312 62.28125 -80.953125 60.90625 -80.953125 L 45.578125 -80.953125 C 44.492188 -80.953125 43.804688 -81.195312 43.515625 -81.6875 C 43.234375 -82.175781 43.09375 -83.019531 43.09375 -84.21875 Z M 43.09375 -84.21875 "/></g></g></g><g fill="#000000" fill-opacity="0.4"><g transform="translate(276.662957, 209.867808)"><g><path d="M 62.28125 -63.390625 L 62.28125 -24.421875 C 62.28125 -20.585938 61.519531 -17.070312 60 -13.875 C 58.488281 -10.675781 56.390625 -7.921875 53.703125 -5.609375 C 51.023438 -3.296875 47.898438 -1.507812 44.328125 -0.25 C 40.765625 1 36.953125 1.625 32.890625 1.625 C 28.835938 1.625 25.039062 1 21.5 -0.25 C 17.957031 -1.507812 14.84375 -3.296875 12.15625 -5.609375 C 9.476562 -7.921875 7.378906 -10.675781 5.859375 -13.875 C 4.347656 -17.070312 3.59375 -20.585938 3.59375 -24.421875 L 3.59375 -63.390625 C 3.59375 -66.992188 4.347656 -70.363281 5.859375 -73.5 C 7.378906 -76.644531 9.46875 -79.398438 12.125 -81.765625 C 14.78125 -84.140625 17.878906 -86 21.421875 -87.34375 C 24.960938 -88.6875 28.726562 -89.359375 32.71875 -89.359375 C 36.832031 -89.359375 40.675781 -88.726562 44.25 -87.46875 C 47.820312 -86.207031 50.960938 -84.421875 53.671875 -82.109375 C 56.378906 -79.796875 58.488281 -77.054688 60 -73.890625 C 61.519531 -70.722656 62.28125 -67.222656 62.28125 -63.390625 Z M 32.984375 -70.328125 C 30.640625 -70.328125 28.765625 -69.539062 27.359375 -67.96875 C 25.960938 -66.40625 25.265625 -64.679688 25.265625 -62.796875 L 25.265625 -25.015625 C 25.265625 -23.078125 25.976562 -21.320312 27.40625 -19.75 C 28.84375 -18.175781 30.703125 -17.390625 32.984375 -17.390625 C 35.328125 -17.390625 37.179688 -18.175781 38.546875 -19.75 C 39.921875 -21.320312 40.609375 -23.078125 40.609375 -25.015625 L 40.609375 -62.703125 C 40.609375 -64.648438 39.921875 -66.40625 38.546875 -67.96875 C 37.179688 -69.539062 35.328125 -70.328125 32.984375 -70.328125 Z M 32.984375 -70.328125 "/></g></g></g><g fill="#000000" fill-opacity="0.4"><g transform="translate(342.538062, 209.867808)"><g><path d="M 39.15625 -16.28125 L 39.15625 -2.734375 C 39.15625 -2.171875 38.925781 -1.570312 38.46875 -0.9375 C 38.007812 -0.3125 36.640625 0 34.359375 0 L 28.953125 0 C 25.703125 0 22.632812 -0.398438 19.75 -1.203125 C 16.863281 -2.003906 14.320312 -3.359375 12.125 -5.265625 C 9.925781 -7.179688 8.210938 -9.796875 6.984375 -13.109375 C 5.753906 -16.421875 5.140625 -20.585938 5.140625 -25.609375 L 5.140625 -115.65625 C 5.140625 -117.59375 6.109375 -118.5625 8.046875 -118.5625 L 24.078125 -118.5625 C 25.960938 -118.5625 26.90625 -117.59375 26.90625 -115.65625 L 26.90625 -26.90625 C 26.90625 -24.5 27.472656 -22.65625 28.609375 -21.375 C 29.753906 -20.09375 31.898438 -19.453125 35.046875 -19.453125 L 36.5 -19.453125 C 37.8125 -19.453125 38.582031 -19.078125 38.8125 -18.328125 C 39.039062 -17.585938 39.15625 -16.90625 39.15625 -16.28125 Z M 39.15625 -16.28125 "/></g></g></g><g fill="#000000" fill-opacity="0.4"><g transform="translate(384.084779, 209.867808)"><g><path d="M 5.046875 -2.828125 L 5.046875 -85.078125 C 5.046875 -85.867188 5.347656 -86.507812 5.953125 -87 C 6.554688 -87.488281 7.226562 -87.734375 7.96875 -87.734375 L 23.640625 -87.734375 C 24.503906 -87.734375 25.265625 -87.472656 25.921875 -86.953125 C 26.578125 -86.441406 26.90625 -85.816406 26.90625 -85.078125 L 26.90625 -2.828125 C 26.90625 -1.910156 26.601562 -1.207031 26 -0.71875 C 25.394531 -0.238281 24.609375 0 23.640625 0 L 7.96875 0 C 6.019531 0 5.046875 -0.941406 5.046875 -2.828125 Z M 27.328125 -110.265625 L 27.328125 -98.4375 C 27.328125 -96.832031 26.941406 -95.726562 26.171875 -95.125 C 25.398438 -94.53125 24.300781 -94.234375 22.875 -94.234375 L 9.078125 -94.234375 C 7.597656 -94.234375 6.398438 -94.519531 5.484375 -95.09375 C 4.566406 -95.664062 4.109375 -96.75 4.109375 -98.34375 L 4.109375 -110.34375 C 4.109375 -111.65625 4.476562 -112.738281 5.21875 -113.59375 C 5.96875 -114.457031 7.226562 -114.890625 9 -114.890625 L 22.875 -114.890625 C 24.53125 -114.890625 25.6875 -114.488281 26.34375 -113.6875 C 27 -112.882812 27.328125 -111.742188 27.328125 -110.265625 Z M 27.328125 -110.265625 "/></g></g></g><g fill="#000000" fill-opacity="0.4"><g transform="translate(416.037204, 209.867808)"><g><path d="M 43.515625 -32.390625 L 58.59375 -32.390625 C 59.507812 -32.390625 60.140625 -32.1875 60.484375 -31.78125 C 60.828125 -31.382812 61 -30.703125 61 -29.734375 L 61 -24.421875 C 61 -20.816406 60.296875 -17.429688 58.890625 -14.265625 C 57.492188 -11.097656 55.539062 -8.328125 53.03125 -5.953125 C 50.519531 -3.585938 47.535156 -1.734375 44.078125 -0.390625 C 40.617188 0.953125 36.832031 1.625 32.71875 1.625 C 28.726562 1.625 24.960938 1 21.421875 -0.25 C 17.878906 -1.507812 14.78125 -3.296875 12.125 -5.609375 C 9.46875 -7.921875 7.378906 -10.675781 5.859375 -13.875 C 4.347656 -17.070312 3.59375 -20.585938 3.59375 -24.421875 L 3.59375 -63.390625 C 3.59375 -66.992188 4.347656 -70.347656 5.859375 -73.453125 C 7.378906 -76.566406 9.46875 -79.320312 12.125 -81.71875 C 14.78125 -84.125 17.878906 -86 21.421875 -87.34375 C 24.960938 -88.6875 28.726562 -89.359375 32.71875 -89.359375 C 36.832031 -89.359375 40.617188 -88.6875 44.078125 -87.34375 C 47.535156 -86 50.519531 -84.125 53.03125 -81.71875 C 55.539062 -79.320312 57.492188 -76.566406 58.890625 -73.453125 C 60.296875 -70.347656 61 -66.992188 61 -63.390625 L 61 -56.625 C 61 -55.539062 60.8125 -54.796875 60.4375 -54.390625 C 60.070312 -53.992188 59.457031 -53.796875 58.59375 -53.796875 L 44.203125 -53.796875 C 42.953125 -53.796875 42.097656 -53.992188 41.640625 -54.390625 C 41.179688 -54.796875 40.953125 -55.570312 40.953125 -56.71875 L 40.953125 -62.625 C 40.953125 -64.5625 40.28125 -66.328125 38.9375 -67.921875 C 37.59375 -69.523438 35.691406 -70.328125 33.234375 -70.328125 C 30.953125 -70.328125 29.050781 -69.539062 27.53125 -67.96875 C 26.019531 -66.40625 25.265625 -64.679688 25.265625 -62.796875 L 25.265625 -25.015625 C 25.265625 -23.078125 26.019531 -21.320312 27.53125 -19.75 C 29.050781 -18.175781 30.953125 -17.390625 33.234375 -17.390625 C 35.691406 -17.390625 37.59375 -18.203125 38.9375 -19.828125 C 40.28125 -21.460938 40.953125 -23.21875 40.953125 -25.09375 L 40.953125 -29.390625 C 40.953125 -30.523438 41.132812 -31.304688 41.5 -31.734375 C 41.875 -32.171875 42.546875 -32.390625 43.515625 -32.390625 Z M 43.515625 -32.390625 "/></g></g></g><g fill="#000000" fill-opacity="0.4"><g transform="translate(479.770726, 209.867808)"><g><path d="M 5.046875 -2.828125 L 5.046875 -85.078125 C 5.046875 -85.867188 5.347656 -86.507812 5.953125 -87 C 6.554688 -87.488281 7.226562 -87.734375 7.96875 -87.734375 L 23.640625 -87.734375 C 24.503906 -87.734375 25.265625 -87.472656 25.921875 -86.953125 C 26.578125 -86.441406 26.90625 -85.816406 26.90625 -85.078125 L 26.90625 -2.828125 C 26.90625 -1.910156 26.601562 -1.207031 26 -0.71875 C 25.394531 -0.238281 24.609375 0 23.640625 0 L 7.96875 0 C 6.019531 0 5.046875 -0.941406 5.046875 -2.828125 Z M 27.328125 -110.265625 L 27.328125 -98.4375 C 27.328125 -96.832031 26.941406 -95.726562 26.171875 -95.125 C 25.398438 -94.53125 24.300781 -94.234375 22.875 -94.234375 L 9.078125 -94.234375 C 7.597656 -94.234375 6.398438 -94.519531 5.484375 -95.09375 C 4.566406 -95.664062 4.109375 -96.75 4.109375 -98.34375 L 4.109375 -110.34375 C 4.109375 -111.65625 4.476562 -112.738281 5.21875 -113.59375 C 5.96875 -114.457031 7.226562 -114.890625 9 -114.890625 L 22.875 -114.890625 C 24.53125 -114.890625 25.6875 -114.488281 26.34375 -113.6875 C 27 -112.882812 27.328125 -111.742188 27.328125 -110.265625 Z M 27.328125 -110.265625 "/></g></g></g><g fill="#000000" fill-opacity="0.4"><g transform="translate(511.723151, 209.867808)"><g><path d="M 37.4375 0 L 32.046875 0 C 28.734375 0 25.632812 -0.398438 22.75 -1.203125 C 19.863281 -2.003906 17.332031 -3.359375 15.15625 -5.265625 C 12.988281 -7.179688 11.289062 -9.796875 10.0625 -13.109375 C 8.832031 -16.421875 8.21875 -20.585938 8.21875 -25.609375 L 8.21875 -68.625 L 3.171875 -68.625 C 2.710938 -68.625 2.164062 -68.894531 1.53125 -69.4375 C 0.90625 -69.976562 0.59375 -70.765625 0.59375 -71.796875 L 0.59375 -84.46875 C 0.59375 -85.613281 0.894531 -86.457031 1.5 -87 C 2.101562 -87.539062 2.660156 -87.8125 3.171875 -87.8125 L 8.21875 -87.8125 L 8.21875 -100.921875 C 8.21875 -101.890625 8.390625 -102.644531 8.734375 -103.1875 C 9.078125 -103.726562 9.707031 -104.113281 10.625 -104.34375 L 26.640625 -109.0625 C 26.816406 -109.113281 27.078125 -109.140625 27.421875 -109.140625 C 29.128906 -109.140625 29.984375 -108.195312 29.984375 -106.3125 L 29.984375 -87.8125 L 38.640625 -87.8125 C 40.234375 -87.8125 41.03125 -86.753906 41.03125 -84.640625 L 41.03125 -71.796875 C 41.03125 -70.878906 40.785156 -70.117188 40.296875 -69.515625 C 39.816406 -68.921875 39.175781 -68.625 38.375 -68.625 L 29.984375 -68.625 L 29.984375 -26.90625 C 29.984375 -24.5 30.550781 -22.65625 31.6875 -21.375 C 32.832031 -20.09375 34.976562 -19.453125 38.125 -19.453125 L 39.578125 -19.453125 C 40.835938 -19.453125 41.582031 -19.078125 41.8125 -18.328125 C 42.039062 -17.585938 42.15625 -16.90625 42.15625 -16.28125 L 42.15625 -2.734375 C 42.15625 -2.171875 41.9375 -1.570312 41.5 -0.9375 C 41.070312 -0.3125 39.71875 0 37.4375 0 Z M 37.4375 0 "/></g></g></g><g fill="#000000" fill-opacity="0.4"><g transform="translate(556.696402, 209.867808)"><g><path d="M 33.328125 -70.765625 C 30.984375 -70.765625 29.066406 -69.992188 27.578125 -68.453125 C 26.097656 -66.910156 25.359375 -65.164062 25.359375 -63.21875 L 25.359375 -53.625 L 40.953125 -53.625 L 40.953125 -63.140625 C 40.953125 -65.140625 40.265625 -66.910156 38.890625 -68.453125 C 37.523438 -69.992188 35.671875 -70.765625 33.328125 -70.765625 Z M 60.484375 -26.90625 L 60.484375 -24.421875 C 60.484375 -19.617188 59.328125 -15.242188 57.015625 -11.296875 C 54.703125 -7.359375 51.457031 -4.21875 47.28125 -1.875 C 43.113281 0.457031 38.289062 1.625 32.8125 1.625 C 28.8125 1.625 25.039062 0.953125 21.5 -0.390625 C 17.957031 -1.734375 14.859375 -3.585938 12.203125 -5.953125 C 9.546875 -8.328125 7.460938 -11.097656 5.953125 -14.265625 C 4.441406 -17.429688 3.6875 -20.816406 3.6875 -24.421875 L 3.6875 -63.390625 C 3.6875 -66.992188 4.441406 -70.347656 5.953125 -73.453125 C 7.460938 -76.566406 9.546875 -79.320312 12.203125 -81.71875 C 14.859375 -84.125 17.957031 -86 21.5 -87.34375 C 25.039062 -88.6875 28.8125 -89.359375 32.8125 -89.359375 C 36.925781 -89.359375 40.679688 -88.6875 44.078125 -87.34375 C 47.472656 -86 50.410156 -84.125 52.890625 -81.71875 C 55.378906 -79.320312 57.296875 -76.566406 58.640625 -73.453125 C 59.984375 -70.347656 60.65625 -66.992188 60.65625 -63.390625 L 60.65625 -42.15625 C 60.65625 -41.175781 60.335938 -40.398438 59.703125 -39.828125 C 59.078125 -39.265625 58.28125 -38.984375 57.3125 -38.984375 L 25.359375 -38.984375 L 25.359375 -24.421875 C 25.359375 -22.535156 26.097656 -20.804688 27.578125 -19.234375 C 29.066406 -17.660156 30.984375 -16.875 33.328125 -16.875 C 35.785156 -16.875 37.671875 -17.6875 38.984375 -19.3125 C 40.296875 -20.945312 40.953125 -22.707031 40.953125 -24.59375 L 40.953125 -27.078125 C 40.953125 -27.585938 41.148438 -28.054688 41.546875 -28.484375 C 41.953125 -28.910156 42.550781 -29.125 43.34375 -29.125 L 58.25 -29.125 C 58.9375 -29.125 59.476562 -28.96875 59.875 -28.65625 C 60.28125 -28.34375 60.484375 -27.757812 60.484375 -26.90625 Z M 60.484375 -26.90625 "/></g></g></g><g fill="#000000" fill-opacity="0.4"><g transform="translate(620.686913, 209.867808)"><g/></g></g><g fill="#000000" fill-opacity="0.4"><g transform="translate(660.4347, 209.867808)"><g><path d="M 42.0625 -25.359375 L 42.0625 -84.8125 C 42.0625 -85.78125 42.300781 -86.507812 42.78125 -87 C 43.269531 -87.488281 43.890625 -87.734375 44.640625 -87.734375 L 61.171875 -87.734375 C 61.910156 -87.734375 62.519531 -87.488281 63 -87 C 63.488281 -86.507812 63.734375 -85.78125 63.734375 -84.8125 L 63.734375 -24.84375 C 63.734375 -19.988281 62.5625 -15.5625 60.21875 -11.5625 C 57.882812 -7.5625 54.488281 -4.363281 50.03125 -1.96875 C 45.570312 0.425781 40.144531 1.625 33.75 1.625 C 29.53125 1.625 25.660156 0.910156 22.140625 -0.515625 C 18.628906 -1.941406 15.601562 -3.894531 13.0625 -6.375 C 10.519531 -8.863281 8.546875 -11.691406 7.140625 -14.859375 C 5.742188 -18.035156 5.046875 -21.363281 5.046875 -24.84375 L 5.046875 -84.734375 C 5.046875 -85.703125 5.289062 -86.441406 5.78125 -86.953125 C 6.269531 -87.472656 6.882812 -87.734375 7.625 -87.734375 L 24.328125 -87.734375 C 25.929688 -87.734375 26.734375 -86.734375 26.734375 -84.734375 L 26.734375 -25.4375 C 26.734375 -23.332031 27.398438 -21.460938 28.734375 -19.828125 C 30.078125 -18.203125 31.976562 -17.390625 34.4375 -17.390625 C 36.894531 -17.390625 38.78125 -18.1875 40.09375 -19.78125 C 41.40625 -21.382812 42.0625 -23.242188 42.0625 -25.359375 Z M 42.0625 -25.359375 "/></g></g></g><g fill="#000000" fill-opacity="0.4"><g transform="translate(729.308022, 209.867808)"><g><path d="M 78.046875 -3 L 78.046875 -61.421875 C 77.984375 -64.566406 77.253906 -66.78125 75.859375 -68.0625 C 74.460938 -69.351562 72.90625 -70.054688 71.1875 -70.171875 L 70.078125 -70.171875 C 68.253906 -70.109375 66.671875 -69.421875 65.328125 -68.109375 C 63.984375 -66.796875 63.3125 -64.453125 63.3125 -61.078125 L 63.3125 -3 C 63.3125 -2.144531 63.082031 -1.429688 62.625 -0.859375 C 62.164062 -0.285156 61.535156 0 60.734375 0 L 44.125 0 C 42.40625 0 41.546875 -1 41.546875 -3 L 41.546875 -60.828125 C 41.492188 -63.285156 41.050781 -65.179688 40.21875 -66.515625 C 39.394531 -67.859375 38.410156 -68.800781 37.265625 -69.34375 C 36.117188 -69.894531 35.003906 -70.171875 33.921875 -70.171875 L 33.328125 -70.171875 C 31.554688 -70.054688 30.023438 -69.3125 28.734375 -67.9375 C 27.453125 -66.5625 26.8125 -64.019531 26.8125 -60.3125 L 26.8125 -2.90625 C 26.8125 -2.164062 26.582031 -1.492188 26.125 -0.890625 C 25.664062 -0.296875 25.039062 0 24.25 0 L 7.625 0 C 5.96875 0 5.140625 -0.96875 5.140625 -2.90625 L 5.140625 -60.828125 C 5.304688 -66.597656 6.257812 -71.335938 8 -75.046875 C 9.75 -78.753906 12.019531 -81.648438 14.8125 -83.734375 C 17.613281 -85.828125 20.671875 -87.285156 23.984375 -88.109375 C 27.296875 -88.941406 30.582031 -89.359375 33.84375 -89.359375 L 34.4375 -89.359375 C 38.257812 -89.359375 41.726562 -88.644531 44.84375 -87.21875 C 47.957031 -85.789062 50.570312 -83.503906 52.6875 -80.359375 C 54.738281 -83.441406 57.304688 -85.710938 60.390625 -87.171875 C 63.484375 -88.628906 66.882812 -89.359375 70.59375 -89.359375 L 71.28125 -89.359375 C 80.476562 -89.359375 87.53125 -86.816406 92.4375 -81.734375 C 97.351562 -76.648438 99.8125 -69.476562 99.8125 -60.21875 L 99.8125 -3 C 99.8125 -2.144531 99.582031 -1.429688 99.125 -0.859375 C 98.664062 -0.285156 98.035156 0 97.234375 0 L 80.609375 0 C 78.898438 0 78.046875 -1 78.046875 -3 Z M 78.046875 -3 "/></g></g></g><g fill="#000000" fill-opacity="0.4"><g transform="translate(834.159944, 209.867808)"><g/></g></g><g fill="#000000" fill-opacity="0.4"><g transform="translate(873.907731, 209.867808)"><g><path d="M 62.28125 -63.390625 L 62.28125 -24.421875 C 62.28125 -20.585938 61.519531 -17.070312 60 -13.875 C 58.488281 -10.675781 56.390625 -7.921875 53.703125 -5.609375 C 51.023438 -3.296875 47.898438 -1.507812 44.328125 -0.25 C 40.765625 1 36.953125 1.625 32.890625 1.625 C 28.835938 1.625 25.039062 1 21.5 -0.25 C 17.957031 -1.507812 14.84375 -3.296875 12.15625 -5.609375 C 9.476562 -7.921875 7.378906 -10.675781 5.859375 -13.875 C 4.347656 -17.070312 3.59375 -20.585938 3.59375 -24.421875 L 3.59375 -63.390625 C 3.59375 -66.992188 4.347656 -70.363281 5.859375 -73.5 C 7.378906 -76.644531 9.46875 -79.398438 12.125 -81.765625 C 14.78125 -84.140625 17.878906 -86 21.421875 -87.34375 C 24.960938 -88.6875 28.726562 -89.359375 32.71875 -89.359375 C 36.832031 -89.359375 40.675781 -88.726562 44.25 -87.46875 C 47.820312 -86.207031 50.960938 -84.421875 53.671875 -82.109375 C 56.378906 -79.796875 58.488281 -77.054688 60 -73.890625 C 61.519531 -70.722656 62.28125 -67.222656 62.28125 -63.390625 Z M 32.984375 -70.328125 C 30.640625 -70.328125 28.765625 -69.539062 27.359375 -67.96875 C 25.960938 -66.40625 25.265625 -64.679688 25.265625 -62.796875 L 25.265625 -25.015625 C 25.265625 -23.078125 25.976562 -21.320312 27.40625 -19.75 C 28.84375 -18.175781 30.703125 -17.390625 32.984375 -17.390625 C 35.328125 -17.390625 37.179688 -18.175781 38.546875 -19.75 C 39.921875 -21.320312 40.609375 -23.078125 40.609375 -25.015625 L 40.609375 -62.703125 C 40.609375 -64.648438 39.921875 -66.40625 38.546875 -67.96875 C 37.179688 -69.539062 35.328125 -70.328125 32.984375 -70.328125 Z M 32.984375 -70.328125 "/></g></g></g><g fill="#000000" fill-opacity="0.4"><g transform="translate(939.782836, 209.867808)"><g><path d="M 46 -85.328125 L 46 -72.984375 C 46 -71.847656 45.582031 -71.019531 44.75 -70.5 C 43.925781 -69.988281 43.003906 -69.734375 41.984375 -69.734375 L 37.609375 -69.734375 C 34.066406 -69.734375 31.207031 -68.546875 29.03125 -66.171875 C 26.863281 -63.804688 25.78125 -60.566406 25.78125 -56.453125 L 25.78125 -4.03125 C 25.78125 -2.539062 25.335938 -1.492188 24.453125 -0.890625 C 23.566406 -0.296875 22.726562 0 21.9375 0 L 6.6875 0 C 5.9375 0 5.316406 -0.253906 4.828125 -0.765625 C 4.347656 -1.285156 4.109375 -2.03125 4.109375 -3 L 4.109375 -59.375 C 4.109375 -64.800781 5.007812 -69.410156 6.8125 -73.203125 C 8.613281 -77.003906 11 -80.085938 13.96875 -82.453125 C 16.9375 -84.828125 20.191406 -86.570312 23.734375 -87.6875 C 27.273438 -88.800781 30.757812 -89.359375 34.1875 -89.359375 C 36.125 -89.359375 37.847656 -89.3125 39.359375 -89.21875 C 40.878906 -89.132812 42.265625 -88.953125 43.515625 -88.671875 C 45.171875 -88.210938 46 -87.097656 46 -85.328125 Z M 46 -85.328125 "/></g></g></g><g fill="#000000" fill-opacity="0.4"><g transform="translate(986.64068, 209.867808)"><g><path d="M 44.546875 14.484375 C 44.546875 18.304688 43.742188 21.375 42.140625 23.6875 C 40.546875 26 38.40625 27.664062 35.71875 28.6875 C 33.039062 29.71875 30.101562 30.234375 26.90625 30.234375 L 20.46875 30.234375 C 19.675781 30.234375 19.109375 30.019531 18.765625 29.59375 C 18.421875 29.164062 18.25 28.664062 18.25 28.09375 L 18.25 19.703125 C 18.25 18.554688 18.960938 17.984375 20.390625 17.984375 L 24.59375 17.984375 C 26.695312 17.984375 28.21875 17.523438 29.15625 16.609375 C 30.101562 15.703125 30.578125 14.421875 30.578125 12.765625 C 30.578125 11.617188 30.347656 10.445312 29.890625 9.25 C 29.441406 8.050781 28.816406 6.851562 28.015625 5.65625 L 24.765625 0.9375 C 24.703125 0.882812 24.671875 0.84375 24.671875 0.8125 C 24.671875 0.78125 24.644531 0.738281 24.59375 0.6875 C 20.53125 -0.28125 16.914062 -1.9375 13.75 -4.28125 C 10.582031 -6.625 8.097656 -9.507812 6.296875 -12.9375 C 4.492188 -16.363281 3.59375 -20.191406 3.59375 -24.421875 L 3.59375 -63.390625 C 3.59375 -66.992188 4.347656 -70.347656 5.859375 -73.453125 C 7.378906 -76.566406 9.46875 -79.320312 12.125 -81.71875 C 14.78125 -84.125 17.878906 -86 21.421875 -87.34375 C 24.960938 -88.6875 28.726562 -89.359375 32.71875 -89.359375 C 36.832031 -89.359375 40.617188 -88.6875 44.078125 -87.34375 C 47.535156 -86 50.519531 -84.125 53.03125 -81.71875 C 55.539062 -79.320312 57.492188 -76.566406 58.890625 -73.453125 C 60.296875 -70.347656 61 -66.992188 61 -63.390625 L 61 -56.625 C 61 -55.539062 60.8125 -54.796875 60.4375 -54.390625 C 60.070312 -53.992188 59.457031 -53.796875 58.59375 -53.796875 L 44.203125 -53.796875 C 42.953125 -53.796875 42.097656 -53.992188 41.640625 -54.390625 C 41.179688 -54.796875 40.953125 -55.570312 40.953125 -56.71875 L 40.953125 -62.625 C 40.953125 -64.5625 40.28125 -66.328125 38.9375 -67.921875 C 37.59375 -69.523438 35.691406 -70.328125 33.234375 -70.328125 C 30.953125 -70.328125 29.050781 -69.539062 27.53125 -67.96875 C 26.019531 -66.40625 25.265625 -64.679688 25.265625 -62.796875 L 25.265625 -25.015625 C 25.265625 -23.078125 26.019531 -21.320312 27.53125 -19.75 C 29.050781 -18.175781 30.953125 -17.390625 33.234375 -17.390625 C 35.691406 -17.390625 37.59375 -18.203125 38.9375 -19.828125 C 40.28125 -21.460938 40.953125 -23.21875 40.953125 -25.09375 L 40.953125 -29.390625 C 40.953125 -30.523438 41.132812 -31.304688 41.5 -31.734375 C 41.875 -32.171875 42.546875 -32.390625 43.515625 -32.390625 L 58.59375 -32.390625 C 59.507812 -32.390625 60.140625 -32.1875 60.484375 -31.78125 C 60.828125 -31.382812 61 -30.703125 61 -29.734375 L 61 -24.421875 C 61 -20.304688 60.097656 -16.488281 58.296875 -12.96875 C 56.492188 -9.457031 53.992188 -6.488281 50.796875 -4.0625 C 47.597656 -1.632812 43.859375 0.03125 39.578125 0.9375 L 40.171875 1.796875 C 41.429688 3.796875 42.472656 5.878906 43.296875 8.046875 C 44.128906 10.222656 44.546875 12.367188 44.546875 14.484375 Z M 44.546875 14.484375 "/></g></g></g><g fill="#000000" fill-opacity="0.4"><g transform="translate(1050.374202, 209.867808)"><g><path d="M 40.515625 -25.4375 L 40.515625 -38.46875 L 36.5 -38.46875 C 33.414062 -38.46875 31 -37.976562 29.25 -37 C 27.507812 -36.03125 26.296875 -34.742188 25.609375 -33.140625 C 24.929688 -31.546875 24.59375 -29.804688 24.59375 -27.921875 L 24.59375 -26.640625 C 24.59375 -24.472656 25.019531 -22.703125 25.875 -21.328125 C 26.726562 -19.960938 27.796875 -18.960938 29.078125 -18.328125 C 30.367188 -17.703125 31.640625 -17.390625 32.890625 -17.390625 C 34.722656 -17.390625 36.453125 -18.03125 38.078125 -19.3125 C 39.703125 -20.601562 40.515625 -22.644531 40.515625 -25.4375 Z M 30.40625 -53.96875 L 40.515625 -53.890625 L 40.515625 -59.96875 C 40.515625 -61.738281 40.144531 -63.519531 39.40625 -65.3125 C 38.664062 -67.113281 37.507812 -68.628906 35.9375 -69.859375 C 34.363281 -71.085938 32.296875 -71.703125 29.734375 -71.703125 C 26.242188 -71.703125 23.300781 -71.226562 20.90625 -70.28125 C 18.507812 -69.34375 16.507812 -68.304688 14.90625 -67.171875 C 14.507812 -66.941406 14.09375 -66.722656 13.65625 -66.515625 C 13.226562 -66.316406 12.816406 -66.21875 12.421875 -66.21875 C 11.734375 -66.21875 11.191406 -66.59375 10.796875 -67.34375 L 6.515625 -76.84375 C 6.109375 -77.644531 5.945312 -78.472656 6.03125 -79.328125 C 6.125 -80.179688 6.882812 -81.039062 8.3125 -81.90625 C 10.425781 -83.21875 12.640625 -84.429688 14.953125 -85.546875 C 17.265625 -86.660156 19.890625 -87.570312 22.828125 -88.28125 C 25.773438 -89 29.242188 -89.359375 33.234375 -89.359375 C 36.773438 -89.359375 40.257812 -88.769531 43.6875 -87.59375 C 47.113281 -86.425781 50.210938 -84.6875 52.984375 -82.375 C 55.753906 -80.0625 57.96875 -77.203125 59.625 -73.796875 C 61.28125 -70.398438 62.109375 -66.476562 62.109375 -62.03125 L 62.109375 -24.671875 C 62.109375 -20.390625 61.394531 -16.734375 59.96875 -13.703125 C 58.539062 -10.679688 56.679688 -8.171875 54.390625 -6.171875 C 52.109375 -4.171875 49.640625 -2.597656 46.984375 -1.453125 C 44.328125 -0.316406 41.726562 0.476562 39.1875 0.9375 C 36.644531 1.394531 34.460938 1.625 32.640625 1.625 C 29.265625 1.625 25.835938 1.09375 22.359375 0.03125 C 18.878906 -1.019531 15.664062 -2.65625 12.71875 -4.875 C 9.78125 -7.101562 7.410156 -9.988281 5.609375 -13.53125 C 3.804688 -17.070312 2.90625 -21.328125 2.90625 -26.296875 L 2.90625 -28.1875 C 2.90625 -32.757812 3.648438 -36.671875 5.140625 -39.921875 C 6.628906 -43.179688 8.65625 -45.851562 11.21875 -47.9375 C 13.789062 -50.019531 16.734375 -51.546875 20.046875 -52.515625 C 23.359375 -53.484375 26.8125 -53.96875 30.40625 -53.96875 Z M 30.40625 -53.96875 "/></g></g></g><g fill="#000000" fill-opacity="0.4"><g transform="translate(1116.163644, 209.867808)"><g><path d="M 78.046875 -3 L 78.046875 -61.421875 C 77.984375 -64.566406 77.253906 -66.78125 75.859375 -68.0625 C 74.460938 -69.351562 72.90625 -70.054688 71.1875 -70.171875 L 70.078125 -70.171875 C 68.253906 -70.109375 66.671875 -69.421875 65.328125 -68.109375 C 63.984375 -66.796875 63.3125 -64.453125 63.3125 -61.078125 L 63.3125 -3 C 63.3125 -2.144531 63.082031 -1.429688 62.625 -0.859375 C 62.164062 -0.285156 61.535156 0 60.734375 0 L 44.125 0 C 42.40625 0 41.546875 -1 41.546875 -3 L 41.546875 -60.828125 C 41.492188 -63.285156 41.050781 -65.179688 40.21875 -66.515625 C 39.394531 -67.859375 38.410156 -68.800781 37.265625 -69.34375 C 36.117188 -69.894531 35.003906 -70.171875 33.921875 -70.171875 L 33.328125 -70.171875 C 31.554688 -70.054688 30.023438 -69.3125 28.734375 -67.9375 C 27.453125 -66.5625 26.8125 -64.019531 26.8125 -60.3125 L 26.8125 -2.90625 C 26.8125 -2.164062 26.582031 -1.492188 26.125 -0.890625 C 25.664062 -0.296875 25.039062 0 24.25 0 L 7.625 0 C 5.96875 0 5.140625 -0.96875 5.140625 -2.90625 L 5.140625 -60.828125 C 5.304688 -66.597656 6.257812 -71.335938 8 -75.046875 C 9.75 -78.753906 12.019531 -81.648438 14.8125 -83.734375 C 17.613281 -85.828125 20.671875 -87.285156 23.984375 -88.109375 C 27.296875 -88.941406 30.582031 -89.359375 33.84375 -89.359375 L 34.4375 -89.359375 C 38.257812 -89.359375 41.726562 -88.644531 44.84375 -87.21875 C 47.957031 -85.789062 50.570312 -83.503906 52.6875 -80.359375 C 54.738281 -83.441406 57.304688 -85.710938 60.390625 -87.171875 C 63.484375 -88.628906 66.882812 -89.359375 70.59375 -89.359375 L 71.28125 -89.359375 C 80.476562 -89.359375 87.53125 -86.816406 92.4375 -81.734375 C 97.351562 -76.648438 99.8125 -69.476562 99.8125 -60.21875 L 99.8125 -3 C 99.8125 -2.144531 99.582031 -1.429688 99.125 -0.859375 C 98.664062 -0.285156 98.035156 0 97.234375 0 L 80.609375 0 C 78.898438 0 78.046875 -1 78.046875 -3 Z M 78.046875 -3 "/></g></g></g><g fill="#000000" fill-opacity="0.4"><g transform="translate(1221.015566, 209.867808)"><g><path d="M 33.328125 -70.765625 C 30.984375 -70.765625 29.066406 -69.992188 27.578125 -68.453125 C 26.097656 -66.910156 25.359375 -65.164062 25.359375 -63.21875 L 25.359375 -53.625 L 40.953125 -53.625 L 40.953125 -63.140625 C 40.953125 -65.140625 40.265625 -66.910156 38.890625 -68.453125 C 37.523438 -69.992188 35.671875 -70.765625 33.328125 -70.765625 Z M 60.484375 -26.90625 L 60.484375 -24.421875 C 60.484375 -19.617188 59.328125 -15.242188 57.015625 -11.296875 C 54.703125 -7.359375 51.457031 -4.21875 47.28125 -1.875 C 43.113281 0.457031 38.289062 1.625 32.8125 1.625 C 28.8125 1.625 25.039062 0.953125 21.5 -0.390625 C 17.957031 -1.734375 14.859375 -3.585938 12.203125 -5.953125 C 9.546875 -8.328125 7.460938 -11.097656 5.953125 -14.265625 C 4.441406 -17.429688 3.6875 -20.816406 3.6875 -24.421875 L 3.6875 -63.390625 C 3.6875 -66.992188 4.441406 -70.347656 5.953125 -73.453125 C 7.460938 -76.566406 9.546875 -79.320312 12.203125 -81.71875 C 14.859375 -84.125 17.957031 -86 21.5 -87.34375 C 25.039062 -88.6875 28.8125 -89.359375 32.8125 -89.359375 C 36.925781 -89.359375 40.679688 -88.6875 44.078125 -87.34375 C 47.472656 -86 50.410156 -84.125 52.890625 -81.71875 C 55.378906 -79.320312 57.296875 -76.566406 58.640625 -73.453125 C 59.984375 -70.347656 60.65625 -66.992188 60.65625 -63.390625 L 60.65625 -42.15625 C 60.65625 -41.175781 60.335938 -40.398438 59.703125 -39.828125 C 59.078125 -39.265625 58.28125 -38.984375 57.3125 -38.984375 L 25.359375 -38.984375 L 25.359375 -24.421875 C 25.359375 -22.535156 26.097656 -20.804688 27.578125 -19.234375 C 29.066406 -17.660156 30.984375 -16.875 33.328125 -16.875 C 35.785156 -16.875 37.671875 -17.6875 38.984375 -19.3125 C 40.296875 -20.945312 40.953125 -22.707031 40.953125 -24.59375 L 40.953125 -27.078125 C 40.953125 -27.585938 41.148438 -28.054688 41.546875 -28.484375 C 41.953125 -28.910156 42.550781 -29.125 43.34375 -29.125 L 58.25 -29.125 C 58.9375 -29.125 59.476562 -28.96875 59.875 -28.65625 C 60.28125 -28.34375 60.484375 -27.757812 60.484375 -26.90625 Z M 60.484375 -26.90625 "/></g></g></g><g fill="#000000" fill-opacity="0.4"><g transform="translate(1285.006077, 209.867808)"><g><path d="M 61.171875 0 L 44.640625 0 C 43.890625 0 43.269531 -0.253906 42.78125 -0.765625 C 42.300781 -1.285156 42.0625 -2 42.0625 -2.90625 L 42.0625 -62.96875 C 41.945312 -64.96875 41.234375 -66.691406 39.921875 -68.140625 C 38.609375 -69.597656 36.78125 -70.328125 34.4375 -70.328125 C 32.09375 -70.328125 30.25 -69.582031 28.90625 -68.09375 C 27.570312 -66.613281 26.847656 -64.875 26.734375 -62.875 L 26.734375 -3 C 26.734375 -1 25.929688 0 24.328125 0 L 7.625 0 C 6.882812 0 6.269531 -0.253906 5.78125 -0.765625 C 5.289062 -1.285156 5.046875 -2.03125 5.046875 -3 L 5.046875 -62.796875 C 5.046875 -66.273438 5.742188 -69.597656 7.140625 -72.765625 C 8.546875 -75.941406 10.519531 -78.769531 13.0625 -81.25 C 15.601562 -83.738281 18.628906 -85.710938 22.140625 -87.171875 C 25.660156 -88.628906 29.53125 -89.359375 33.75 -89.359375 C 40.144531 -89.359375 45.570312 -88.15625 50.03125 -85.75 C 54.488281 -83.351562 57.882812 -80.15625 60.21875 -76.15625 C 62.5625 -72.164062 63.734375 -67.738281 63.734375 -62.875 L 63.734375 -2.90625 C 63.734375 -2 63.488281 -1.285156 63 -0.765625 C 62.519531 -0.253906 61.910156 0 61.171875 0 Z M 61.171875 0 "/></g></g></g><g fill="#000000" fill-opacity="0.4"><g transform="translate(1353.879398, 209.867808)"><g><path d="M 37.4375 0 L 32.046875 0 C 28.734375 0 25.632812 -0.398438 22.75 -1.203125 C 19.863281 -2.003906 17.332031 -3.359375 15.15625 -5.265625 C 12.988281 -7.179688 11.289062 -9.796875 10.0625 -13.109375 C 8.832031 -16.421875 8.21875 -20.585938 8.21875 -25.609375 L 8.21875 -68.625 L 3.171875 -68.625 C 2.710938 -68.625 2.164062 -68.894531 1.53125 -69.4375 C 0.90625 -69.976562 0.59375 -70.765625 0.59375 -71.796875 L 0.59375 -84.46875 C 0.59375 -85.613281 0.894531 -86.457031 1.5 -87 C 2.101562 -87.539062 2.660156 -87.8125 3.171875 -87.8125 L 8.21875 -87.8125 L 8.21875 -100.921875 C 8.21875 -101.890625 8.390625 -102.644531 8.734375 -103.1875 C 9.078125 -103.726562 9.707031 -104.113281 10.625 -104.34375 L 26.640625 -109.0625 C 26.816406 -109.113281 27.078125 -109.140625 27.421875 -109.140625 C 29.128906 -109.140625 29.984375 -108.195312 29.984375 -106.3125 L 29.984375 -87.8125 L 38.640625 -87.8125 C 40.234375 -87.8125 41.03125 -86.753906 41.03125 -84.640625 L 41.03125 -71.796875 C 41.03125 -70.878906 40.785156 -70.117188 40.296875 -69.515625 C 39.816406 -68.921875 39.175781 -68.625 38.375 -68.625 L 29.984375 -68.625 L 29.984375 -26.90625 C 29.984375 -24.5 30.550781 -22.65625 31.6875 -21.375 C 32.832031 -20.09375 34.976562 -19.453125 38.125 -19.453125 L 39.578125 -19.453125 C 40.835938 -19.453125 41.582031 -19.078125 41.8125 -18.328125 C 42.039062 -17.585938 42.15625 -16.90625 42.15625 -16.28125 L 42.15625 -2.734375 C 42.15625 -2.171875 41.9375 -1.570312 41.5 -0.9375 C 41.070312 -0.3125 39.71875 0 37.4375 0 Z M 37.4375 0 "/></g></g></g><g fill="#000000" fill-opacity="0.4"><g transform="translate(1398.85265, 209.867808)"><g><path d="M 62.28125 -63.390625 L 62.28125 -24.421875 C 62.28125 -20.585938 61.519531 -17.070312 60 -13.875 C 58.488281 -10.675781 56.390625 -7.921875 53.703125 -5.609375 C 51.023438 -3.296875 47.898438 -1.507812 44.328125 -0.25 C 40.765625 1 36.953125 1.625 32.890625 1.625 C 28.835938 1.625 25.039062 1 21.5 -0.25 C 17.957031 -1.507812 14.84375 -3.296875 12.15625 -5.609375 C 9.476562 -7.921875 7.378906 -10.675781 5.859375 -13.875 C 4.347656 -17.070312 3.59375 -20.585938 3.59375 -24.421875 L 3.59375 -63.390625 C 3.59375 -66.992188 4.347656 -70.363281 5.859375 -73.5 C 7.378906 -76.644531 9.46875 -79.398438 12.125 -81.765625 C 14.78125 -84.140625 17.878906 -86 21.421875 -87.34375 C 24.960938 -88.6875 28.726562 -89.359375 32.71875 -89.359375 C 36.832031 -89.359375 40.675781 -88.726562 44.25 -87.46875 C 47.820312 -86.207031 50.960938 -84.421875 53.671875 -82.109375 C 56.378906 -79.796875 58.488281 -77.054688 60 -73.890625 C 61.519531 -70.722656 62.28125 -67.222656 62.28125 -63.390625 Z M 32.984375 -70.328125 C 30.640625 -70.328125 28.765625 -69.539062 27.359375 -67.96875 C 25.960938 -66.40625 25.265625 -64.679688 25.265625 -62.796875 L 25.265625 -25.015625 C 25.265625 -23.078125 25.976562 -21.320312 27.40625 -19.75 C 28.84375 -18.175781 30.703125 -17.390625 32.984375 -17.390625 C 35.328125 -17.390625 37.179688 -18.175781 38.546875 -19.75 C 39.921875 -21.320312 40.609375 -23.078125 40.609375 -25.015625 L 40.609375 -62.703125 C 40.609375 -64.648438 39.921875 -66.40625 38.546875 -67.96875 C 37.179688 -69.539062 35.328125 -70.328125 32.984375 -70.328125 Z M 32.984375 -70.328125 "/></g></g></g><g fill="#000000" fill-opacity="1"><g transform="translate(200.377992, 202.11351)"><g><path d="M 43.09375 -84.21875 L 43.09375 -89.015625 C 43.09375 -91.984375 42.320312 -94.523438 40.78125 -96.640625 C 39.238281 -98.753906 36.925781 -99.8125 33.84375 -99.8125 C 32.414062 -99.8125 30.988281 -99.453125 29.5625 -98.734375 C 28.132812 -98.023438 26.945312 -96.882812 26 -95.3125 C 25.0625 -93.738281 24.59375 -91.640625 24.59375 -89.015625 C 24.59375 -86.328125 25.117188 -84.023438 26.171875 -82.109375 C 27.222656 -80.203125 28.707031 -78.421875 30.625 -76.765625 C 32.539062 -75.109375 34.753906 -73.28125 37.265625 -71.28125 C 41.265625 -68.195312 45.003906 -65.195312 48.484375 -62.28125 C 51.972656 -59.363281 55.03125 -56.273438 57.65625 -53.015625 C 60.28125 -49.765625 62.332031 -46.113281 63.8125 -42.0625 C 65.300781 -38.007812 66.046875 -33.269531 66.046875 -27.84375 C 66.046875 -23.84375 65.289062 -20.054688 63.78125 -16.484375 C 62.269531 -12.921875 60.128906 -9.753906 57.359375 -6.984375 C 54.585938 -4.210938 51.257812 -2.039062 47.375 -0.46875 C 43.488281 1.101562 39.175781 1.890625 34.4375 1.890625 C 29.300781 1.890625 24.789062 1.046875 20.90625 -0.640625 C 17.019531 -2.328125 13.773438 -4.597656 11.171875 -7.453125 C 8.578125 -10.304688 6.632812 -13.585938 5.34375 -17.296875 C 4.0625 -21.015625 3.421875 -24.875 3.421875 -28.875 L 3.421875 -33.40625 C 3.421875 -34.894531 3.609375 -35.953125 3.984375 -36.578125 C 4.359375 -37.210938 5.144531 -37.53125 6.34375 -37.53125 L 21.9375 -37.53125 C 23.132812 -37.53125 23.914062 -37.269531 24.28125 -36.75 C 24.65625 -36.238281 24.84375 -35.328125 24.84375 -34.015625 L 24.84375 -30.15625 C 24.84375 -27.300781 25.351562 -25.046875 26.375 -23.390625 C 27.40625 -21.734375 28.675781 -20.5625 30.1875 -19.875 C 31.707031 -19.1875 33.179688 -18.84375 34.609375 -18.84375 C 37.296875 -18.84375 39.59375 -19.753906 41.5 -21.578125 C 43.414062 -23.410156 44.375 -25.898438 44.375 -29.046875 C 44.375 -31.835938 43.859375 -34.25 42.828125 -36.28125 C 41.804688 -38.3125 40.195312 -40.351562 38 -42.40625 C 35.800781 -44.457031 32.929688 -46.914062 29.390625 -49.78125 C 24.929688 -53.425781 21.054688 -56.648438 17.765625 -59.453125 C 14.484375 -62.253906 11.785156 -65.039062 9.671875 -67.8125 C 7.566406 -70.582031 6 -73.679688 4.96875 -77.109375 C 3.9375 -80.535156 3.421875 -84.703125 3.421875 -89.609375 C 3.421875 -94.066406 4.078125 -97.992188 5.390625 -101.390625 C 6.710938 -104.785156 8.472656 -107.679688 10.671875 -110.078125 C 12.867188 -112.484375 15.304688 -114.441406 17.984375 -115.953125 C 20.671875 -117.460938 23.382812 -118.570312 26.125 -119.28125 C 28.863281 -120 31.4375 -120.359375 33.84375 -120.359375 C 39.78125 -120.359375 45.03125 -119.070312 49.59375 -116.5 C 54.164062 -113.9375 57.75 -110.3125 60.34375 -105.625 C 62.945312 -100.945312 64.25 -95.4375 64.25 -89.09375 L 64.25 -84.21875 C 64.25 -83.019531 64.035156 -82.175781 63.609375 -81.6875 C 63.179688 -81.195312 62.28125 -80.953125 60.90625 -80.953125 L 45.578125 -80.953125 C 44.492188 -80.953125 43.804688 -81.195312 43.515625 -81.6875 C 43.234375 -82.175781 43.09375 -83.019531 43.09375 -84.21875 Z M 43.09375 -84.21875 "/></g></g></g><g fill="#000000" fill-opacity="1"><g transform="translate(268.90866, 202.11351)"><g><path d="M 62.28125 -63.390625 L 62.28125 -24.421875 C 62.28125 -20.585938 61.519531 -17.070312 60 -13.875 C 58.488281 -10.675781 56.390625 -7.921875 53.703125 -5.609375 C 51.023438 -3.296875 47.898438 -1.507812 44.328125 -0.25 C 40.765625 1 36.953125 1.625 32.890625 1.625 C 28.835938 1.625 25.039062 1 21.5 -0.25 C 17.957031 -1.507812 14.84375 -3.296875 12.15625 -5.609375 C 9.476562 -7.921875 7.378906 -10.675781 5.859375 -13.875 C 4.347656 -17.070312 3.59375 -20.585938 3.59375 -24.421875 L 3.59375 -63.390625 C 3.59375 -66.992188 4.347656 -70.363281 5.859375 -73.5 C 7.378906 -76.644531 9.46875 -79.398438 12.125 -81.765625 C 14.78125 -84.140625 17.878906 -86 21.421875 -87.34375 C 24.960938 -88.6875 28.726562 -89.359375 32.71875 -89.359375 C 36.832031 -89.359375 40.675781 -88.726562 44.25 -87.46875 C 47.820312 -86.207031 50.960938 -84.421875 53.671875 -82.109375 C 56.378906 -79.796875 58.488281 -77.054688 60 -73.890625 C 61.519531 -70.722656 62.28125 -67.222656 62.28125 -63.390625 Z M 32.984375 -70.328125 C 30.640625 -70.328125 28.765625 -69.539062 27.359375 -67.96875 C 25.960938 -66.40625 25.265625 -64.679688 25.265625 -62.796875 L 25.265625 -25.015625 C 25.265625 -23.078125 25.976562 -21.320312 27.40625 -19.75 C 28.84375 -18.175781 30.703125 -17.390625 32.984375 -17.390625 C 35.328125 -17.390625 37.179688 -18.175781 38.546875 -19.75 C 39.921875 -21.320312 40.609375 -23.078125 40.609375 -25.015625 L 40.609375 -62.703125 C 40.609375 -64.648438 39.921875 -66.40625 38.546875 -67.96875 C 37.179688 -69.539062 35.328125 -70.328125 32.984375 -70.328125 Z M 32.984375 -70.328125 "/></g></g></g><g fill="#000000" fill-opacity="1"><g transform="translate(334.783765, 202.11351)"><g><path d="M 39.15625 -16.28125 L 39.15625 -2.734375 C 39.15625 -2.171875 38.925781 -1.570312 38.46875 -0.9375 C 38.007812 -0.3125 36.640625 0 34.359375 0 L 28.953125 0 C 25.703125 0 22.632812 -0.398438 19.75 -1.203125 C 16.863281 -2.003906 14.320312 -3.359375 12.125 -5.265625 C 9.925781 -7.179688 8.210938 -9.796875 6.984375 -13.109375 C 5.753906 -16.421875 5.140625 -20.585938 5.140625 -25.609375 L 5.140625 -115.65625 C 5.140625 -117.59375 6.109375 -118.5625 8.046875 -118.5625 L 24.078125 -118.5625 C 25.960938 -118.5625 26.90625 -117.59375 26.90625 -115.65625 L 26.90625 -26.90625 C 26.90625 -24.5 27.472656 -22.65625 28.609375 -21.375 C 29.753906 -20.09375 31.898438 -19.453125 35.046875 -19.453125 L 36.5 -19.453125 C 37.8125 -19.453125 38.582031 -19.078125 38.8125 -18.328125 C 39.039062 -17.585938 39.15625 -16.90625 39.15625 -16.28125 Z M 39.15625 -16.28125 "/></g></g></g><g fill="#000000" fill-opacity="1"><g transform="translate(376.330483, 202.11351)"><g><path d="M 5.046875 -2.828125 L 5.046875 -85.078125 C 5.046875 -85.867188 5.347656 -86.507812 5.953125 -87 C 6.554688 -87.488281 7.226562 -87.734375 7.96875 -87.734375 L 23.640625 -87.734375 C 24.503906 -87.734375 25.265625 -87.472656 25.921875 -86.953125 C 26.578125 -86.441406 26.90625 -85.816406 26.90625 -85.078125 L 26.90625 -2.828125 C 26.90625 -1.910156 26.601562 -1.207031 26 -0.71875 C 25.394531 -0.238281 24.609375 0 23.640625 0 L 7.96875 0 C 6.019531 0 5.046875 -0.941406 5.046875 -2.828125 Z M 27.328125 -110.265625 L 27.328125 -98.4375 C 27.328125 -96.832031 26.941406 -95.726562 26.171875 -95.125 C 25.398438 -94.53125 24.300781 -94.234375 22.875 -94.234375 L 9.078125 -94.234375 C 7.597656 -94.234375 6.398438 -94.519531 5.484375 -95.09375 C 4.566406 -95.664062 4.109375 -96.75 4.109375 -98.34375 L 4.109375 -110.34375 C 4.109375 -111.65625 4.476562 -112.738281 5.21875 -113.59375 C 5.96875 -114.457031 7.226562 -114.890625 9 -114.890625 L 22.875 -114.890625 C 24.53125 -114.890625 25.6875 -114.488281 26.34375 -113.6875 C 27 -112.882812 27.328125 -111.742188 27.328125 -110.265625 Z M 27.328125 -110.265625 "/></g></g></g><g fill="#000000" fill-opacity="1"><g transform="translate(408.282907, 202.11351)"><g><path d="M 43.515625 -32.390625 L 58.59375 -32.390625 C 59.507812 -32.390625 60.140625 -32.1875 60.484375 -31.78125 C 60.828125 -31.382812 61 -30.703125 61 -29.734375 L 61 -24.421875 C 61 -20.816406 60.296875 -17.429688 58.890625 -14.265625 C 57.492188 -11.097656 55.539062 -8.328125 53.03125 -5.953125 C 50.519531 -3.585938 47.535156 -1.734375 44.078125 -0.390625 C 40.617188 0.953125 36.832031 1.625 32.71875 1.625 C 28.726562 1.625 24.960938 1 21.421875 -0.25 C 17.878906 -1.507812 14.78125 -3.296875 12.125 -5.609375 C 9.46875 -7.921875 7.378906 -10.675781 5.859375 -13.875 C 4.347656 -17.070312 3.59375 -20.585938 3.59375 -24.421875 L 3.59375 -63.390625 C 3.59375 -66.992188 4.347656 -70.347656 5.859375 -73.453125 C 7.378906 -76.566406 9.46875 -79.320312 12.125 -81.71875 C 14.78125 -84.125 17.878906 -86 21.421875 -87.34375 C 24.960938 -88.6875 28.726562 -89.359375 32.71875 -89.359375 C 36.832031 -89.359375 40.617188 -88.6875 44.078125 -87.34375 C 47.535156 -86 50.519531 -84.125 53.03125 -81.71875 C 55.539062 -79.320312 57.492188 -76.566406 58.890625 -73.453125 C 60.296875 -70.347656 61 -66.992188 61 -63.390625 L 61 -56.625 C 61 -55.539062 60.8125 -54.796875 60.4375 -54.390625 C 60.070312 -53.992188 59.457031 -53.796875 58.59375 -53.796875 L 44.203125 -53.796875 C 42.953125 -53.796875 42.097656 -53.992188 41.640625 -54.390625 C 41.179688 -54.796875 40.953125 -55.570312 40.953125 -56.71875 L 40.953125 -62.625 C 40.953125 -64.5625 40.28125 -66.328125 38.9375 -67.921875 C 37.59375 -69.523438 35.691406 -70.328125 33.234375 -70.328125 C 30.953125 -70.328125 29.050781 -69.539062 27.53125 -67.96875 C 26.019531 -66.40625 25.265625 -64.679688 25.265625 -62.796875 L 25.265625 -25.015625 C 25.265625 -23.078125 26.019531 -21.320312 27.53125 -19.75 C 29.050781 -18.175781 30.953125 -17.390625 33.234375 -17.390625 C 35.691406 -17.390625 37.59375 -18.203125 38.9375 -19.828125 C 40.28125 -21.460938 40.953125 -23.21875 40.953125 -25.09375 L 40.953125 -29.390625 C 40.953125 -30.523438 41.132812 -31.304688 41.5 -31.734375 C 41.875 -32.171875 42.546875 -32.390625 43.515625 -32.390625 Z M 43.515625 -32.390625 "/></g></g></g><g fill="#000000" fill-opacity="1"><g transform="translate(472.016429, 202.11351)"><g><path d="M 5.046875 -2.828125 L 5.046875 -85.078125 C 5.046875 -85.867188 5.347656 -86.507812 5.953125 -87 C 6.554688 -87.488281 7.226562 -87.734375 7.96875 -87.734375 L 23.640625 -87.734375 C 24.503906 -87.734375 25.265625 -87.472656 25.921875 -86.953125 C 26.578125 -86.441406 26.90625 -85.816406 26.90625 -85.078125 L 26.90625 -2.828125 C 26.90625 -1.910156 26.601562 -1.207031 26 -0.71875 C 25.394531 -0.238281 24.609375 0 23.640625 0 L 7.96875 0 C 6.019531 0 5.046875 -0.941406 5.046875 -2.828125 Z M 27.328125 -110.265625 L 27.328125 -98.4375 C 27.328125 -96.832031 26.941406 -95.726562 26.171875 -95.125 C 25.398438 -94.53125 24.300781 -94.234375 22.875 -94.234375 L 9.078125 -94.234375 C 7.597656 -94.234375 6.398438 -94.519531 5.484375 -95.09375 C 4.566406 -95.664062 4.109375 -96.75 4.109375 -98.34375 L 4.109375 -110.34375 C 4.109375 -111.65625 4.476562 -112.738281 5.21875 -113.59375 C 5.96875 -114.457031 7.226562 -114.890625 9 -114.890625 L 22.875 -114.890625 C 24.53125 -114.890625 25.6875 -114.488281 26.34375 -113.6875 C 27 -112.882812 27.328125 -111.742188 27.328125 -110.265625 Z M 27.328125 -110.265625 "/></g></g></g><g fill="#000000" fill-opacity="1"><g transform="translate(503.968854, 202.11351)"><g><path d="M 37.4375 0 L 32.046875 0 C 28.734375 0 25.632812 -0.398438 22.75 -1.203125 C 19.863281 -2.003906 17.332031 -3.359375 15.15625 -5.265625 C 12.988281 -7.179688 11.289062 -9.796875 10.0625 -13.109375 C 8.832031 -16.421875 8.21875 -20.585938 8.21875 -25.609375 L 8.21875 -68.625 L 3.171875 -68.625 C 2.710938 -68.625 2.164062 -68.894531 1.53125 -69.4375 C 0.90625 -69.976562 0.59375 -70.765625 0.59375 -71.796875 L 0.59375 -84.46875 C 0.59375 -85.613281 0.894531 -86.457031 1.5 -87 C 2.101562 -87.539062 2.660156 -87.8125 3.171875 -87.8125 L 8.21875 -87.8125 L 8.21875 -100.921875 C 8.21875 -101.890625 8.390625 -102.644531 8.734375 -103.1875 C 9.078125 -103.726562 9.707031 -104.113281 10.625 -104.34375 L 26.640625 -109.0625 C 26.816406 -109.113281 27.078125 -109.140625 27.421875 -109.140625 C 29.128906 -109.140625 29.984375 -108.195312 29.984375 -106.3125 L 29.984375 -87.8125 L 38.640625 -87.8125 C 40.234375 -87.8125 41.03125 -86.753906 41.03125 -84.640625 L 41.03125 -71.796875 C 41.03125 -70.878906 40.785156 -70.117188 40.296875 -69.515625 C 39.816406 -68.921875 39.175781 -68.625 38.375 -68.625 L 29.984375 -68.625 L 29.984375 -26.90625 C 29.984375 -24.5 30.550781 -22.65625 31.6875 -21.375 C 32.832031 -20.09375 34.976562 -19.453125 38.125 -19.453125 L 39.578125 -19.453125 C 40.835938 -19.453125 41.582031 -19.078125 41.8125 -18.328125 C 42.039062 -17.585938 42.15625 -16.90625 42.15625 -16.28125 L 42.15625 -2.734375 C 42.15625 -2.171875 41.9375 -1.570312 41.5 -0.9375 C 41.070312 -0.3125 39.71875 0 37.4375 0 Z M 37.4375 0 "/></g></g></g><g fill="#000000" fill-opacity="1"><g transform="translate(548.942105, 202.11351)"><g><path d="M 33.328125 -70.765625 C 30.984375 -70.765625 29.066406 -69.992188 27.578125 -68.453125 C 26.097656 -66.910156 25.359375 -65.164062 25.359375 -63.21875 L 25.359375 -53.625 L 40.953125 -53.625 L 40.953125 -63.140625 C 40.953125 -65.140625 40.265625 -66.910156 38.890625 -68.453125 C 37.523438 -69.992188 35.671875 -70.765625 33.328125 -70.765625 Z M 60.484375 -26.90625 L 60.484375 -24.421875 C 60.484375 -19.617188 59.328125 -15.242188 57.015625 -11.296875 C 54.703125 -7.359375 51.457031 -4.21875 47.28125 -1.875 C 43.113281 0.457031 38.289062 1.625 32.8125 1.625 C 28.8125 1.625 25.039062 0.953125 21.5 -0.390625 C 17.957031 -1.734375 14.859375 -3.585938 12.203125 -5.953125 C 9.546875 -8.328125 7.460938 -11.097656 5.953125 -14.265625 C 4.441406 -17.429688 3.6875 -20.816406 3.6875 -24.421875 L 3.6875 -63.390625 C 3.6875 -66.992188 4.441406 -70.347656 5.953125 -73.453125 C 7.460938 -76.566406 9.546875 -79.320312 12.203125 -81.71875 C 14.859375 -84.125 17.957031 -86 21.5 -87.34375 C 25.039062 -88.6875 28.8125 -89.359375 32.8125 -89.359375 C 36.925781 -89.359375 40.679688 -88.6875 44.078125 -87.34375 C 47.472656 -86 50.410156 -84.125 52.890625 -81.71875 C 55.378906 -79.320312 57.296875 -76.566406 58.640625 -73.453125 C 59.984375 -70.347656 60.65625 -66.992188 60.65625 -63.390625 L 60.65625 -42.15625 C 60.65625 -41.175781 60.335938 -40.398438 59.703125 -39.828125 C 59.078125 -39.265625 58.28125 -38.984375 57.3125 -38.984375 L 25.359375 -38.984375 L 25.359375 -24.421875 C 25.359375 -22.535156 26.097656 -20.804688 27.578125 -19.234375 C 29.066406 -17.660156 30.984375 -16.875 33.328125 -16.875 C 35.785156 -16.875 37.671875 -17.6875 38.984375 -19.3125 C 40.296875 -20.945312 40.953125 -22.707031 40.953125 -24.59375 L 40.953125 -27.078125 C 40.953125 -27.585938 41.148438 -28.054688 41.546875 -28.484375 C 41.953125 -28.910156 42.550781 -29.125 43.34375 -29.125 L 58.25 -29.125 C 58.9375 -29.125 59.476562 -28.96875 59.875 -28.65625 C 60.28125 -28.34375 60.484375 -27.757812 60.484375 -26.90625 Z M 60.484375 -26.90625 "/></g></g></g><g fill="#000000" fill-opacity="1"><g transform="translate(612.932616, 202.11351)"><g/></g></g><g fill="#000000" fill-opacity="1"><g transform="translate(652.680404, 202.11351)"><g><path d="M 42.0625 -25.359375 L 42.0625 -84.8125 C 42.0625 -85.78125 42.300781 -86.507812 42.78125 -87 C 43.269531 -87.488281 43.890625 -87.734375 44.640625 -87.734375 L 61.171875 -87.734375 C 61.910156 -87.734375 62.519531 -87.488281 63 -87 C 63.488281 -86.507812 63.734375 -85.78125 63.734375 -84.8125 L 63.734375 -24.84375 C 63.734375 -19.988281 62.5625 -15.5625 60.21875 -11.5625 C 57.882812 -7.5625 54.488281 -4.363281 50.03125 -1.96875 C 45.570312 0.425781 40.144531 1.625 33.75 1.625 C 29.53125 1.625 25.660156 0.910156 22.140625 -0.515625 C 18.628906 -1.941406 15.601562 -3.894531 13.0625 -6.375 C 10.519531 -8.863281 8.546875 -11.691406 7.140625 -14.859375 C 5.742188 -18.035156 5.046875 -21.363281 5.046875 -24.84375 L 5.046875 -84.734375 C 5.046875 -85.703125 5.289062 -86.441406 5.78125 -86.953125 C 6.269531 -87.472656 6.882812 -87.734375 7.625 -87.734375 L 24.328125 -87.734375 C 25.929688 -87.734375 26.734375 -86.734375 26.734375 -84.734375 L 26.734375 -25.4375 C 26.734375 -23.332031 27.398438 -21.460938 28.734375 -19.828125 C 30.078125 -18.203125 31.976562 -17.390625 34.4375 -17.390625 C 36.894531 -17.390625 38.78125 -18.1875 40.09375 -19.78125 C 41.40625 -21.382812 42.0625 -23.242188 42.0625 -25.359375 Z M 42.0625 -25.359375 "/></g></g></g><g fill="#000000" fill-opacity="1"><g transform="translate(721.553725, 202.11351)"><g><path d="M 78.046875 -3 L 78.046875 -61.421875 C 77.984375 -64.566406 77.253906 -66.78125 75.859375 -68.0625 C 74.460938 -69.351562 72.90625 -70.054688 71.1875 -70.171875 L 70.078125 -70.171875 C 68.253906 -70.109375 66.671875 -69.421875 65.328125 -68.109375 C 63.984375 -66.796875 63.3125 -64.453125 63.3125 -61.078125 L 63.3125 -3 C 63.3125 -2.144531 63.082031 -1.429688 62.625 -0.859375 C 62.164062 -0.285156 61.535156 0 60.734375 0 L 44.125 0 C 42.40625 0 41.546875 -1 41.546875 -3 L 41.546875 -60.828125 C 41.492188 -63.285156 41.050781 -65.179688 40.21875 -66.515625 C 39.394531 -67.859375 38.410156 -68.800781 37.265625 -69.34375 C 36.117188 -69.894531 35.003906 -70.171875 33.921875 -70.171875 L 33.328125 -70.171875 C 31.554688 -70.054688 30.023438 -69.3125 28.734375 -67.9375 C 27.453125 -66.5625 26.8125 -64.019531 26.8125 -60.3125 L 26.8125 -2.90625 C 26.8125 -2.164062 26.582031 -1.492188 26.125 -0.890625 C 25.664062 -0.296875 25.039062 0 24.25 0 L 7.625 0 C 5.96875 0 5.140625 -0.96875 5.140625 -2.90625 L 5.140625 -60.828125 C 5.304688 -66.597656 6.257812 -71.335938 8 -75.046875 C 9.75 -78.753906 12.019531 -81.648438 14.8125 -83.734375 C 17.613281 -85.828125 20.671875 -87.285156 23.984375 -88.109375 C 27.296875 -88.941406 30.582031 -89.359375 33.84375 -89.359375 L 34.4375 -89.359375 C 38.257812 -89.359375 41.726562 -88.644531 44.84375 -87.21875 C 47.957031 -85.789062 50.570312 -83.503906 52.6875 -80.359375 C 54.738281 -83.441406 57.304688 -85.710938 60.390625 -87.171875 C 63.484375 -88.628906 66.882812 -89.359375 70.59375 -89.359375 L 71.28125 -89.359375 C 80.476562 -89.359375 87.53125 -86.816406 92.4375 -81.734375 C 97.351562 -76.648438 99.8125 -69.476562 99.8125 -60.21875 L 99.8125 -3 C 99.8125 -2.144531 99.582031 -1.429688 99.125 -0.859375 C 98.664062 -0.285156 98.035156 0 97.234375 0 L 80.609375 0 C 78.898438 0 78.046875 -1 78.046875 -3 Z M 78.046875 -3 "/></g></g></g><g fill="#000000" fill-opacity="1"><g transform="translate(826.405647, 202.11351)"><g/></g></g><g fill="#000000" fill-opacity="1"><g transform="translate(866.153435, 202.11351)"><g><path d="M 62.28125 -63.390625 L 62.28125 -24.421875 C 62.28125 -20.585938 61.519531 -17.070312 60 -13.875 C 58.488281 -10.675781 56.390625 -7.921875 53.703125 -5.609375 C 51.023438 -3.296875 47.898438 -1.507812 44.328125 -0.25 C 40.765625 1 36.953125 1.625 32.890625 1.625 C 28.835938 1.625 25.039062 1 21.5 -0.25 C 17.957031 -1.507812 14.84375 -3.296875 12.15625 -5.609375 C 9.476562 -7.921875 7.378906 -10.675781 5.859375 -13.875 C 4.347656 -17.070312 3.59375 -20.585938 3.59375 -24.421875 L 3.59375 -63.390625 C 3.59375 -66.992188 4.347656 -70.363281 5.859375 -73.5 C 7.378906 -76.644531 9.46875 -79.398438 12.125 -81.765625 C 14.78125 -84.140625 17.878906 -86 21.421875 -87.34375 C 24.960938 -88.6875 28.726562 -89.359375 32.71875 -89.359375 C 36.832031 -89.359375 40.675781 -88.726562 44.25 -87.46875 C 47.820312 -86.207031 50.960938 -84.421875 53.671875 -82.109375 C 56.378906 -79.796875 58.488281 -77.054688 60 -73.890625 C 61.519531 -70.722656 62.28125 -67.222656 62.28125 -63.390625 Z M 32.984375 -70.328125 C 30.640625 -70.328125 28.765625 -69.539062 27.359375 -67.96875 C 25.960938 -66.40625 25.265625 -64.679688 25.265625 -62.796875 L 25.265625 -25.015625 C 25.265625 -23.078125 25.976562 -21.320312 27.40625 -19.75 C 28.84375 -18.175781 30.703125 -17.390625 32.984375 -17.390625 C 35.328125 -17.390625 37.179688 -18.175781 38.546875 -19.75 C 39.921875 -21.320312 40.609375 -23.078125 40.609375 -25.015625 L 40.609375 -62.703125 C 40.609375 -64.648438 39.921875 -66.40625 38.546875 -67.96875 C 37.179688 -69.539062 35.328125 -70.328125 32.984375 -70.328125 Z M 32.984375 -70.328125 "/></g></g></g><g fill="#000000" fill-opacity="1"><g transform="translate(932.028539, 202.11351)"><g><path d="M 46 -85.328125 L 46 -72.984375 C 46 -71.847656 45.582031 -71.019531 44.75 -70.5 C 43.925781 -69.988281 43.003906 -69.734375 41.984375 -69.734375 L 37.609375 -69.734375 C 34.066406 -69.734375 31.207031 -68.546875 29.03125 -66.171875 C 26.863281 -63.804688 25.78125 -60.566406 25.78125 -56.453125 L 25.78125 -4.03125 C 25.78125 -2.539062 25.335938 -1.492188 24.453125 -0.890625 C 23.566406 -0.296875 22.726562 0 21.9375 0 L 6.6875 0 C 5.9375 0 5.316406 -0.253906 4.828125 -0.765625 C 4.347656 -1.285156 4.109375 -2.03125 4.109375 -3 L 4.109375 -59.375 C 4.109375 -64.800781 5.007812 -69.410156 6.8125 -73.203125 C 8.613281 -77.003906 11 -80.085938 13.96875 -82.453125 C 16.9375 -84.828125 20.191406 -86.570312 23.734375 -87.6875 C 27.273438 -88.800781 30.757812 -89.359375 34.1875 -89.359375 C 36.125 -89.359375 37.847656 -89.3125 39.359375 -89.21875 C 40.878906 -89.132812 42.265625 -88.953125 43.515625 -88.671875 C 45.171875 -88.210938 46 -87.097656 46 -85.328125 Z M 46 -85.328125 "/></g></g></g><g fill="#000000" fill-opacity="1"><g transform="translate(978.886384, 202.11351)"><g><path d="M 44.546875 14.484375 C 44.546875 18.304688 43.742188 21.375 42.140625 23.6875 C 40.546875 26 38.40625 27.664062 35.71875 28.6875 C 33.039062 29.71875 30.101562 30.234375 26.90625 30.234375 L 20.46875 30.234375 C 19.675781 30.234375 19.109375 30.019531 18.765625 29.59375 C 18.421875 29.164062 18.25 28.664062 18.25 28.09375 L 18.25 19.703125 C 18.25 18.554688 18.960938 17.984375 20.390625 17.984375 L 24.59375 17.984375 C 26.695312 17.984375 28.21875 17.523438 29.15625 16.609375 C 30.101562 15.703125 30.578125 14.421875 30.578125 12.765625 C 30.578125 11.617188 30.347656 10.445312 29.890625 9.25 C 29.441406 8.050781 28.816406 6.851562 28.015625 5.65625 L 24.765625 0.9375 C 24.703125 0.882812 24.671875 0.84375 24.671875 0.8125 C 24.671875 0.78125 24.644531 0.738281 24.59375 0.6875 C 20.53125 -0.28125 16.914062 -1.9375 13.75 -4.28125 C 10.582031 -6.625 8.097656 -9.507812 6.296875 -12.9375 C 4.492188 -16.363281 3.59375 -20.191406 3.59375 -24.421875 L 3.59375 -63.390625 C 3.59375 -66.992188 4.347656 -70.347656 5.859375 -73.453125 C 7.378906 -76.566406 9.46875 -79.320312 12.125 -81.71875 C 14.78125 -84.125 17.878906 -86 21.421875 -87.34375 C 24.960938 -88.6875 28.726562 -89.359375 32.71875 -89.359375 C 36.832031 -89.359375 40.617188 -88.6875 44.078125 -87.34375 C 47.535156 -86 50.519531 -84.125 53.03125 -81.71875 C 55.539062 -79.320312 57.492188 -76.566406 58.890625 -73.453125 C 60.296875 -70.347656 61 -66.992188 61 -63.390625 L 61 -56.625 C 61 -55.539062 60.8125 -54.796875 60.4375 -54.390625 C 60.070312 -53.992188 59.457031 -53.796875 58.59375 -53.796875 L 44.203125 -53.796875 C 42.953125 -53.796875 42.097656 -53.992188 41.640625 -54.390625 C 41.179688 -54.796875 40.953125 -55.570312 40.953125 -56.71875 L 40.953125 -62.625 C 40.953125 -64.5625 40.28125 -66.328125 38.9375 -67.921875 C 37.59375 -69.523438 35.691406 -70.328125 33.234375 -70.328125 C 30.953125 -70.328125 29.050781 -69.539062 27.53125 -67.96875 C 26.019531 -66.40625 25.265625 -64.679688 25.265625 -62.796875 L 25.265625 -25.015625 C 25.265625 -23.078125 26.019531 -21.320312 27.53125 -19.75 C 29.050781 -18.175781 30.953125 -17.390625 33.234375 -17.390625 C 35.691406 -17.390625 37.59375 -18.203125 38.9375 -19.828125 C 40.28125 -21.460938 40.953125 -23.21875 40.953125 -25.09375 L 40.953125 -29.390625 C 40.953125 -30.523438 41.132812 -31.304688 41.5 -31.734375 C 41.875 -32.171875 42.546875 -32.390625 43.515625 -32.390625 L 58.59375 -32.390625 C 59.507812 -32.390625 60.140625 -32.1875 60.484375 -31.78125 C 60.828125 -31.382812 61 -30.703125 61 -29.734375 L 61 -24.421875 C 61 -20.304688 60.097656 -16.488281 58.296875 -12.96875 C 56.492188 -9.457031 53.992188 -6.488281 50.796875 -4.0625 C 47.597656 -1.632812 43.859375 0.03125 39.578125 0.9375 L 40.171875 1.796875 C 41.429688 3.796875 42.472656 5.878906 43.296875 8.046875 C 44.128906 10.222656 44.546875 12.367188 44.546875 14.484375 Z M 44.546875 14.484375 "/></g></g></g><g fill="#000000" fill-opacity="1"><g transform="translate(1042.619906, 202.11351)"><g><path d="M 40.515625 -25.4375 L 40.515625 -38.46875 L 36.5 -38.46875 C 33.414062 -38.46875 31 -37.976562 29.25 -37 C 27.507812 -36.03125 26.296875 -34.742188 25.609375 -33.140625 C 24.929688 -31.546875 24.59375 -29.804688 24.59375 -27.921875 L 24.59375 -26.640625 C 24.59375 -24.472656 25.019531 -22.703125 25.875 -21.328125 C 26.726562 -19.960938 27.796875 -18.960938 29.078125 -18.328125 C 30.367188 -17.703125 31.640625 -17.390625 32.890625 -17.390625 C 34.722656 -17.390625 36.453125 -18.03125 38.078125 -19.3125 C 39.703125 -20.601562 40.515625 -22.644531 40.515625 -25.4375 Z M 30.40625 -53.96875 L 40.515625 -53.890625 L 40.515625 -59.96875 C 40.515625 -61.738281 40.144531 -63.519531 39.40625 -65.3125 C 38.664062 -67.113281 37.507812 -68.628906 35.9375 -69.859375 C 34.363281 -71.085938 32.296875 -71.703125 29.734375 -71.703125 C 26.242188 -71.703125 23.300781 -71.226562 20.90625 -70.28125 C 18.507812 -69.34375 16.507812 -68.304688 14.90625 -67.171875 C 14.507812 -66.941406 14.09375 -66.722656 13.65625 -66.515625 C 13.226562 -66.316406 12.816406 -66.21875 12.421875 -66.21875 C 11.734375 -66.21875 11.191406 -66.59375 10.796875 -67.34375 L 6.515625 -76.84375 C 6.109375 -77.644531 5.945312 -78.472656 6.03125 -79.328125 C 6.125 -80.179688 6.882812 -81.039062 8.3125 -81.90625 C 10.425781 -83.21875 12.640625 -84.429688 14.953125 -85.546875 C 17.265625 -86.660156 19.890625 -87.570312 22.828125 -88.28125 C 25.773438 -89 29.242188 -89.359375 33.234375 -89.359375 C 36.773438 -89.359375 40.257812 -88.769531 43.6875 -87.59375 C 47.113281 -86.425781 50.210938 -84.6875 52.984375 -82.375 C 55.753906 -80.0625 57.96875 -77.203125 59.625 -73.796875 C 61.28125 -70.398438 62.109375 -66.476562 62.109375 -62.03125 L 62.109375 -24.671875 C 62.109375 -20.390625 61.394531 -16.734375 59.96875 -13.703125 C 58.539062 -10.679688 56.679688 -8.171875 54.390625 -6.171875 C 52.109375 -4.171875 49.640625 -2.597656 46.984375 -1.453125 C 44.328125 -0.316406 41.726562 0.476562 39.1875 0.9375 C 36.644531 1.394531 34.460938 1.625 32.640625 1.625 C 29.265625 1.625 25.835938 1.09375 22.359375 0.03125 C 18.878906 -1.019531 15.664062 -2.65625 12.71875 -4.875 C 9.78125 -7.101562 7.410156 -9.988281 5.609375 -13.53125 C 3.804688 -17.070312 2.90625 -21.328125 2.90625 -26.296875 L 2.90625 -28.1875 C 2.90625 -32.757812 3.648438 -36.671875 5.140625 -39.921875 C 6.628906 -43.179688 8.65625 -45.851562 11.21875 -47.9375 C 13.789062 -50.019531 16.734375 -51.546875 20.046875 -52.515625 C 23.359375 -53.484375 26.8125 -53.96875 30.40625 -53.96875 Z M 30.40625 -53.96875 "/></g></g></g><g fill="#000000" fill-opacity="1"><g transform="translate(1108.409347, 202.11351)"><g><path d="M 78.046875 -3 L 78.046875 -61.421875 C 77.984375 -64.566406 77.253906 -66.78125 75.859375 -68.0625 C 74.460938 -69.351562 72.90625 -70.054688 71.1875 -70.171875 L 70.078125 -70.171875 C 68.253906 -70.109375 66.671875 -69.421875 65.328125 -68.109375 C 63.984375 -66.796875 63.3125 -64.453125 63.3125 -61.078125 L 63.3125 -3 C 63.3125 -2.144531 63.082031 -1.429688 62.625 -0.859375 C 62.164062 -0.285156 61.535156 0 60.734375 0 L 44.125 0 C 42.40625 0 41.546875 -1 41.546875 -3 L 41.546875 -60.828125 C 41.492188 -63.285156 41.050781 -65.179688 40.21875 -66.515625 C 39.394531 -67.859375 38.410156 -68.800781 37.265625 -69.34375 C 36.117188 -69.894531 35.003906 -70.171875 33.921875 -70.171875 L 33.328125 -70.171875 C 31.554688 -70.054688 30.023438 -69.3125 28.734375 -67.9375 C 27.453125 -66.5625 26.8125 -64.019531 26.8125 -60.3125 L 26.8125 -2.90625 C 26.8125 -2.164062 26.582031 -1.492188 26.125 -0.890625 C 25.664062 -0.296875 25.039062 0 24.25 0 L 7.625 0 C 5.96875 0 5.140625 -0.96875 5.140625 -2.90625 L 5.140625 -60.828125 C 5.304688 -66.597656 6.257812 -71.335938 8 -75.046875 C 9.75 -78.753906 12.019531 -81.648438 14.8125 -83.734375 C 17.613281 -85.828125 20.671875 -87.285156 23.984375 -88.109375 C 27.296875 -88.941406 30.582031 -89.359375 33.84375 -89.359375 L 34.4375 -89.359375 C 38.257812 -89.359375 41.726562 -88.644531 44.84375 -87.21875 C 47.957031 -85.789062 50.570312 -83.503906 52.6875 -80.359375 C 54.738281 -83.441406 57.304688 -85.710938 60.390625 -87.171875 C 63.484375 -88.628906 66.882812 -89.359375 70.59375 -89.359375 L 71.28125 -89.359375 C 80.476562 -89.359375 87.53125 -86.816406 92.4375 -81.734375 C 97.351562 -76.648438 99.8125 -69.476562 99.8125 -60.21875 L 99.8125 -3 C 99.8125 -2.144531 99.582031 -1.429688 99.125 -0.859375 C 98.664062 -0.285156 98.035156 0 97.234375 0 L 80.609375 0 C 78.898438 0 78.046875 -1 78.046875 -3 Z M 78.046875 -3 "/></g></g></g><g fill="#000000" fill-opacity="1"><g transform="translate(1213.261269, 202.11351)"><g><path d="M 33.328125 -70.765625 C 30.984375 -70.765625 29.066406 -69.992188 27.578125 -68.453125 C 26.097656 -66.910156 25.359375 -65.164062 25.359375 -63.21875 L 25.359375 -53.625 L 40.953125 -53.625 L 40.953125 -63.140625 C 40.953125 -65.140625 40.265625 -66.910156 38.890625 -68.453125 C 37.523438 -69.992188 35.671875 -70.765625 33.328125 -70.765625 Z M 60.484375 -26.90625 L 60.484375 -24.421875 C 60.484375 -19.617188 59.328125 -15.242188 57.015625 -11.296875 C 54.703125 -7.359375 51.457031 -4.21875 47.28125 -1.875 C 43.113281 0.457031 38.289062 1.625 32.8125 1.625 C 28.8125 1.625 25.039062 0.953125 21.5 -0.390625 C 17.957031 -1.734375 14.859375 -3.585938 12.203125 -5.953125 C 9.546875 -8.328125 7.460938 -11.097656 5.953125 -14.265625 C 4.441406 -17.429688 3.6875 -20.816406 3.6875 -24.421875 L 3.6875 -63.390625 C 3.6875 -66.992188 4.441406 -70.347656 5.953125 -73.453125 C 7.460938 -76.566406 9.546875 -79.320312 12.203125 -81.71875 C 14.859375 -84.125 17.957031 -86 21.5 -87.34375 C 25.039062 -88.6875 28.8125 -89.359375 32.8125 -89.359375 C 36.925781 -89.359375 40.679688 -88.6875 44.078125 -87.34375 C 47.472656 -86 50.410156 -84.125 52.890625 -81.71875 C 55.378906 -79.320312 57.296875 -76.566406 58.640625 -73.453125 C 59.984375 -70.347656 60.65625 -66.992188 60.65625 -63.390625 L 60.65625 -42.15625 C 60.65625 -41.175781 60.335938 -40.398438 59.703125 -39.828125 C 59.078125 -39.265625 58.28125 -38.984375 57.3125 -38.984375 L 25.359375 -38.984375 L 25.359375 -24.421875 C 25.359375 -22.535156 26.097656 -20.804688 27.578125 -19.234375 C 29.066406 -17.660156 30.984375 -16.875 33.328125 -16.875 C 35.785156 -16.875 37.671875 -17.6875 38.984375 -19.3125 C 40.296875 -20.945312 40.953125 -22.707031 40.953125 -24.59375 L 40.953125 -27.078125 C 40.953125 -27.585938 41.148438 -28.054688 41.546875 -28.484375 C 41.953125 -28.910156 42.550781 -29.125 43.34375 -29.125 L 58.25 -29.125 C 58.9375 -29.125 59.476562 -28.96875 59.875 -28.65625 C 60.28125 -28.34375 60.484375 -27.757812 60.484375 -26.90625 Z M 60.484375 -26.90625 "/></g></g></g><g fill="#000000" fill-opacity="1"><g transform="translate(1277.25178, 202.11351)"><g><path d="M 61.171875 0 L 44.640625 0 C 43.890625 0 43.269531 -0.253906 42.78125 -0.765625 C 42.300781 -1.285156 42.0625 -2 42.0625 -2.90625 L 42.0625 -62.96875 C 41.945312 -64.96875 41.234375 -66.691406 39.921875 -68.140625 C 38.609375 -69.597656 36.78125 -70.328125 34.4375 -70.328125 C 32.09375 -70.328125 30.25 -69.582031 28.90625 -68.09375 C 27.570312 -66.613281 26.847656 -64.875 26.734375 -62.875 L 26.734375 -3 C 26.734375 -1 25.929688 0 24.328125 0 L 7.625 0 C 6.882812 0 6.269531 -0.253906 5.78125 -0.765625 C 5.289062 -1.285156 5.046875 -2.03125 5.046875 -3 L 5.046875 -62.796875 C 5.046875 -66.273438 5.742188 -69.597656 7.140625 -72.765625 C 8.546875 -75.941406 10.519531 -78.769531 13.0625 -81.25 C 15.601562 -83.738281 18.628906 -85.710938 22.140625 -87.171875 C 25.660156 -88.628906 29.53125 -89.359375 33.75 -89.359375 C 40.144531 -89.359375 45.570312 -88.15625 50.03125 -85.75 C 54.488281 -83.351562 57.882812 -80.15625 60.21875 -76.15625 C 62.5625 -72.164062 63.734375 -67.738281 63.734375 -62.875 L 63.734375 -2.90625 C 63.734375 -2 63.488281 -1.285156 63 -0.765625 C 62.519531 -0.253906 61.910156 0 61.171875 0 Z M 61.171875 0 "/></g></g></g><g fill="#000000" fill-opacity="1"><g transform="translate(1346.125102, 202.11351)"><g><path d="M 37.4375 0 L 32.046875 0 C 28.734375 0 25.632812 -0.398438 22.75 -1.203125 C 19.863281 -2.003906 17.332031 -3.359375 15.15625 -5.265625 C 12.988281 -7.179688 11.289062 -9.796875 10.0625 -13.109375 C 8.832031 -16.421875 8.21875 -20.585938 8.21875 -25.609375 L 8.21875 -68.625 L 3.171875 -68.625 C 2.710938 -68.625 2.164062 -68.894531 1.53125 -69.4375 C 0.90625 -69.976562 0.59375 -70.765625 0.59375 -71.796875 L 0.59375 -84.46875 C 0.59375 -85.613281 0.894531 -86.457031 1.5 -87 C 2.101562 -87.539062 2.660156 -87.8125 3.171875 -87.8125 L 8.21875 -87.8125 L 8.21875 -100.921875 C 8.21875 -101.890625 8.390625 -102.644531 8.734375 -103.1875 C 9.078125 -103.726562 9.707031 -104.113281 10.625 -104.34375 L 26.640625 -109.0625 C 26.816406 -109.113281 27.078125 -109.140625 27.421875 -109.140625 C 29.128906 -109.140625 29.984375 -108.195312 29.984375 -106.3125 L 29.984375 -87.8125 L 38.640625 -87.8125 C 40.234375 -87.8125 41.03125 -86.753906 41.03125 -84.640625 L 41.03125 -71.796875 C 41.03125 -70.878906 40.785156 -70.117188 40.296875 -69.515625 C 39.816406 -68.921875 39.175781 -68.625 38.375 -68.625 L 29.984375 -68.625 L 29.984375 -26.90625 C 29.984375 -24.5 30.550781 -22.65625 31.6875 -21.375 C 32.832031 -20.09375 34.976562 -19.453125 38.125 -19.453125 L 39.578125 -19.453125 C 40.835938 -19.453125 41.582031 -19.078125 41.8125 -18.328125 C 42.039062 -17.585938 42.15625 -16.90625 42.15625 -16.28125 L 42.15625 -2.734375 C 42.15625 -2.171875 41.9375 -1.570312 41.5 -0.9375 C 41.070312 -0.3125 39.71875 0 37.4375 0 Z M 37.4375 0 "/></g></g></g><g fill="#000000" fill-opacity="1"><g transform="translate(1391.098353, 202.11351)"><g><path d="M 62.28125 -63.390625 L 62.28125 -24.421875 C 62.28125 -20.585938 61.519531 -17.070312 60 -13.875 C 58.488281 -10.675781 56.390625 -7.921875 53.703125 -5.609375 C 51.023438 -3.296875 47.898438 -1.507812 44.328125 -0.25 C 40.765625 1 36.953125 1.625 32.890625 1.625 C 28.835938 1.625 25.039062 1 21.5 -0.25 C 17.957031 -1.507812 14.84375 -3.296875 12.15625 -5.609375 C 9.476562 -7.921875 7.378906 -10.675781 5.859375 -13.875 C 4.347656 -17.070312 3.59375 -20.585938 3.59375 -24.421875 L 3.59375 -63.390625 C 3.59375 -66.992188 4.347656 -70.363281 5.859375 -73.5 C 7.378906 -76.644531 9.46875 -79.398438 12.125 -81.765625 C 14.78125 -84.140625 17.878906 -86 21.421875 -87.34375 C 24.960938 -88.6875 28.726562 -89.359375 32.71875 -89.359375 C 36.832031 -89.359375 40.675781 -88.726562 44.25 -87.46875 C 47.820312 -86.207031 50.960938 -84.421875 53.671875 -82.109375 C 56.378906 -79.796875 58.488281 -77.054688 60 -73.890625 C 61.519531 -70.722656 62.28125 -67.222656 62.28125 -63.390625 Z M 32.984375 -70.328125 C 30.640625 -70.328125 28.765625 -69.539062 27.359375 -67.96875 C 25.960938 -66.40625 25.265625 -64.679688 25.265625 -62.796875 L 25.265625 -25.015625 C 25.265625 -23.078125 25.976562 -21.320312 27.40625 -19.75 C 28.84375 -18.175781 30.703125 -17.390625 32.984375 -17.390625 C 35.328125 -17.390625 37.179688 -18.175781 38.546875 -19.75 C 39.921875 -21.320312 40.609375 -23.078125 40.609375 -25.015625 L 40.609375 -62.703125 C 40.609375 -64.648438 39.921875 -66.40625 38.546875 -67.96875 C 37.179688 -69.539062 35.328125 -70.328125 32.984375 -70.328125 Z M 32.984375 -70.328125 "/></g></g></g></svg>