<svg xmlns="http://www.w3.org/2000/svg" xmlns:xlink="http://www.w3.org/1999/xlink" width="1920" zoomAndPan="magnify" viewBox="0 0 1440 809.999993" height="1080" preserveAspectRatio="xMidYMid meet" version="1.0"><defs><g/><clipPath id="430d682962"><path d="M 345 355.144531 L 1095 355.144531 L 1095 367.144531 L 345 367.144531 Z M 345 355.144531 " clip-rule="nonzero"/></clipPath></defs><g clip-path="url(#430d682962)"><path fill="#ffffff" d="M 1094.554688 361.320312 C 1094.554688 364.730469 1091.789062 367.496094 1088.378906 367.496094 L 351.617188 367.496094 C 348.207031 367.496094 345.441406 364.730469 345.441406 361.320312 C 345.441406 357.910156 348.207031 355.144531 351.617188 355.144531 L 1088.375 355.144531 C 1091.789062 355.144531 1094.554688 357.910156 1094.554688 361.320312 Z M 1094.554688 361.320312 " fill-opacity="1" fill-rule="nonzero"/></g><g fill="#ffffff" fill-opacity="1"><g transform="translate(332.562918, 327.122332)"><g><path d="M 52.90625 -37.734375 L 111 -37.734375 C 112.25 -37.734375 113.316406 -37.285156 114.203125 -36.390625 C 115.085938 -35.503906 115.53125 -34.175781 115.53125 -32.40625 L 115.53125 -5.484375 C 115.53125 -3.597656 115.085938 -2.210938 114.203125 -1.328125 C 113.316406 -0.441406 112.25 0 111 0 L 16.59375 0 C 13.039062 0 11.265625 -1.984375 11.265625 -5.953125 L 11.265625 -210.5625 C 11.265625 -214.625 13.039062 -216.65625 16.59375 -216.65625 L 110.203125 -216.65625 C 113.128906 -216.65625 114.59375 -214.726562 114.59375 -210.875 L 114.59375 -184.25 C 114.59375 -180.5 113.128906 -178.625 110.203125 -178.625 L 52.90625 -178.625 L 52.90625 -128.375 L 98.625 -128.375 C 99.976562 -128.375 101.148438 -127.953125 102.140625 -127.109375 C 103.140625 -126.273438 103.640625 -124.867188 103.640625 -122.890625 L 103.640625 -96.125 C 103.640625 -94.238281 103.164062 -92.878906 102.21875 -92.046875 C 101.28125 -91.210938 100.082031 -90.796875 98.625 -90.796875 L 52.90625 -90.796875 Z M 52.90625 -37.734375 "/></g></g></g><g fill="#ffffff" fill-opacity="1"><g transform="translate(451.688126, 327.122332)"><g><path d="M 71.546875 -29.75 L 71.546875 -5.015625 C 71.546875 -3.960938 71.125 -2.863281 70.28125 -1.71875 C 69.445312 -0.570312 66.945312 0 62.78125 0 L 52.90625 0 C 46.957031 0 41.347656 -0.726562 36.078125 -2.1875 C 30.804688 -3.65625 26.160156 -6.132812 22.140625 -9.625 C 18.128906 -13.125 15 -17.898438 12.75 -23.953125 C 10.507812 -30.003906 9.390625 -37.625 9.390625 -46.8125 L 9.390625 -211.34375 C 9.390625 -214.882812 11.164062 -216.65625 14.71875 -216.65625 L 43.984375 -216.65625 C 47.429688 -216.65625 49.15625 -214.882812 49.15625 -211.34375 L 49.15625 -49.15625 C 49.15625 -44.769531 50.195312 -41.398438 52.28125 -39.046875 C 54.375 -36.703125 58.289062 -35.53125 64.03125 -35.53125 L 66.6875 -35.53125 C 69.09375 -35.53125 70.503906 -34.851562 70.921875 -33.5 C 71.335938 -32.144531 71.546875 -30.894531 71.546875 -29.75 Z M 71.546875 -29.75 "/></g></g></g><g fill="#ffffff" fill-opacity="1"><g transform="translate(527.608922, 327.122332)"><g><path d="M 60.890625 -129.3125 C 56.617188 -129.3125 53.125 -127.898438 50.40625 -125.078125 C 47.695312 -122.265625 46.34375 -119.082031 46.34375 -115.53125 L 46.34375 -98 L 74.828125 -98 L 74.828125 -115.375 C 74.828125 -119.03125 73.570312 -122.265625 71.0625 -125.078125 C 68.5625 -127.898438 65.171875 -129.3125 60.890625 -129.3125 Z M 110.515625 -49.15625 L 110.515625 -44.609375 C 110.515625 -35.847656 108.398438 -27.863281 104.171875 -20.65625 C 99.953125 -13.457031 94.03125 -7.71875 86.40625 -3.4375 C 78.789062 0.832031 69.972656 2.96875 59.953125 2.96875 C 52.648438 2.96875 45.765625 1.742188 39.296875 -0.703125 C 32.828125 -3.160156 27.164062 -6.550781 22.3125 -10.875 C 17.457031 -15.207031 13.644531 -20.269531 10.875 -26.0625 C 8.113281 -31.851562 6.734375 -38.035156 6.734375 -44.609375 L 6.734375 -115.84375 C 6.734375 -122.414062 8.113281 -128.546875 10.875 -134.234375 C 13.644531 -139.921875 17.457031 -144.957031 22.3125 -149.34375 C 27.164062 -153.726562 32.828125 -157.144531 39.296875 -159.59375 C 45.765625 -162.050781 52.648438 -163.28125 59.953125 -163.28125 C 67.472656 -163.28125 74.335938 -162.050781 80.546875 -159.59375 C 86.753906 -157.144531 92.128906 -153.726562 96.671875 -149.34375 C 101.210938 -144.957031 104.707031 -139.921875 107.15625 -134.234375 C 109.601562 -128.546875 110.828125 -122.414062 110.828125 -115.84375 L 110.828125 -77.015625 C 110.828125 -75.242188 110.253906 -73.835938 109.109375 -72.796875 C 107.960938 -71.753906 106.503906 -71.234375 104.734375 -71.234375 L 46.34375 -71.234375 L 46.34375 -44.609375 C 46.34375 -41.171875 47.695312 -38.015625 50.40625 -35.140625 C 53.125 -32.273438 56.617188 -30.84375 60.890625 -30.84375 C 65.378906 -30.84375 68.820312 -32.328125 71.21875 -35.296875 C 73.625 -38.273438 74.828125 -41.484375 74.828125 -44.921875 L 74.828125 -49.46875 C 74.828125 -50.40625 75.191406 -51.265625 75.921875 -52.046875 C 76.648438 -52.828125 77.75 -53.21875 79.21875 -53.21875 L 106.453125 -53.21875 C 107.703125 -53.21875 108.691406 -52.929688 109.421875 -52.359375 C 110.148438 -51.785156 110.515625 -50.71875 110.515625 -49.15625 Z M 65.4375 -215.40625 L 88.921875 -215.40625 C 90.898438 -215.40625 92.226562 -214.597656 92.90625 -212.984375 C 93.582031 -211.367188 93.398438 -209.671875 92.359375 -207.890625 L 77.640625 -182.21875 C 76.285156 -179.925781 75.0625 -178.46875 73.96875 -177.84375 C 72.875 -177.21875 71.488281 -176.90625 69.8125 -176.90625 L 51.03125 -176.90625 C 49.78125 -176.90625 48.6875 -177.554688 47.75 -178.859375 C 46.8125 -180.160156 46.757812 -181.957031 47.59375 -184.25 L 58.859375 -209.9375 C 59.691406 -212.019531 60.523438 -213.453125 61.359375 -214.234375 C 62.203125 -215.015625 63.5625 -215.40625 65.4375 -215.40625 Z M 65.4375 -215.40625 "/></g></g></g><g fill="#ffffff" fill-opacity="1"><g transform="translate(644.542602, 327.122332)"><g><path d="M 68.40625 0 L 58.546875 0 C 52.492188 0 46.832031 -0.726562 41.5625 -2.1875 C 36.289062 -3.65625 31.671875 -6.132812 27.703125 -9.625 C 23.742188 -13.125 20.640625 -17.898438 18.390625 -23.953125 C 16.148438 -30.003906 15.03125 -37.625 15.03125 -46.8125 L 15.03125 -125.390625 L 5.796875 -125.390625 C 4.960938 -125.390625 3.96875 -125.882812 2.8125 -126.875 C 1.664062 -127.875 1.09375 -129.3125 1.09375 -131.1875 L 1.09375 -154.359375 C 1.09375 -156.441406 1.640625 -157.976562 2.734375 -158.96875 C 3.835938 -159.96875 4.859375 -160.46875 5.796875 -160.46875 L 15.03125 -160.46875 L 15.03125 -184.40625 C 15.03125 -186.1875 15.34375 -187.570312 15.96875 -188.5625 C 16.59375 -189.550781 17.738281 -190.253906 19.40625 -190.671875 L 48.6875 -199.28125 C 49 -199.382812 49.46875 -199.4375 50.09375 -199.4375 C 53.226562 -199.4375 54.796875 -197.71875 54.796875 -194.28125 L 54.796875 -160.46875 L 70.609375 -160.46875 C 73.523438 -160.46875 74.984375 -158.535156 74.984375 -154.671875 L 74.984375 -131.1875 C 74.984375 -129.519531 74.539062 -128.132812 73.65625 -127.03125 C 72.769531 -125.9375 71.597656 -125.390625 70.140625 -125.390625 L 54.796875 -125.390625 L 54.796875 -49.15625 C 54.796875 -44.769531 55.835938 -41.398438 57.921875 -39.046875 C 60.003906 -36.703125 63.914062 -35.53125 69.65625 -35.53125 L 72.328125 -35.53125 C 74.617188 -35.53125 75.972656 -34.851562 76.390625 -33.5 C 76.804688 -32.144531 77.015625 -30.894531 77.015625 -29.75 L 77.015625 -5.015625 C 77.015625 -3.960938 76.625 -2.863281 75.84375 -1.71875 C 75.0625 -0.570312 72.582031 0 68.40625 0 Z M 68.40625 0 "/></g></g></g><g fill="#ffffff" fill-opacity="1"><g transform="translate(726.724908, 327.122332)"><g><path d="M 84.0625 -155.921875 L 84.0625 -133.375 C 84.0625 -131.289062 83.304688 -129.78125 81.796875 -128.84375 C 80.285156 -127.90625 78.585938 -127.4375 76.703125 -127.4375 L 68.71875 -127.4375 C 62.25 -127.4375 57.03125 -125.269531 53.0625 -120.9375 C 49.101562 -116.601562 47.125 -110.679688 47.125 -103.171875 L 47.125 -7.359375 C 47.125 -4.640625 46.3125 -2.734375 44.6875 -1.640625 C 43.070312 -0.546875 41.535156 0 40.078125 0 L 12.203125 0 C 10.847656 0 9.726562 -0.46875 8.84375 -1.40625 C 7.957031 -2.34375 7.515625 -3.703125 7.515625 -5.484375 L 7.515625 -108.484375 C 7.515625 -118.398438 9.15625 -126.828125 12.4375 -133.765625 C 15.726562 -140.710938 20.085938 -146.347656 25.515625 -150.671875 C 30.941406 -155.003906 36.890625 -158.1875 43.359375 -160.21875 C 49.828125 -162.257812 56.195312 -163.28125 62.46875 -163.28125 C 66.007812 -163.28125 69.160156 -163.203125 71.921875 -163.046875 C 74.691406 -162.890625 77.226562 -162.550781 79.53125 -162.03125 C 82.550781 -161.195312 84.0625 -159.160156 84.0625 -155.921875 Z M 84.0625 -155.921875 "/></g></g></g><g fill="#ffffff" fill-opacity="1"><g transform="translate(812.351043, 327.122332)"><g><path d="M 9.234375 -5.171875 L 9.234375 -155.453125 C 9.234375 -156.910156 9.78125 -158.082031 10.875 -158.96875 C 11.976562 -159.863281 13.207031 -160.3125 14.5625 -160.3125 L 43.203125 -160.3125 C 44.773438 -160.3125 46.160156 -159.835938 47.359375 -158.890625 C 48.554688 -157.953125 49.15625 -156.804688 49.15625 -155.453125 L 49.15625 -5.171875 C 49.15625 -3.492188 48.609375 -2.210938 47.515625 -1.328125 C 46.421875 -0.441406 44.984375 0 43.203125 0 L 14.5625 0 C 11.007812 0 9.234375 -1.722656 9.234375 -5.171875 Z M 49.9375 -201.484375 L 49.9375 -179.875 C 49.9375 -176.945312 49.234375 -174.9375 47.828125 -173.84375 C 46.421875 -172.75 44.410156 -172.203125 41.796875 -172.203125 L 16.59375 -172.203125 C 13.882812 -172.203125 11.691406 -172.722656 10.015625 -173.765625 C 8.347656 -174.804688 7.515625 -176.789062 7.515625 -179.71875 L 7.515625 -201.640625 C 7.515625 -204.035156 8.191406 -206.015625 9.546875 -207.578125 C 10.898438 -209.148438 13.195312 -209.9375 16.4375 -209.9375 L 41.796875 -209.9375 C 44.828125 -209.9375 46.941406 -209.203125 48.140625 -207.734375 C 49.335938 -206.273438 49.9375 -204.191406 49.9375 -201.484375 Z M 49.9375 -201.484375 "/></g></g></g><g fill="#ffffff" fill-opacity="1"><g transform="translate(870.739615, 327.122332)"><g><path d="M 79.53125 -59.171875 L 107.078125 -59.171875 C 108.742188 -59.171875 109.890625 -58.804688 110.515625 -58.078125 C 111.148438 -57.347656 111.46875 -56.097656 111.46875 -54.328125 L 111.46875 -44.609375 C 111.46875 -38.035156 110.1875 -31.851562 107.625 -26.0625 C 105.070312 -20.269531 101.5 -15.207031 96.90625 -10.875 C 92.3125 -6.550781 86.859375 -3.160156 80.546875 -0.703125 C 74.234375 1.742188 67.316406 2.96875 59.796875 2.96875 C 52.492188 2.96875 45.609375 1.820312 39.140625 -0.46875 C 32.671875 -2.757812 27.007812 -6.019531 22.15625 -10.25 C 17.300781 -14.476562 13.488281 -19.515625 10.71875 -25.359375 C 7.957031 -31.203125 6.578125 -37.617188 6.578125 -44.609375 L 6.578125 -115.84375 C 6.578125 -122.414062 7.957031 -128.546875 10.71875 -134.234375 C 13.488281 -139.921875 17.300781 -144.957031 22.15625 -149.34375 C 27.007812 -153.726562 32.671875 -157.144531 39.140625 -159.59375 C 45.609375 -162.050781 52.492188 -163.28125 59.796875 -163.28125 C 67.316406 -163.28125 74.234375 -162.050781 80.546875 -159.59375 C 86.859375 -157.144531 92.3125 -153.726562 96.90625 -149.34375 C 101.5 -144.957031 105.070312 -139.921875 107.625 -134.234375 C 110.1875 -128.546875 111.46875 -122.414062 111.46875 -115.84375 L 111.46875 -103.484375 C 111.46875 -101.492188 111.125 -100.132812 110.4375 -99.40625 C 109.757812 -98.675781 108.640625 -98.3125 107.078125 -98.3125 L 80.78125 -98.3125 C 78.476562 -98.3125 76.910156 -98.675781 76.078125 -99.40625 C 75.242188 -100.132812 74.828125 -101.546875 74.828125 -103.640625 L 74.828125 -114.4375 C 74.828125 -117.988281 73.597656 -121.222656 71.140625 -124.140625 C 68.691406 -127.066406 65.222656 -128.53125 60.734375 -128.53125 C 56.566406 -128.53125 53.097656 -127.09375 50.328125 -124.21875 C 47.566406 -121.351562 46.1875 -118.195312 46.1875 -114.75 L 46.1875 -45.71875 C 46.1875 -42.164062 47.566406 -38.953125 50.328125 -36.078125 C 53.097656 -33.210938 56.566406 -31.78125 60.734375 -31.78125 C 65.222656 -31.78125 68.691406 -33.265625 71.140625 -36.234375 C 73.597656 -39.210938 74.828125 -42.425781 74.828125 -45.875 L 74.828125 -53.703125 C 74.828125 -55.785156 75.164062 -57.21875 75.84375 -58 C 76.519531 -58.78125 77.75 -59.171875 79.53125 -59.171875 Z M 79.53125 -59.171875 "/></g></g></g><g fill="#ffffff" fill-opacity="1"><g transform="translate(987.203683, 327.122332)"><g><path d="M 74.046875 -46.5 L 74.046875 -70.296875 L 66.6875 -70.296875 C 61.050781 -70.296875 56.640625 -69.40625 53.453125 -67.625 C 50.273438 -65.851562 48.054688 -63.503906 46.796875 -60.578125 C 45.546875 -57.660156 44.921875 -54.476562 44.921875 -51.03125 L 44.921875 -48.6875 C 44.921875 -44.71875 45.703125 -41.476562 47.265625 -38.96875 C 48.835938 -36.46875 50.796875 -34.644531 53.140625 -33.5 C 55.492188 -32.351562 57.816406 -31.78125 60.109375 -31.78125 C 63.453125 -31.78125 66.609375 -32.953125 69.578125 -35.296875 C 72.554688 -37.648438 74.046875 -41.382812 74.046875 -46.5 Z M 55.578125 -98.625 L 74.046875 -98.46875 L 74.046875 -109.578125 C 74.046875 -112.816406 73.367188 -116.078125 72.015625 -119.359375 C 70.660156 -122.648438 68.546875 -125.414062 65.671875 -127.65625 C 62.796875 -129.90625 59.015625 -131.03125 54.328125 -131.03125 C 47.953125 -131.03125 42.570312 -130.164062 38.1875 -128.4375 C 33.8125 -126.71875 30.160156 -124.816406 27.234375 -122.734375 C 26.503906 -122.316406 25.75 -121.925781 24.96875 -121.5625 C 24.1875 -121.195312 23.429688 -121.015625 22.703125 -121.015625 C 21.453125 -121.015625 20.457031 -121.691406 19.71875 -123.046875 L 11.890625 -140.421875 C 11.160156 -141.878906 10.875 -143.390625 11.03125 -144.953125 C 11.1875 -146.523438 12.570312 -148.09375 15.1875 -149.65625 C 19.050781 -152.0625 23.09375 -154.28125 27.3125 -156.3125 C 31.539062 -158.34375 36.34375 -160.007812 41.71875 -161.3125 C 47.09375 -162.625 53.429688 -163.28125 60.734375 -163.28125 C 67.210938 -163.28125 73.582031 -162.207031 79.84375 -160.0625 C 86.101562 -157.925781 91.765625 -154.742188 96.828125 -150.515625 C 101.890625 -146.296875 105.929688 -141.078125 108.953125 -134.859375 C 111.984375 -128.648438 113.5 -121.476562 113.5 -113.34375 L 113.5 -45.078125 C 113.5 -37.253906 112.191406 -30.578125 109.578125 -25.046875 C 106.972656 -19.515625 103.582031 -14.921875 99.40625 -11.265625 C 95.226562 -7.617188 90.710938 -4.75 85.859375 -2.65625 C 81.015625 -0.570312 76.269531 0.882812 71.625 1.71875 C 66.976562 2.550781 62.984375 2.96875 59.640625 2.96875 C 53.484375 2.96875 47.222656 2.003906 40.859375 0.078125 C 34.492188 -1.847656 28.625 -4.847656 23.25 -8.921875 C 17.875 -12.992188 13.539062 -18.265625 10.25 -24.734375 C 6.96875 -31.203125 5.328125 -38.976562 5.328125 -48.0625 L 5.328125 -51.5 C 5.328125 -59.851562 6.679688 -67.003906 9.390625 -72.953125 C 12.109375 -78.898438 15.8125 -83.773438 20.5 -87.578125 C 25.195312 -91.390625 30.570312 -94.179688 36.625 -95.953125 C 42.6875 -97.734375 49.003906 -98.625 55.578125 -98.625 Z M 55.578125 -98.625 "/></g></g></g><g fill="#ffffff" fill-opacity="1"><g transform="translate(325.255771, 703.269894)"><g><path d="M 77.53125 -308.5 L 77.53125 -8.71875 C 77.53125 -2.90625 75.003906 0 69.953125 0 L 24.078125 0 C 19.035156 0 16.515625 -2.90625 16.515625 -8.71875 L 16.515625 -308.5 C 16.515625 -314.457031 19.035156 -317.4375 24.078125 -317.4375 L 69.953125 -317.4375 C 75.003906 -317.4375 77.53125 -314.457031 77.53125 -308.5 Z M 77.53125 -308.5 "/></g></g></g><g fill="#ffffff" fill-opacity="1"><g transform="translate(419.524439, 703.269894)"><g><path d="M 126.84375 -196.5625 L 126.84375 -234.640625 C 126.84375 -242.890625 124.429688 -249.460938 119.609375 -254.359375 C 114.796875 -259.253906 108.410156 -261.703125 100.453125 -261.703125 L 77.53125 -261.703125 L 77.53125 -170.640625 L 98.859375 -170.640625 C 108.023438 -170.640625 114.976562 -173.007812 119.71875 -177.75 C 124.46875 -182.488281 126.84375 -188.757812 126.84375 -196.5625 Z M 177.75 -0.234375 L 135.546875 -0.234375 C 132.953125 -0.234375 130.546875 -1.109375 128.328125 -2.859375 C 126.109375 -4.617188 125 -7.179688 125 -10.546875 L 125 -58.484375 C 125 -80.660156 121.023438 -96.753906 113.078125 -106.765625 C 105.128906 -116.785156 93.28125 -122.328125 77.53125 -123.390625 L 77.53125 -8.484375 C 77.53125 -2.828125 75.003906 0 69.953125 0 L 24.078125 0 C 19.035156 0 16.515625 -2.828125 16.515625 -8.484375 L 16.515625 -308.5 C 16.515625 -314.457031 19.113281 -317.4375 24.3125 -317.4375 L 105.28125 -317.4375 C 117.050781 -317.4375 127.984375 -315.296875 138.078125 -311.015625 C 148.171875 -306.734375 156.960938 -300.769531 164.453125 -293.125 C 171.941406 -285.476562 177.75 -276.6875 181.875 -266.75 C 186.007812 -256.8125 188.078125 -246.109375 188.078125 -234.640625 L 188.078125 -201.84375 C 188.078125 -188.226562 184.941406 -176.640625 178.671875 -167.078125 C 172.398438 -157.523438 164.601562 -149.613281 155.28125 -143.34375 C 165.675781 -134.632812 173.394531 -122.820312 178.4375 -107.90625 C 183.488281 -93 186.015625 -74.078125 186.015625 -51.140625 L 186.015625 -9.859375 C 186.015625 -7.867188 185.398438 -5.765625 184.171875 -3.546875 C 182.953125 -1.335938 180.8125 -0.234375 177.75 -0.234375 Z M 177.75 -0.234375 "/></g></g><g transform="translate(619.988721, 703.269894)"><g><path d="M 75.6875 -239.453125 L 75.6875 -129.125 L 124.546875 -129.125 L 124.546875 -239.453125 C 124.546875 -246.640625 122.40625 -253.023438 118.125 -258.609375 C 113.84375 -264.191406 107.878906 -266.984375 100.234375 -266.984375 C 92.429688 -266.984375 86.390625 -264.191406 82.109375 -258.609375 C 77.828125 -253.023438 75.6875 -246.640625 75.6875 -239.453125 Z M 185.78125 -242.890625 L 185.78125 -9.171875 C 185.78125 -6.878906 185.207031 -4.773438 184.0625 -2.859375 C 182.914062 -0.953125 181.039062 0 178.4375 0 L 131.890625 0 C 129.585938 0 127.785156 -0.914062 126.484375 -2.75 C 125.191406 -4.582031 124.546875 -6.722656 124.546875 -9.171875 L 124.546875 -75.6875 L 75.6875 -75.6875 L 75.6875 -8.9375 C 75.6875 -6.5 75.226562 -4.398438 74.3125 -2.640625 C 73.394531 -0.878906 71.5625 0 68.8125 0 L 20.40625 0 C 18.726562 0 17.316406 -0.878906 16.171875 -2.640625 C 15.023438 -4.398438 14.453125 -6.5 14.453125 -8.9375 L 14.453125 -242.890625 C 14.453125 -253.898438 16.742188 -264.222656 21.328125 -273.859375 C 25.921875 -283.492188 32.148438 -291.941406 40.015625 -299.203125 C 47.890625 -306.460938 56.988281 -312.15625 67.3125 -316.28125 C 77.632812 -320.414062 88.53125 -322.484375 100 -322.484375 C 111.46875 -322.484375 122.363281 -320.414062 132.6875 -316.28125 C 143.007812 -312.15625 152.144531 -306.460938 160.09375 -299.203125 C 168.039062 -291.941406 174.304688 -283.492188 178.890625 -273.859375 C 183.484375 -264.222656 185.78125 -253.898438 185.78125 -242.890625 Z M 185.78125 -242.890625 "/></g></g></g><g fill="#ffffff" fill-opacity="1"><g transform="translate(820.223595, 703.269894)"><g><path d="M 178.4375 0 L 131.890625 0 C 129.585938 0 127.785156 -0.914062 126.484375 -2.75 C 125.191406 -4.582031 124.546875 -6.722656 124.546875 -9.171875 L 124.546875 -239.453125 C 124.546875 -246.640625 122.40625 -253.023438 118.125 -258.609375 C 113.84375 -264.191406 107.878906 -266.984375 100.234375 -266.984375 C 92.429688 -266.984375 86.390625 -264.191406 82.109375 -258.609375 C 77.828125 -253.023438 75.6875 -246.640625 75.6875 -239.453125 L 75.6875 -8.9375 C 75.6875 -6.5 75.1875 -4.398438 74.1875 -2.640625 C 73.195312 -0.878906 71.40625 0 68.8125 0 L 20.40625 0 C 18.726562 0 17.316406 -0.878906 16.171875 -2.640625 C 15.023438 -4.398438 14.453125 -6.5 14.453125 -8.9375 L 14.453125 -242.890625 C 14.453125 -253.898438 16.742188 -264.222656 21.328125 -273.859375 C 25.921875 -283.492188 32.148438 -291.941406 40.015625 -299.203125 C 47.890625 -306.460938 56.988281 -312.15625 67.3125 -316.28125 C 77.632812 -320.414062 88.53125 -322.484375 100 -322.484375 C 111.46875 -322.484375 122.363281 -320.414062 132.6875 -316.28125 C 143.007812 -312.15625 152.144531 -306.460938 160.09375 -299.203125 C 168.039062 -291.941406 174.304688 -283.492188 178.890625 -273.859375 C 183.484375 -264.222656 185.78125 -253.898438 185.78125 -242.890625 L 185.78125 -9.171875 C 185.78125 -6.878906 185.207031 -4.773438 184.0625 -2.859375 C 182.914062 -0.953125 181.039062 0 178.4375 0 Z M 178.4375 0 "/></g></g><g transform="translate(1020.458514, 703.269894)"><g><path d="M 77.53125 -308.5 L 77.53125 -8.71875 C 77.53125 -2.90625 75.003906 0 69.953125 0 L 24.078125 0 C 19.035156 0 16.515625 -2.90625 16.515625 -8.71875 L 16.515625 -308.5 C 16.515625 -314.457031 19.035156 -317.4375 24.078125 -317.4375 L 69.953125 -317.4375 C 75.003906 -317.4375 77.53125 -314.457031 77.53125 -308.5 Z M 77.53125 -308.5 "/></g></g></g></svg>