<svg xmlns="http://www.w3.org/2000/svg" xmlns:xlink="http://www.w3.org/1999/xlink" width="500" zoomAndPan="magnify" viewBox="0 0 375 374.999991" height="500" preserveAspectRatio="xMidYMid meet" version="1.0"><defs><clipPath id="d793e7d03e"><path d="M 102 92 L 221 92 L 221 250 L 102 250 Z M 102 92 " clip-rule="nonzero"/></clipPath><clipPath id="ccec1af943"><path d="M 167.589844 92.097656 L 220.832031 129.820312 L 135.84375 249.765625 L 82.605469 212.042969 Z M 167.589844 92.097656 " clip-rule="nonzero"/></clipPath><clipPath id="3e43f99c9d"><path d="M 54.742188 4.628906 L 321.742188 5.242188 L 320.925781 359.988281 L 53.929688 359.375 Z M 54.742188 4.628906 " clip-rule="nonzero"/></clipPath></defs><path fill="#ffffff" d="M 210.921875 77.527344 C 210.550781 77.925781 210.175781 78.25 210.097656 78.25 C 210.015625 78.25 209.984375 78.308594 210.027344 78.375 C 210.070312 78.445312 209.976562 78.617188 209.816406 78.761719 C 209.660156 78.902344 209.53125 79.09375 209.527344 79.179688 C 209.527344 79.265625 209.132812 79.828125 208.65625 80.425781 C 208.175781 81.023438 207.605469 81.773438 207.390625 82.09375 C 207.179688 82.410156 206.789062 82.886719 206.527344 83.148438 C 206.265625 83.414062 206.050781 83.722656 206.050781 83.839844 C 206.050781 83.953125 205.96875 84.046875 205.863281 84.046875 C 205.761719 84.046875 205.515625 84.308594 205.320312 84.625 C 205.125 84.941406 204.917969 85.203125 204.859375 85.203125 C 204.800781 85.207031 204.648438 85.414062 204.519531 85.667969 C 204.386719 85.917969 204.132812 86.285156 203.949219 86.484375 C 203.765625 86.679688 203.527344 87.007812 203.421875 87.207031 C 203.3125 87.410156 203.0625 87.746094 202.863281 87.957031 C 202.664062 88.167969 202.371094 88.527344 202.210938 88.757812 C 201.941406 89.144531 200.765625 90.746094 200.507812 91.078125 C 200.445312 91.15625 200.144531 91.613281 199.835938 92.09375 C 199.53125 92.570312 199.109375 93.160156 198.898438 93.398438 C 198.6875 93.636719 198.515625 93.882812 198.515625 93.945312 C 198.515625 94.066406 198.453125 94.152344 197.859375 94.816406 C 197.664062 95.042969 197.5 95.304688 197.5 95.40625 C 197.5 95.507812 197.386719 95.714844 197.246094 95.871094 C 197.105469 96.023438 196.867188 96.347656 196.71875 96.585938 C 196.402344 97.085938 196.304688 97.207031 195.445312 98.136719 C 194.582031 99.074219 194.167969 99.640625 194.167969 99.878906 C 194.167969 99.992188 193.964844 100.230469 193.71875 100.414062 C 193.476562 100.59375 193.3125 100.78125 193.355469 100.824219 C 193.402344 100.871094 193.242188 101.246094 193.003906 101.664062 C 192.765625 102.078125 192.574219 102.527344 192.574219 102.65625 C 192.574219 102.953125 193.582031 103.40625 195.617188 104.023438 L 198.152344 104.796875 C 198.710938 104.964844 199.527344 105.222656 199.964844 105.371094 C 200.402344 105.515625 201.347656 105.796875 202.066406 105.992188 C 202.785156 106.191406 203.632812 106.429688 203.949219 106.523438 C 205.910156 107.101562 208.027344 107.753906 209.097656 108.105469 C 209.9375 108.378906 210.785156 108.644531 211.632812 108.902344 C 212.351562 109.117188 213.199219 109.382812 213.515625 109.488281 C 214.078125 109.679688 216.949219 110.535156 218.339844 110.929688 C 219.90625 111.375 221.523438 111.875 222.070312 112.082031 C 223.226562 112.519531 223.257812 112.496094 225.691406 109.265625 C 226.25 108.523438 227.128906 107.378906 227.648438 106.71875 C 228.511719 105.625 229.828125 103.875 230.183594 103.355469 C 230.265625 103.238281 230.460938 102.996094 230.621094 102.816406 C 230.78125 102.636719 231.136719 102.179688 231.417969 101.804688 C 231.695312 101.429688 231.988281 101.046875 232.070312 100.953125 C 232.148438 100.863281 232.4375 100.460938 232.710938 100.0625 C 232.984375 99.664062 233.550781 98.941406 233.972656 98.453125 C 234.394531 97.964844 234.699219 97.527344 234.648438 97.476562 C 234.597656 97.425781 234.625 97.382812 234.703125 97.382812 C 234.785156 97.382812 234.921875 97.222656 235.011719 97.023438 C 235.101562 96.828125 235.457031 96.308594 235.796875 95.871094 C 236.136719 95.433594 237.101562 94.15625 237.941406 93.03125 C 238.777344 91.910156 239.65625 90.742188 239.898438 90.4375 C 240.136719 90.136719 240.8125 89.226562 241.402344 88.421875 C 241.992188 87.613281 242.59375 86.914062 242.742188 86.867188 C 243.058594 86.769531 243.117188 86.054688 242.832031 85.820312 C 242.671875 85.691406 239.859375 84.957031 238.519531 84.695312 C 238.242188 84.640625 237.066406 84.304688 235.910156 83.945312 C 234.753906 83.589844 232.601562 82.945312 231.128906 82.519531 C 229.652344 82.09375 227.761719 81.542969 226.925781 81.296875 C 226.085938 81.046875 224.425781 80.5625 223.226562 80.21875 C 222.03125 79.875 220.269531 79.359375 219.316406 79.074219 C 218.359375 78.789062 217.019531 78.394531 216.34375 78.191406 C 215.664062 77.992188 214.472656 77.597656 213.691406 77.316406 C 212.910156 77.03125 212.121094 76.800781 211.933594 76.800781 C 211.71875 76.800781 211.355469 77.0625 210.921875 77.527344 M 180.78125 118.007812 C 180.53125 118.269531 179.769531 119.253906 179.09375 120.191406 C 178.414062 121.132812 177.699219 122.121094 177.5 122.390625 C 177.300781 122.664062 176.933594 123.164062 176.6875 123.503906 C 176.167969 124.226562 175.242188 125.492188 173.15625 128.328125 C 172.332031 129.445312 171.472656 130.617188 171.238281 130.9375 C 171.007812 131.257812 170.28125 132.242188 169.628906 133.128906 C 167.214844 136.40625 164.804688 139.683594 162.398438 142.96875 C 161.25 144.542969 160.09375 146.113281 158.933594 147.679688 C 156.714844 150.675781 154.847656 153.207031 153.519531 155.023438 C 152.746094 156.078125 151.972656 157.132812 151.191406 158.1875 C 150.492188 159.128906 149.796875 160.070312 149.105469 161.011719 C 148.609375 161.691406 147.257812 163.515625 146.101562 165.070312 C 144.882812 166.714844 143.667969 168.359375 142.453125 170.003906 C 141.328125 171.523438 140.203125 173.046875 139.078125 174.566406 C 137.96875 176.0625 136.859375 177.5625 135.753906 179.058594 C 134.929688 180.175781 133.382812 182.261719 132.316406 183.695312 C 127.910156 189.625 126.199219 191.941406 125.027344 193.546875 C 124.351562 194.476562 123.4375 195.707031 122.996094 196.28125 C 122.554688 196.855469 121.742188 197.941406 121.191406 198.699219 C 119.265625 201.339844 115.09375 206.929688 110.621094 212.871094 C 106.425781 218.441406 103.863281 221.96875 103.871094 222.167969 C 103.871094 222.214844 103.921875 222.332031 103.984375 222.429688 C 104.113281 222.632812 108.019531 224.058594 109.664062 224.503906 C 110.601562 224.757812 115.765625 226.351562 123.578125 228.800781 C 124.734375 229.164062 126.855469 229.847656 128.289062 230.324219 C 131.121094 231.261719 132.046875 231.441406 132.667969 231.183594 C 133.117188 231 133.921875 230.035156 136.445312 226.671875 C 138.234375 224.289062 140.539062 221.246094 144.269531 216.355469 C 145.523438 214.707031 147.042969 212.71875 147.636719 211.9375 C 148.503906 210.804688 149.367188 209.679688 150.238281 208.554688 C 151.074219 207.480469 152.570312 205.523438 153.5625 204.207031 C 155.847656 201.183594 156.789062 199.957031 158.589844 197.640625 C 159.382812 196.621094 160.164062 195.609375 160.324219 195.394531 C 160.480469 195.175781 161.363281 194.023438 162.28125 192.828125 C 163.195312 191.632812 164.8125 189.515625 165.871094 188.117188 C 166.929688 186.722656 168.5625 184.582031 169.496094 183.359375 C 170.429688 182.136719 171.289062 180.996094 171.40625 180.824219 C 171.523438 180.648438 172.082031 179.921875 172.648438 179.203125 C 173.859375 177.664062 176.160156 174.648438 178.609375 171.398438 C 179.578125 170.109375 180.527344 168.863281 180.722656 168.625 C 180.917969 168.382812 181.597656 167.503906 182.238281 166.667969 C 182.875 165.828125 183.894531 164.492188 184.503906 163.695312 C 185.117188 162.898438 186.679688 160.84375 187.980469 159.128906 C 192.1875 153.585938 193.191406 152.269531 194.273438 150.867188 C 194.859375 150.109375 195.941406 148.683594 196.671875 147.695312 C 197.40625 146.707031 198.273438 145.566406 198.597656 145.160156 C 199.195312 144.410156 202.117188 140.566406 203.871094 138.21875 C 205.707031 135.769531 207.589844 133.328125 209.386719 131.085938 C 211.601562 128.320312 211.996094 127.734375 211.996094 127.214844 C 211.996094 126.527344 211.496094 126.332031 204.457031 124.273438 C 200.699219 123.171875 199.046875 122.675781 193.371094 120.9375 C 191.617188 120.402344 189.789062 119.84375 189.3125 119.699219 C 188.832031 119.554688 187.269531 119.066406 185.832031 118.617188 C 181.625 117.292969 181.480469 117.277344 180.78125 118.007812 M 228.300781 131.996094 C 227.839844 132.285156 226.988281 133.207031 225.34375 135.214844 C 223.648438 137.273438 223.589844 137.351562 223.589844 137.492188 C 223.589844 137.570312 223.453125 137.757812 223.28125 137.910156 C 223.113281 138.0625 222.609375 138.675781 222.160156 139.273438 C 221.714844 139.871094 221.296875 140.382812 221.238281 140.40625 C 221.175781 140.433594 221.125 140.53125 221.125 140.625 C 221.125 140.71875 220.867188 141.054688 220.550781 141.375 C 220.238281 141.691406 219.976562 142.035156 219.972656 142.132812 C 219.96875 142.234375 219.90625 142.316406 219.832031 142.316406 C 219.757812 142.316406 219.175781 143.054688 218.539062 143.960938 C 217.902344 144.863281 217.179688 145.804688 216.933594 146.050781 C 216.6875 146.296875 216.488281 146.535156 216.488281 146.578125 C 216.488281 146.660156 216.359375 146.816406 215.546875 147.75 C 215.335938 147.992188 215.0625 148.378906 214.9375 148.617188 C 214.8125 148.851562 214.554688 149.167969 214.367188 149.316406 C 214.175781 149.464844 214.050781 149.636719 214.089844 149.699219 C 214.128906 149.761719 214 149.960938 213.800781 150.148438 C 213.605469 150.332031 213.445312 150.542969 213.445312 150.621094 C 213.445312 150.695312 213.273438 150.960938 213.070312 151.210938 C 212.863281 151.460938 212.316406 152.171875 211.851562 152.792969 C 211.390625 153.414062 210.746094 154.230469 210.421875 154.605469 C 209.707031 155.429688 209.503906 155.679688 209.3125 155.96875 C 208.910156 156.585938 208.566406 157.078125 208.222656 157.535156 C 207.546875 158.433594 207.558594 158.527344 208.410156 158.898438 C 209.722656 159.46875 211.570312 160.070312 216.921875 161.671875 C 218.160156 162.039062 219.789062 162.535156 220.546875 162.773438 C 221.304688 163.011719 222.640625 163.425781 223.519531 163.695312 C 224.394531 163.96875 226.058594 164.484375 227.214844 164.84375 C 228.371094 165.203125 230.621094 165.886719 232.214844 166.359375 C 233.808594 166.835938 235.992188 167.492188 237.070312 167.824219 C 238.132812 168.152344 239.195312 168.476562 240.257812 168.796875 C 240.9375 169 241.980469 169.316406 242.578125 169.496094 C 244.445312 170.0625 246.464844 170.671875 249.316406 171.527344 C 250.832031 171.980469 253.117188 172.675781 254.390625 173.066406 C 259.664062 174.683594 261.359375 175.199219 264.101562 176.015625 C 265.058594 176.300781 266.257812 176.664062 266.761719 176.828125 C 267.269531 176.992188 267.792969 177.152344 267.921875 177.183594 C 268.054688 177.214844 268.550781 177.363281 269.03125 177.515625 C 269.507812 177.667969 270.324219 177.910156 270.84375 178.054688 C 271.359375 178.195312 271.847656 178.359375 271.929688 178.414062 C 272.007812 178.472656 272.367188 178.585938 272.726562 178.664062 C 273.375 178.808594 274.59375 179.175781 278.160156 180.289062 C 280.789062 181.109375 281.777344 181.320312 282.449219 181.214844 C 283.027344 181.121094 284.640625 179.871094 288.015625 176.902344 C 289.4375 175.652344 290.472656 174.761719 297.003906 169.167969 C 299.792969 166.777344 302.636719 164.308594 303.316406 163.679688 C 304.90625 162.21875 305.289062 161.882812 306.789062 160.660156 C 309.210938 158.683594 311.28125 156.777344 311.28125 156.523438 C 311.28125 156.164062 310.707031 155.925781 308.164062 155.214844 C 306.96875 154.882812 305.632812 154.492188 305.195312 154.347656 C 304.753906 154.203125 303.15625 153.71875 301.640625 153.269531 C 298.867188 152.445312 298.488281 152.332031 295.191406 151.390625 C 294.195312 151.105469 292.859375 150.707031 292.222656 150.507812 C 290.847656 150.082031 289.71875 149.746094 287.65625 149.144531 C 286.398438 148.777344 285.140625 148.40625 283.886719 148.027344 C 282.652344 147.65625 281.25 147.238281 280.769531 147.097656 C 280.292969 146.957031 278.335938 146.367188 276.421875 145.792969 C 274.507812 145.214844 272.550781 144.628906 272.074219 144.488281 C 271.59375 144.34375 270.617188 144.054688 269.898438 143.835938 C 269.183594 143.621094 268.074219 143.296875 267.4375 143.113281 C 266.796875 142.929688 265.363281 142.507812 264.246094 142.171875 C 263.132812 141.835938 261.925781 141.480469 261.566406 141.378906 C 261.207031 141.273438 259.445312 140.75 257.652344 140.214844 C 255.859375 139.679688 254.164062 139.175781 253.882812 139.097656 C 253.175781 138.902344 244.011719 136.175781 242.070312 135.582031 C 241.195312 135.316406 239.105469 134.695312 237.433594 134.207031 C 233.824219 133.148438 231.300781 132.394531 230.402344 132.101562 C 229.234375 131.726562 228.773438 131.703125 228.300781 131.996094 M 196.703125 172.917969 C 196.273438 173.03125 195.261719 174.066406 194.355469 175.320312 C 194.113281 175.65625 193.875 175.890625 193.824219 175.839844 C 193.773438 175.789062 193.730469 175.847656 193.730469 175.964844 C 193.730469 176.085938 193.570312 176.335938 193.371094 176.523438 C 193.171875 176.710938 193.007812 176.949219 193.007812 177.054688 C 193.007812 177.160156 192.953125 177.246094 192.886719 177.246094 C 192.820312 177.246094 192.679688 177.40625 192.574219 177.605469 C 192.46875 177.800781 192.339844 177.933594 192.28125 177.898438 C 192.226562 177.863281 192.089844 178.015625 191.980469 178.230469 C 191.675781 178.820312 187.695312 184.066406 186.894531 184.929688 C 186.710938 185.128906 186.558594 185.324219 186.558594 185.363281 C 186.558594 185.402344 186.378906 185.664062 186.164062 185.945312 C 185.714844 186.523438 185.269531 187.101562 184.820312 187.683594 C 184.148438 188.554688 183.472656 189.425781 182.792969 190.292969 C 182.203125 191.050781 181.375 192.125 180.960938 192.683594 C 179.972656 194.007812 179.203125 194.867188 179.050781 194.816406 C 178.980469 194.796875 178.96875 194.84375 179.019531 194.925781 C 179.070312 195.011719 179.007812 195.117188 178.882812 195.164062 C 178.753906 195.214844 178.238281 195.769531 177.734375 196.398438 C 177.085938 197.210938 176.8125 197.675781 176.804688 197.984375 C 176.792969 198.441406 176.75 198.414062 178.730469 199.277344 C 178.890625 199.347656 179.28125 199.445312 179.601562 199.496094 C 180.507812 199.644531 188.972656 202.265625 190.59375 202.898438 C 190.765625 202.964844 191.296875 203.128906 191.773438 203.265625 C 192.253906 203.398438 193.199219 203.691406 193.878906 203.910156 C 194.554688 204.132812 195.828125 204.523438 196.703125 204.78125 C 198.480469 205.300781 201.265625 206.15625 203.621094 206.902344 C 205.925781 207.632812 205.949219 207.628906 207.226562 206.199219 C 207.816406 205.542969 208.410156 204.917969 208.550781 204.8125 C 208.691406 204.710938 208.804688 204.53125 208.804688 204.414062 C 208.804688 204.300781 208.875 204.207031 208.953125 204.207031 C 209.035156 204.207031 209.164062 204.050781 209.234375 203.859375 C 209.308594 203.667969 211.339844 201.039062 213.746094 198.023438 C 219.789062 190.449219 220.925781 189.046875 225.09375 184.003906 C 225.5625 183.4375 226.011719 182.828125 226.09375 182.652344 C 226.292969 182.214844 226 181.972656 224.316406 181.167969 C 224.070312 181.054688 222.1875 180.472656 220.546875 180.003906 C 219.949219 179.832031 219.101562 179.570312 218.664062 179.421875 C 217.972656 179.1875 216.886719 178.867188 216.414062 178.757812 C 216.335938 178.742188 215.976562 178.628906 215.617188 178.507812 C 215.261719 178.386719 214.738281 178.242188 214.460938 178.1875 C 214.179688 178.128906 213.886719 178.035156 213.808594 177.972656 C 213.726562 177.914062 213.410156 177.820312 213.101562 177.761719 C 212.792969 177.707031 212.433594 177.605469 212.304688 177.539062 C 212.171875 177.46875 210.992188 177.078125 209.675781 176.667969 C 205.867188 175.480469 201.371094 174.046875 201.023438 173.910156 C 200.695312 173.777344 197.945312 172.980469 197.429688 172.867188 C 197.269531 172.832031 196.941406 172.855469 196.703125 172.917969 M 166.53125 211.808594 C 166.082031 212.003906 164.558594 213.726562 162.9375 215.875 C 162.257812 216.777344 160.972656 218.425781 159.84375 219.847656 C 159.613281 220.140625 159.386719 220.4375 159.164062 220.734375 C 158.628906 221.460938 157.582031 222.820312 156.492188 224.207031 L 155.292969 225.730469 L 154.550781 226.671875 C 154.207031 227.109375 153.765625 227.703125 153.574219 227.988281 C 152.792969 229.144531 150.308594 232.167969 150.140625 232.175781 C 150.039062 232.179688 149.960938 232.277344 149.960938 232.398438 C 149.960938 232.519531 149.894531 232.617188 149.8125 232.617188 C 149.734375 232.617188 149.667969 232.710938 149.667969 232.824219 C 149.667969 232.941406 149.582031 233.089844 149.472656 233.152344 C 149.367188 233.214844 149.09375 233.5625 148.867188 233.921875 C 148.640625 234.277344 148.3125 234.734375 148.136719 234.933594 C 147.960938 235.132812 147.777344 235.4375 147.722656 235.605469 C 147.546875 236.199219 149.289062 237.042969 152.0625 237.699219 C 152.765625 237.863281 157.621094 239.355469 162.640625 240.945312 C 163.996094 241.375 166.019531 242 167.136719 242.328125 C 169.984375 243.171875 170.367188 243.292969 172.570312 244.027344 C 176.046875 245.1875 175.796875 245.066406 175.703125 245.539062 C 175.65625 245.769531 175.289062 246.363281 174.882812 246.859375 C 173.953125 247.992188 174.105469 247.796875 172.132812 250.355469 C 169.949219 253.191406 166.21875 257.929688 165.035156 259.371094 C 164.519531 260 162.769531 262.179688 161.148438 264.214844 C 157.863281 268.332031 155.039062 271.84375 154.808594 272.09375 C 154.726562 272.183594 154.335938 272.667969 153.941406 273.171875 C 153.339844 273.929688 152.738281 274.6875 152.132812 275.441406 C 151.535156 276.1875 150.71875 277.207031 150.320312 277.707031 C 149.921875 278.203125 149.367188 278.894531 149.089844 279.234375 C 148.597656 279.839844 148.105469 280.449219 147.613281 281.058594 C 147.082031 281.71875 145.628906 283.496094 144.382812 285.011719 C 142.433594 287.382812 140.90625 289.277344 134.742188 296.96875 C 133.933594 297.980469 133.128906 298.996094 132.328125 300.011719 C 131.542969 301.007812 129.691406 303.335938 128.21875 305.183594 C 126.742188 307.035156 124.949219 309.308594 124.230469 310.238281 C 121.488281 313.796875 119.085938 316.820312 114.730469 322.191406 C 113.726562 323.425781 112.488281 324.992188 111.976562 325.667969 C 111.464844 326.347656 110.394531 327.683594 109.59375 328.640625 C 108.796875 329.597656 107.753906 330.898438 107.277344 331.53125 C 106.804688 332.164062 106.015625 333.113281 105.53125 333.632812 C 104.078125 335.1875 103.785156 335.816406 104.511719 335.816406 C 105.246094 335.816406 105.722656 335.445312 108.132812 333.015625 C 109.492188 331.640625 111.421875 329.84375 112.417969 329.019531 C 114.507812 327.292969 115.753906 326.21875 116.984375 325.085938 C 117.464844 324.644531 118.375 323.828125 119.011719 323.273438 C 119.652344 322.71875 120.730469 321.738281 121.410156 321.097656 C 122.09375 320.457031 123.722656 318.996094 125.035156 317.851562 C 127.484375 315.722656 133.734375 310.222656 135.179688 308.929688 C 135.625 308.53125 137.09375 307.226562 138.445312 306.03125 C 139.796875 304.835938 140.933594 303.824219 140.972656 303.78125 C 141.011719 303.742188 141.699219 303.15625 142.496094 302.484375 C 143.292969 301.808594 144.5625 300.691406 145.320312 300 C 146.078125 299.304688 147.253906 298.265625 147.929688 297.691406 C 148.609375 297.113281 149.585938 296.238281 150.105469 295.746094 C 150.621094 295.257812 152.15625 293.886719 153.511719 292.703125 C 154.867188 291.523438 156.300781 290.253906 156.699219 289.882812 C 157.097656 289.511719 158.140625 288.625 159.019531 287.910156 C 161.273438 286.078125 164.886719 283.003906 167.285156 280.882812 C 168.683594 279.644531 170.085938 278.414062 171.488281 277.1875 C 172.675781 276.148438 174.417969 274.601562 175.363281 273.746094 C 176.304688 272.894531 177.773438 271.589844 178.628906 270.851562 C 179.480469 270.113281 181.09375 268.691406 182.210938 267.691406 C 184.355469 265.765625 187.773438 262.777344 189.730469 261.117188 C 190.378906 260.570312 191.230469 259.820312 191.628906 259.449219 C 192.644531 258.507812 194.453125 256.925781 195.90625 255.707031 C 196.582031 255.140625 198.121094 253.804688 199.328125 252.742188 C 203.644531 248.921875 204.8125 247.902344 205.320312 247.496094 C 205.601562 247.269531 206.160156 246.78125 206.558594 246.40625 C 206.957031 246.03125 207.902344 245.207031 208.660156 244.570312 C 209.417969 243.9375 210.820312 242.671875 211.777344 241.761719 C 213.339844 240.273438 217.8125 236.375 218.890625 235.554688 C 222.179688 233.070312 224.023438 231.527344 224.023438 231.265625 C 224.023438 231.191406 224.253906 230.875 224.53125 230.566406 C 224.8125 230.257812 225.039062 229.941406 225.039062 229.863281 C 225.039062 229.585938 222.167969 228.414062 221.492188 228.414062 C 221.152344 228.414062 218.875 227.765625 216.921875 227.113281 C 216.007812 226.808594 214.277344 226.253906 213.082031 225.882812 C 211.886719 225.507812 210.582031 225.085938 210.183594 224.9375 C 209.785156 224.792969 209.261719 224.628906 209.023438 224.578125 C 208.785156 224.527344 207.804688 224.238281 206.847656 223.933594 C 205.894531 223.628906 204.621094 223.234375 204.023438 223.054688 C 203.394531 222.863281 202.765625 222.664062 202.140625 222.464844 C 201.699219 222.320312 200.363281 221.894531 199.167969 221.523438 C 197.972656 221.148438 196.699219 220.746094 196.339844 220.625 C 195.980469 220.507812 194.839844 220.152344 193.804688 219.835938 C 192.769531 219.519531 191.527344 219.144531 191.050781 218.996094 C 190.574219 218.851562 189.691406 218.589844 189.097656 218.417969 C 188.5 218.242188 187.9375 218.039062 187.84375 217.960938 C 187.75 217.882812 187.621094 217.839844 187.550781 217.859375 C 187.414062 217.898438 185.753906 217.402344 184.3125 216.882812 C 183.792969 216.695312 183.191406 216.507812 182.976562 216.460938 C 182.761719 216.417969 182.402344 216.304688 182.179688 216.214844 C 181.957031 216.121094 181.644531 216.023438 181.484375 215.996094 C 181.324219 215.964844 180.707031 215.78125 180.109375 215.589844 C 179.507812 215.394531 178.140625 214.972656 177.0625 214.644531 C 175.988281 214.320312 174.714844 213.917969 174.238281 213.753906 C 173.757812 213.589844 173.238281 213.421875 173.078125 213.378906 C 172.917969 213.339844 172.582031 213.21875 172.332031 213.105469 C 172.078125 212.996094 171.78125 212.902344 171.671875 212.902344 C 171.558594 212.902344 171.40625 212.847656 171.332031 212.777344 C 171.253906 212.707031 170.554688 212.414062 169.777344 212.125 C 168.246094 211.554688 167.320312 211.46875 166.53125 211.808594 " fill-opacity="1" fill-rule="evenodd"/><g clip-path="url(#d793e7d03e)"><g clip-path="url(#ccec1af943)"><g clip-path="url(#3e43f99c9d)"><path fill="#ffbd59" d="M 212.128906 76.175781 C 211.746094 76.582031 211.367188 76.914062 211.285156 76.914062 C 211.199219 76.910156 211.167969 76.96875 211.210938 77.039062 C 211.253906 77.109375 211.160156 77.289062 210.996094 77.433594 C 210.835938 77.578125 210.703125 77.769531 210.703125 77.859375 C 210.699219 77.949219 210.296875 78.519531 209.804688 79.128906 C 209.316406 79.738281 208.734375 80.503906 208.515625 80.828125 C 208.292969 81.152344 207.894531 81.636719 207.628906 81.90625 C 207.359375 82.171875 207.140625 82.488281 207.140625 82.605469 C 207.140625 82.726562 207.054688 82.820312 206.949219 82.820312 C 206.84375 82.820312 206.59375 83.085938 206.394531 83.410156 C 206.191406 83.730469 205.980469 83.996094 205.921875 84 C 205.863281 84 205.703125 84.214844 205.570312 84.46875 C 205.4375 84.726562 205.175781 85.101562 204.988281 85.304688 C 204.800781 85.503906 204.558594 85.835938 204.449219 86.042969 C 204.335938 86.25 204.082031 86.589844 203.875 86.804688 C 203.671875 87.019531 203.371094 87.386719 203.207031 87.621094 C 202.933594 88.015625 201.730469 89.648438 201.464844 89.988281 C 201.398438 90.066406 201.089844 90.535156 200.777344 91.019531 C 200.460938 91.507812 200.03125 92.105469 199.8125 92.351562 C 199.597656 92.59375 199.421875 92.847656 199.421875 92.910156 C 199.421875 93.035156 199.355469 93.121094 198.753906 93.800781 C 198.550781 94.027344 198.382812 94.296875 198.382812 94.398438 C 198.382812 94.5 198.265625 94.714844 198.121094 94.871094 C 197.980469 95.027344 197.734375 95.359375 197.582031 95.601562 C 197.257812 96.109375 197.15625 96.230469 196.28125 97.179688 C 195.394531 98.136719 194.96875 98.710938 194.96875 98.957031 C 194.96875 99.070312 194.761719 99.316406 194.511719 99.5 C 194.261719 99.6875 194.09375 99.875 194.140625 99.921875 C 194.183594 99.96875 194.023438 100.351562 193.777344 100.777344 C 193.535156 101.199219 193.335938 101.65625 193.335938 101.789062 C 193.332031 102.09375 194.363281 102.558594 196.4375 103.195312 L 199.027344 103.988281 C 199.597656 104.160156 200.429688 104.425781 200.875 104.578125 C 201.324219 104.726562 202.289062 105.015625 203.019531 105.21875 C 203.753906 105.421875 204.617188 105.667969 204.941406 105.765625 C 206.941406 106.359375 209.105469 107.03125 210.191406 107.390625 C 211.050781 107.671875 211.914062 107.945312 212.78125 108.210938 C 213.511719 108.433594 214.378906 108.707031 214.703125 108.816406 C 215.277344 109.007812 218.207031 109.890625 219.625 110.296875 C 221.222656 110.757812 222.875 111.269531 223.429688 111.480469 C 224.609375 111.929688 224.640625 111.90625 227.132812 108.613281 C 227.707031 107.859375 228.609375 106.691406 229.136719 106.019531 C 230.019531 104.90625 231.371094 103.121094 231.734375 102.589844 C 231.816406 102.472656 232.019531 102.222656 232.179688 102.039062 C 232.34375 101.855469 232.710938 101.394531 232.996094 101.011719 C 233.285156 100.628906 233.585938 100.238281 233.664062 100.144531 C 233.746094 100.050781 234.042969 99.640625 234.324219 99.234375 C 234.601562 98.832031 235.183594 98.09375 235.617188 97.59375 C 236.046875 97.097656 236.359375 96.648438 236.308594 96.597656 C 236.257812 96.546875 236.28125 96.503906 236.363281 96.503906 C 236.445312 96.503906 236.585938 96.339844 236.679688 96.140625 C 236.773438 95.9375 237.132812 95.410156 237.484375 94.964844 C 237.832031 94.519531 238.820312 93.214844 239.679688 92.070312 C 240.535156 90.925781 241.4375 89.734375 241.683594 89.425781 C 241.925781 89.117188 242.621094 88.191406 243.222656 87.367188 C 243.828125 86.546875 244.445312 85.835938 244.597656 85.789062 C 244.917969 85.6875 244.980469 84.957031 244.6875 84.71875 C 244.523438 84.582031 241.65625 83.828125 240.289062 83.558594 C 240.003906 83.503906 238.808594 83.15625 237.628906 82.789062 C 236.449219 82.417969 234.25 81.757812 232.746094 81.320312 C 231.242188 80.882812 229.3125 80.316406 228.457031 80.058594 C 227.605469 79.804688 225.90625 79.304688 224.6875 78.949219 C 223.46875 78.597656 221.671875 78.066406 220.695312 77.773438 C 219.71875 77.480469 218.355469 77.074219 217.664062 76.867188 C 216.972656 76.664062 215.753906 76.257812 214.957031 75.964844 C 214.160156 75.675781 213.351562 75.4375 213.164062 75.4375 C 212.945312 75.4375 212.574219 75.699219 212.128906 76.175781 M 181.257812 117.433594 C 181.003906 117.703125 180.222656 118.703125 179.53125 119.660156 C 178.835938 120.621094 178.101562 121.628906 177.898438 121.902344 C 177.691406 122.179688 177.320312 122.691406 177.066406 123.039062 C 176.535156 123.773438 175.585938 125.0625 173.449219 127.957031 C 172.609375 129.09375 171.726562 130.289062 171.488281 130.613281 C 171.25 130.941406 170.507812 131.945312 169.835938 132.847656 C 167.363281 136.1875 164.894531 139.53125 162.433594 142.878906 C 161.253906 144.480469 160.070312 146.082031 158.882812 147.679688 C 156.609375 150.734375 154.695312 153.316406 153.339844 155.164062 C 152.546875 156.242188 151.75 157.316406 150.953125 158.390625 C 150.238281 159.347656 149.527344 160.308594 148.816406 161.269531 C 148.308594 161.960938 146.921875 163.824219 145.742188 165.40625 C 144.496094 167.082031 143.246094 168.757812 142.003906 170.433594 C 140.851562 171.984375 139.699219 173.535156 138.546875 175.085938 C 137.410156 176.613281 136.277344 178.136719 135.144531 179.664062 C 134.300781 180.800781 132.714844 182.929688 131.621094 184.390625 C 127.109375 190.433594 125.355469 192.792969 124.160156 194.429688 C 123.464844 195.378906 122.527344 196.636719 122.074219 197.21875 C 121.625 197.800781 120.792969 198.910156 120.226562 199.683594 C 118.253906 202.375 113.984375 208.074219 109.402344 214.128906 C 105.105469 219.804688 102.480469 223.402344 102.488281 223.605469 C 102.488281 223.652344 102.542969 223.773438 102.605469 223.871094 C 102.734375 224.078125 106.71875 225.542969 108.398438 226.003906 C 109.351562 226.265625 114.621094 227.90625 122.597656 230.425781 C 123.773438 230.796875 125.9375 231.5 127.402344 231.988281 C 130.292969 232.953125 131.234375 233.140625 131.871094 232.875 C 132.328125 232.6875 133.152344 231.707031 135.734375 228.28125 C 137.566406 225.851562 139.929688 222.75 143.75 217.765625 C 145.035156 216.085938 146.589844 214.058594 147.199219 213.261719 C 148.085938 212.109375 148.972656 210.960938 149.863281 209.8125 C 150.71875 208.71875 152.25 206.722656 153.265625 205.382812 C 155.605469 202.300781 156.570312 201.050781 158.414062 198.691406 C 159.226562 197.652344 160.027344 196.621094 160.1875 196.398438 C 160.351562 196.179688 161.253906 195.003906 162.191406 193.785156 C 163.132812 192.566406 164.789062 190.40625 165.871094 188.984375 C 166.957031 187.5625 168.628906 185.378906 169.582031 184.132812 C 170.539062 182.886719 171.421875 181.722656 171.542969 181.546875 C 171.660156 181.371094 172.234375 180.628906 172.8125 179.898438 C 174.050781 178.328125 176.40625 175.257812 178.914062 171.941406 C 179.90625 170.632812 180.882812 169.359375 181.082031 169.113281 C 181.28125 168.871094 181.976562 167.972656 182.632812 167.121094 C 183.285156 166.265625 184.332031 164.90625 184.953125 164.09375 C 185.578125 163.277344 187.179688 161.183594 188.511719 159.4375 C 192.824219 153.789062 193.851562 152.445312 194.960938 151.019531 C 195.558594 150.246094 196.664062 148.789062 197.417969 147.785156 C 198.167969 146.777344 199.054688 145.613281 199.386719 145.199219 C 199.996094 144.4375 202.988281 140.515625 204.785156 138.128906 C 206.664062 135.628906 208.597656 133.140625 210.433594 130.855469 C 212.703125 128.035156 213.105469 127.4375 213.109375 126.910156 C 213.109375 126.210938 212.597656 126.007812 205.417969 123.886719 C 201.585938 122.753906 199.898438 122.246094 194.105469 120.457031 C 192.316406 119.90625 190.453125 119.332031 189.964844 119.183594 C 189.476562 119.035156 187.878906 118.53125 186.414062 118.066406 C 182.125 116.707031 181.976562 116.691406 181.257812 117.433594 M 229.746094 131.832031 C 229.273438 132.125 228.402344 133.0625 226.714844 135.109375 C 224.980469 137.207031 224.921875 137.285156 224.921875 137.433594 C 224.921875 137.507812 224.78125 137.699219 224.609375 137.855469 C 224.433594 138.007812 223.917969 138.632812 223.460938 139.242188 C 223 139.851562 222.574219 140.375 222.511719 140.402344 C 222.449219 140.429688 222.398438 140.527344 222.398438 140.621094 C 222.398438 140.71875 222.132812 141.0625 221.8125 141.386719 C 221.488281 141.710938 221.222656 142.058594 221.21875 142.160156 C 221.214844 142.261719 221.148438 142.347656 221.074219 142.347656 C 221 142.347656 220.402344 143.101562 219.75 144.023438 C 219.097656 144.945312 218.359375 145.902344 218.105469 146.152344 C 217.855469 146.402344 217.648438 146.644531 217.648438 146.691406 C 217.648438 146.773438 217.519531 146.933594 216.683594 147.886719 C 216.472656 148.128906 216.191406 148.527344 216.0625 148.765625 C 215.933594 149.007812 215.667969 149.328125 215.476562 149.480469 C 215.28125 149.632812 215.15625 149.808594 215.195312 149.871094 C 215.234375 149.933594 215.101562 150.140625 214.898438 150.328125 C 214.699219 150.515625 214.53125 150.734375 214.53125 150.808594 C 214.53125 150.886719 214.359375 151.15625 214.148438 151.410156 C 213.9375 151.667969 213.375 152.394531 212.902344 153.027344 C 212.429688 153.660156 211.769531 154.492188 211.4375 154.871094 C 210.703125 155.714844 210.496094 155.96875 210.300781 156.261719 C 209.886719 156.890625 209.535156 157.390625 209.183594 157.859375 C 208.492188 158.773438 208.503906 158.871094 209.371094 159.25 C 210.714844 159.835938 212.597656 160.453125 218.058594 162.101562 C 219.320312 162.480469 220.984375 162.992188 221.753906 163.234375 C 222.527344 163.480469 223.890625 163.90625 224.789062 164.183594 C 225.683594 164.464844 227.378906 164.992188 228.558594 165.363281 C 229.738281 165.734375 232.035156 166.4375 233.660156 166.925781 C 235.285156 167.414062 237.515625 168.089844 238.613281 168.433594 C 239.699219 168.769531 240.78125 169.101562 241.867188 169.433594 C 242.558594 169.640625 243.625 169.964844 244.234375 170.152344 C 246.140625 170.734375 248.199219 171.359375 251.109375 172.238281 C 252.65625 172.707031 254.984375 173.421875 256.285156 173.824219 C 261.664062 175.488281 263.394531 176.019531 266.195312 176.859375 C 267.171875 177.148438 268.394531 177.527344 268.910156 177.695312 C 269.429688 177.863281 269.960938 178.027344 270.09375 178.058594 C 270.226562 178.089844 270.734375 178.246094 271.222656 178.402344 C 271.710938 178.558594 272.542969 178.808594 273.070312 178.953125 C 273.601562 179.101562 274.101562 179.269531 274.179688 179.328125 C 274.261719 179.382812 274.628906 179.5 274.996094 179.582031 C 275.660156 179.734375 276.902344 180.109375 280.539062 181.253906 C 283.222656 182.097656 284.230469 182.316406 284.917969 182.207031 C 285.503906 182.117188 287.15625 180.84375 290.609375 177.820312 C 292.0625 176.546875 293.121094 175.640625 299.804688 169.941406 C 302.660156 167.507812 305.566406 164.996094 306.265625 164.355469 C 307.886719 162.867188 308.28125 162.527344 309.8125 161.28125 C 312.292969 159.269531 314.410156 157.328125 314.410156 157.066406 C 314.414062 156.703125 313.824219 156.453125 311.234375 155.722656 C 310.011719 155.378906 308.648438 154.980469 308.199219 154.832031 C 307.753906 154.683594 306.125 154.183594 304.578125 153.722656 C 301.746094 152.871094 301.359375 152.757812 297.996094 151.785156 C 296.980469 151.492188 295.617188 151.085938 294.964844 150.882812 C 293.5625 150.441406 292.414062 150.097656 290.304688 149.476562 C 289.023438 149.097656 287.742188 148.714844 286.460938 148.328125 C 285.199219 147.945312 283.769531 147.515625 283.28125 147.371094 C 282.792969 147.226562 280.796875 146.621094 278.84375 146.027344 C 276.894531 145.4375 274.898438 144.832031 274.410156 144.6875 C 273.921875 144.539062 272.921875 144.238281 272.191406 144.015625 C 271.457031 143.796875 270.328125 143.460938 269.675781 143.273438 C 269.027344 143.082031 267.5625 142.648438 266.421875 142.304688 C 265.285156 141.960938 264.054688 141.589844 263.6875 141.484375 C 263.320312 141.378906 261.523438 140.84375 259.695312 140.289062 C 257.863281 139.738281 256.132812 139.21875 255.847656 139.140625 C 255.128906 138.941406 245.777344 136.132812 243.796875 135.523438 C 242.902344 135.25 240.769531 134.609375 239.0625 134.105469 C 235.378906 133.019531 232.808594 132.242188 231.890625 131.945312 C 230.699219 131.554688 230.226562 131.53125 229.746094 131.832031 M 197.386719 173.539062 C 196.945312 173.652344 195.914062 174.707031 194.984375 175.984375 C 194.738281 176.328125 194.492188 176.566406 194.441406 176.515625 C 194.390625 176.464844 194.347656 176.519531 194.347656 176.640625 C 194.347656 176.761719 194.179688 177.019531 193.976562 177.210938 C 193.769531 177.402344 193.605469 177.644531 193.605469 177.753906 C 193.605469 177.859375 193.546875 177.949219 193.480469 177.949219 C 193.414062 177.949219 193.269531 178.113281 193.160156 178.3125 C 193.054688 178.511719 192.917969 178.648438 192.863281 178.613281 C 192.804688 178.578125 192.664062 178.730469 192.550781 178.949219 C 192.238281 179.550781 188.164062 184.898438 187.34375 185.777344 C 187.15625 185.980469 187 186.179688 187 186.222656 C 187 186.261719 186.816406 186.527344 186.597656 186.8125 C 186.136719 187.402344 185.679688 187.992188 185.222656 188.585938 C 184.53125 189.472656 183.839844 190.359375 183.144531 191.242188 C 182.539062 192.015625 181.695312 193.113281 181.265625 193.679688 C 180.257812 195.03125 179.46875 195.90625 179.3125 195.855469 C 179.242188 195.832031 179.226562 195.882812 179.28125 195.96875 C 179.332031 196.050781 179.269531 196.160156 179.140625 196.210938 C 179.007812 196.257812 178.480469 196.824219 177.964844 197.46875 C 177.300781 198.292969 177.023438 198.765625 177.011719 199.082031 C 176.996094 199.550781 176.957031 199.523438 178.976562 200.40625 C 179.136719 200.480469 179.535156 200.582031 179.863281 200.632812 C 180.789062 200.785156 189.425781 203.480469 191.078125 204.132812 C 191.253906 204.203125 191.796875 204.371094 192.285156 204.511719 C 192.773438 204.648438 193.738281 204.949219 194.429688 205.175781 C 195.121094 205.402344 196.417969 205.804688 197.3125 206.070312 C 199.125 206.605469 201.96875 207.484375 204.371094 208.25 C 206.722656 209.003906 206.746094 209 208.054688 207.542969 C 208.65625 206.871094 209.265625 206.238281 209.410156 206.132812 C 209.554688 206.027344 209.671875 205.84375 209.671875 205.726562 C 209.671875 205.609375 209.738281 205.511719 209.824219 205.511719 C 209.90625 205.511719 210.035156 205.351562 210.109375 205.15625 C 210.1875 204.960938 212.265625 202.285156 214.730469 199.210938 C 220.917969 191.492188 222.078125 190.0625 226.347656 184.921875 C 226.828125 184.34375 227.289062 183.722656 227.371094 183.542969 C 227.578125 183.101562 227.277344 182.851562 225.558594 182.027344 C 225.3125 181.910156 223.390625 181.308594 221.714844 180.828125 C 221.105469 180.652344 220.238281 180.382812 219.792969 180.230469 C 219.089844 179.992188 217.980469 179.660156 217.5 179.546875 C 217.417969 179.527344 217.054688 179.410156 216.6875 179.289062 C 216.320312 179.164062 215.789062 179.015625 215.503906 178.957031 C 215.21875 178.898438 214.917969 178.800781 214.839844 178.738281 C 214.757812 178.679688 214.433594 178.582031 214.117188 178.523438 C 213.800781 178.464844 213.4375 178.359375 213.304688 178.289062 C 213.171875 178.21875 211.964844 177.816406 210.625 177.394531 C 206.738281 176.175781 202.148438 174.699219 201.796875 174.558594 C 201.460938 174.425781 198.65625 173.605469 198.128906 173.488281 C 197.964844 173.453125 197.632812 173.472656 197.386719 173.539062 M 166.488281 213.175781 C 166.03125 213.375 164.472656 215.128906 162.8125 217.316406 C 162.113281 218.238281 160.800781 219.917969 159.644531 221.367188 C 159.40625 221.664062 159.175781 221.964844 158.945312 222.273438 C 158.398438 223.011719 157.328125 224.394531 156.210938 225.8125 L 154.984375 227.363281 L 154.222656 228.324219 C 153.871094 228.769531 153.417969 229.375 153.222656 229.664062 C 152.421875 230.839844 149.878906 233.925781 149.707031 233.929688 C 149.605469 233.933594 149.523438 234.035156 149.519531 234.15625 C 149.519531 234.28125 149.453125 234.378906 149.371094 234.378906 C 149.292969 234.378906 149.226562 234.476562 149.222656 234.59375 C 149.222656 234.710938 149.132812 234.859375 149.023438 234.925781 C 148.914062 234.992188 148.632812 235.34375 148.402344 235.710938 C 148.167969 236.074219 147.832031 236.539062 147.652344 236.742188 C 147.472656 236.945312 147.285156 237.253906 147.230469 237.429688 C 147.046875 238.035156 148.828125 238.898438 151.65625 239.574219 C 152.371094 239.746094 157.328125 241.277344 162.449219 242.914062 C 163.832031 243.359375 165.894531 243.996094 167.035156 244.335938 C 169.941406 245.207031 170.335938 245.328125 172.582031 246.082031 C 176.128906 247.277344 175.875 247.152344 175.777344 247.636719 C 175.730469 247.871094 175.347656 248.472656 174.933594 248.980469 C 173.984375 250.136719 174.140625 249.9375 172.121094 252.546875 C 169.882812 255.433594 166.0625 260.261719 164.851562 261.734375 C 164.324219 262.375 162.53125 264.597656 160.871094 266.667969 C 157.507812 270.867188 154.613281 274.445312 154.382812 274.699219 C 154.296875 274.789062 153.898438 275.285156 153.492188 275.796875 C 152.875 276.570312 152.257812 277.339844 151.640625 278.109375 C 151.027344 278.871094 150.191406 279.910156 149.785156 280.417969 C 149.375 280.925781 148.808594 281.628906 148.523438 281.976562 C 148.019531 282.59375 147.515625 283.214844 147.011719 283.832031 C 146.46875 284.507812 144.980469 286.320312 143.703125 287.863281 C 141.707031 290.28125 140.144531 292.210938 133.832031 300.050781 C 133.003906 301.082031 132.179688 302.117188 131.359375 303.152344 C 130.554688 304.167969 128.664062 306.539062 127.152344 308.421875 C 125.640625 310.308594 123.804688 312.625 123.070312 313.574219 C 120.261719 317.203125 117.800781 320.28125 113.339844 325.753906 C 112.3125 327.015625 111.046875 328.609375 110.523438 329.300781 C 109.996094 329.992188 108.898438 331.351562 108.082031 332.328125 C 107.265625 333.304688 106.199219 334.628906 105.710938 335.273438 C 105.226562 335.921875 104.417969 336.886719 103.921875 337.417969 C 102.4375 339 102.136719 339.640625 102.875 339.640625 C 103.625 339.644531 104.113281 339.265625 106.578125 336.792969 C 107.972656 335.390625 109.945312 333.558594 110.964844 332.722656 C 113.101562 330.964844 114.378906 329.871094 115.636719 328.714844 C 116.125 328.265625 117.058594 327.433594 117.710938 326.871094 C 118.363281 326.304688 119.46875 325.308594 120.164062 324.652344 C 120.863281 324 122.53125 322.511719 123.875 321.351562 C 126.378906 319.179688 132.769531 313.578125 134.25 312.261719 C 134.707031 311.855469 136.210938 310.527344 137.589844 309.3125 C 138.972656 308.09375 140.136719 307.066406 140.179688 307.023438 C 140.21875 306.976562 140.921875 306.382812 141.734375 305.699219 C 142.550781 305.011719 143.851562 303.875 144.628906 303.167969 C 145.402344 302.460938 146.601562 301.402344 147.296875 300.816406 C 147.988281 300.230469 148.992188 299.339844 149.519531 298.839844 C 150.050781 298.339844 151.621094 296.945312 153.003906 295.738281 C 154.390625 294.535156 155.859375 293.242188 156.269531 292.867188 C 156.675781 292.488281 157.742188 291.585938 158.640625 290.859375 C 160.945312 288.992188 164.640625 285.863281 167.097656 283.699219 C 168.527344 282.441406 169.960938 281.1875 171.398438 279.9375 C 172.613281 278.882812 174.394531 277.304688 175.359375 276.4375 C 176.324219 275.566406 177.828125 274.238281 178.703125 273.488281 C 179.574219 272.734375 181.222656 271.285156 182.367188 270.265625 C 184.5625 268.308594 188.058594 265.265625 190.0625 263.574219 C 190.722656 263.015625 191.597656 262.25 192.003906 261.875 C 193.042969 260.917969 194.890625 259.304688 196.378906 258.066406 C 197.074219 257.488281 198.648438 256.125 199.878906 255.042969 C 204.296875 251.15625 205.492188 250.113281 206.011719 249.703125 C 206.300781 249.472656 206.871094 248.972656 207.277344 248.59375 C 207.6875 248.210938 208.652344 247.371094 209.429688 246.722656 C 210.203125 246.078125 211.636719 244.789062 212.617188 243.863281 C 214.214844 242.347656 218.789062 238.375 219.894531 237.542969 C 223.257812 235.011719 225.144531 233.441406 225.148438 233.171875 C 225.148438 233.097656 225.378906 232.777344 225.667969 232.464844 C 225.953125 232.148438 226.1875 231.828125 226.1875 231.746094 C 226.1875 231.464844 223.257812 230.257812 222.566406 230.257812 C 222.21875 230.253906 219.898438 229.589844 217.90625 228.917969 C 216.96875 228.605469 215.207031 228.035156 213.984375 227.652344 C 212.765625 227.269531 211.433594 226.832031 211.027344 226.683594 C 210.621094 226.53125 210.089844 226.363281 209.84375 226.3125 C 209.601562 226.257812 208.601562 225.960938 207.628906 225.648438 C 206.652344 225.335938 205.351562 224.929688 204.742188 224.742188 C 204.101562 224.546875 203.460938 224.34375 202.820312 224.136719 C 202.375 223.988281 201.007812 223.554688 199.789062 223.167969 C 198.570312 222.785156 197.273438 222.371094 196.90625 222.246094 C 196.539062 222.125 195.375 221.757812 194.316406 221.433594 C 193.261719 221.109375 191.996094 220.722656 191.507812 220.570312 C 191.019531 220.421875 190.121094 220.152344 189.515625 219.972656 C 188.90625 219.796875 188.332031 219.585938 188.234375 219.507812 C 188.140625 219.425781 188.007812 219.378906 187.9375 219.402344 C 187.796875 219.441406 186.105469 218.929688 184.632812 218.398438 C 184.101562 218.207031 183.488281 218.011719 183.269531 217.964844 C 183.050781 217.917969 182.683594 217.800781 182.457031 217.707031 C 182.230469 217.613281 181.910156 217.511719 181.746094 217.484375 C 181.585938 217.453125 180.953125 217.265625 180.34375 217.066406 C 179.734375 216.867188 178.335938 216.429688 177.238281 216.097656 C 176.140625 215.761719 174.839844 215.347656 174.351562 215.179688 C 173.867188 215.007812 173.332031 214.835938 173.171875 214.796875 C 173.007812 214.753906 172.664062 214.628906 172.410156 214.511719 C 172.152344 214.398438 171.847656 214.304688 171.734375 214.304688 C 171.621094 214.304688 171.464844 214.246094 171.386719 214.171875 C 171.3125 214.101562 170.597656 213.800781 169.804688 213.503906 C 168.242188 212.921875 167.296875 212.828125 166.488281 213.175781 " fill-opacity="1" fill-rule="evenodd"/></g></g></g></svg>