<svg xmlns="http://www.w3.org/2000/svg" xmlns:xlink="http://www.w3.org/1999/xlink" width="500" zoomAndPan="magnify" viewBox="0 0 375 374.999991" height="500" preserveAspectRatio="xMidYMid meet" version="1.0"><path fill="#ffbd59" d="M 121.066406 191.007812 C 119.75 189.695312 117.777344 189.300781 116.058594 190.015625 C 114.34375 190.726562 113.222656 192.398438 113.222656 194.257812 L 113.222656 275.78125 C 113.222656 278.320312 115.28125 280.375 117.816406 280.375 L 199.339844 280.375 C 201.199219 280.375 202.871094 279.253906 203.585938 277.539062 C 204.296875 275.824219 203.902344 273.847656 202.589844 272.53125 Z M 122.410156 271.1875 L 122.410156 205.347656 L 188.25 271.1875 Z M 122.410156 271.1875 " fill-opacity="1" fill-rule="nonzero"/><path fill="#ffbd59" d="M 352.890625 28.296875 L 329.007812 4.414062 C 327.214844 2.621094 324.304688 2.621094 322.511719 4.414062 L 184.476562 142.449219 C 184.03125 142.890625 183.6875 143.417969 183.457031 144 L 168.324219 181.988281 L 107.441406 121.105469 L 118.367188 110.179688 C 120.160156 108.386719 120.160156 105.476562 118.367188 103.683594 C 116.570312 101.890625 113.664062 101.890625 111.871094 103.683594 L 100.945312 114.609375 L 82.617188 96.28125 L 82.617188 4.59375 C 82.617188 2.054688 80.558594 0 78.023438 0 L 25.359375 0 C 22.820312 0 20.765625 2.054688 20.765625 4.59375 L 20.765625 370.40625 C 20.765625 372.945312 22.820312 375 25.359375 375 L 78.023438 375 C 80.558594 375 82.617188 372.945312 82.617188 370.40625 L 82.617188 320.167969 L 293.511719 320.167969 L 306.339844 333 C 307.238281 333.894531 308.414062 334.34375 309.589844 334.34375 C 310.765625 334.34375 311.941406 333.894531 312.835938 333 C 314.632812 331.203125 314.632812 328.296875 312.835938 326.503906 L 175.316406 188.980469 L 213.308594 173.847656 C 213.886719 173.617188 214.414062 173.269531 214.855469 172.832031 L 352.890625 34.792969 C 353.753906 33.933594 354.238281 32.765625 354.238281 31.546875 C 354.238281 30.328125 353.753906 29.160156 352.890625 28.296875 Z M 73.429688 365.8125 L 29.953125 365.8125 L 29.953125 357.636719 L 37.839844 357.636719 C 40.378906 357.636719 42.433594 355.582031 42.433594 353.046875 C 42.433594 350.507812 40.378906 348.453125 37.839844 348.453125 L 29.953125 348.453125 L 29.953125 333.988281 L 37.839844 333.988281 C 40.378906 333.988281 42.433594 331.933594 42.433594 329.394531 C 42.433594 326.859375 40.378906 324.800781 37.839844 324.800781 L 29.953125 324.800781 L 29.953125 310.339844 L 37.839844 310.339844 C 40.378906 310.339844 42.433594 308.285156 42.433594 305.746094 C 42.433594 303.210938 40.378906 301.152344 37.839844 301.152344 L 29.953125 301.152344 L 29.953125 286.691406 L 37.839844 286.691406 C 40.378906 286.691406 42.433594 284.632812 42.433594 282.097656 C 42.433594 279.558594 40.378906 277.503906 37.839844 277.503906 L 29.953125 277.503906 L 29.953125 263.042969 L 37.839844 263.042969 C 40.378906 263.042969 42.433594 260.984375 42.433594 258.449219 C 42.433594 255.910156 40.378906 253.855469 37.839844 253.855469 L 29.953125 253.855469 L 29.953125 239.390625 L 37.839844 239.390625 C 40.378906 239.390625 42.433594 237.335938 42.433594 234.796875 C 42.433594 232.261719 40.378906 230.203125 37.839844 230.203125 L 29.953125 230.203125 L 29.953125 215.742188 L 37.839844 215.742188 C 40.378906 215.742188 42.433594 213.6875 42.433594 211.148438 C 42.433594 208.613281 40.378906 206.554688 37.839844 206.554688 L 29.953125 206.554688 L 29.953125 192.09375 L 37.839844 192.09375 C 40.378906 192.09375 42.433594 190.039062 42.433594 187.5 C 42.433594 184.960938 40.378906 182.90625 37.839844 182.90625 L 29.953125 182.90625 L 29.953125 168.445312 L 37.839844 168.445312 C 40.378906 168.445312 42.433594 166.386719 42.433594 163.851562 C 42.433594 161.3125 40.378906 159.257812 37.839844 159.257812 L 29.953125 159.257812 L 29.953125 144.796875 L 37.839844 144.796875 C 40.378906 144.796875 42.433594 142.738281 42.433594 140.203125 C 42.433594 137.664062 40.378906 135.609375 37.839844 135.609375 L 29.953125 135.609375 L 29.953125 121.144531 L 37.839844 121.144531 C 40.378906 121.144531 42.433594 119.089844 42.433594 116.554688 C 42.433594 114.015625 40.378906 111.960938 37.839844 111.960938 L 29.953125 111.960938 L 29.953125 97.496094 L 37.839844 97.496094 C 40.378906 97.496094 42.433594 95.441406 42.433594 92.902344 C 42.433594 90.367188 40.378906 88.308594 37.839844 88.308594 L 29.953125 88.308594 L 29.953125 73.847656 L 37.839844 73.847656 C 40.378906 73.847656 42.433594 71.789062 42.433594 69.253906 C 42.433594 66.714844 40.378906 64.660156 37.839844 64.660156 L 29.953125 64.660156 L 29.953125 50.199219 L 37.839844 50.199219 C 40.378906 50.199219 42.433594 48.140625 42.433594 45.605469 C 42.433594 43.066406 40.378906 41.011719 37.839844 41.011719 L 29.953125 41.011719 L 29.953125 26.546875 L 37.839844 26.546875 C 40.378906 26.546875 42.433594 24.492188 42.433594 21.953125 C 42.433594 19.417969 40.378906 17.363281 37.839844 17.363281 L 29.953125 17.363281 L 29.953125 9.1875 L 73.429688 9.1875 Z M 82.613281 310.984375 L 82.613281 109.273438 L 104.96875 131.628906 L 91.898438 144.699219 C 90.105469 146.492188 90.105469 149.398438 91.898438 151.195312 C 92.796875 152.089844 93.972656 152.539062 95.148438 152.539062 C 96.324219 152.539062 97.5 152.089844 98.394531 151.195312 L 111.464844 138.125 L 121.691406 148.351562 L 108.621094 161.417969 C 106.828125 163.214844 106.828125 166.121094 108.621094 167.917969 C 109.519531 168.8125 110.695312 169.261719 111.871094 169.261719 C 113.046875 169.261719 114.222656 168.8125 115.117188 167.917969 L 128.1875 154.847656 L 138.414062 165.074219 L 125.34375 178.140625 C 123.550781 179.9375 123.550781 182.84375 125.34375 184.636719 C 126.242188 185.535156 127.417969 185.984375 128.59375 185.984375 C 129.769531 185.984375 130.945312 185.535156 131.839844 184.636719 L 144.910156 171.570312 L 155.136719 181.792969 L 142.066406 194.863281 C 140.273438 196.660156 140.273438 199.566406 142.066406 201.359375 C 142.964844 202.257812 144.140625 202.707031 145.316406 202.707031 C 146.492188 202.707031 147.667969 202.257812 148.5625 201.359375 L 161.632812 188.289062 L 171.859375 198.515625 L 158.789062 211.585938 C 156.996094 213.382812 156.996094 216.289062 158.789062 218.082031 C 159.6875 218.980469 160.863281 219.429688 162.039062 219.429688 C 163.214844 219.429688 164.390625 218.980469 165.285156 218.082031 L 178.355469 205.011719 L 188.582031 215.238281 L 175.511719 228.308594 C 173.71875 230.105469 173.71875 233.011719 175.511719 234.804688 C 176.410156 235.703125 177.585938 236.152344 178.761719 236.152344 C 179.9375 236.152344 181.113281 235.703125 182.007812 234.804688 L 195.078125 221.734375 L 205.304688 231.960938 L 192.234375 245.03125 C 190.441406 246.828125 190.441406 249.734375 192.234375 251.527344 C 193.132812 252.425781 194.308594 252.875 195.484375 252.875 C 196.660156 252.875 197.835938 252.425781 198.730469 251.527344 L 211.800781 238.457031 L 222.027344 248.683594 L 208.957031 261.753906 C 207.164062 263.546875 207.164062 266.457031 208.957031 268.25 C 209.855469 269.148438 211.03125 269.597656 212.207031 269.597656 C 213.378906 269.597656 214.554688 269.148438 215.453125 268.25 L 228.523438 255.179688 L 238.75 265.40625 L 225.679688 278.476562 C 223.886719 280.269531 223.886719 283.179688 225.679688 284.972656 C 226.578125 285.871094 227.75 286.320312 228.929688 286.320312 C 230.105469 286.320312 231.277344 285.871094 232.175781 284.972656 L 245.246094 271.902344 L 255.472656 282.128906 L 242.402344 295.199219 C 240.609375 296.992188 240.609375 299.902344 242.402344 301.695312 C 243.300781 302.59375 244.472656 303.042969 245.648438 303.042969 C 246.828125 303.042969 248 302.59375 248.898438 301.695312 L 261.96875 288.625 L 284.324219 310.980469 L 82.613281 310.980469 Z M 206.160156 157.640625 L 320.382812 43.417969 L 325.828125 48.863281 L 211.605469 163.085938 Z M 199.664062 151.144531 L 194.21875 145.699219 L 308.441406 31.476562 L 313.886719 36.921875 Z M 189.410156 153.878906 L 203.425781 167.894531 L 180.132812 177.171875 Z M 332.324219 42.367188 L 314.9375 24.980469 L 325.757812 14.160156 L 343.148438 31.546875 Z M 332.324219 42.367188 " fill-opacity="1" fill-rule="nonzero"/><path fill="#ffbd59" d="M 324.058594 337.722656 C 322.265625 335.929688 319.355469 335.929688 317.5625 337.722656 C 315.769531 339.515625 315.769531 342.425781 317.5625 344.21875 L 331.734375 358.394531 C 332.632812 359.289062 333.808594 359.738281 334.984375 359.738281 C 336.160156 359.738281 337.335938 359.289062 338.230469 358.394531 C 340.027344 356.597656 340.027344 353.691406 338.230469 351.898438 Z M 324.058594 337.722656 " fill-opacity="1" fill-rule="nonzero"/><path fill="#ffbd59" d="M 349.453125 363.117188 C 347.65625 361.324219 344.75 361.324219 342.957031 363.121094 C 341.164062 364.914062 341.164062 367.820312 342.957031 369.617188 L 343.246094 369.902344 C 344.144531 370.800781 345.320312 371.25 346.496094 371.25 C 347.671875 371.25 348.847656 370.800781 349.746094 369.902344 C 351.539062 368.105469 351.535156 365.199219 349.742188 363.40625 Z M 349.453125 363.117188 " fill-opacity="1" fill-rule="nonzero"/><path fill="#ffbd59" d="M 202.523438 24.117188 C 203.699219 24.117188 204.875 23.671875 205.773438 22.773438 L 206.503906 22.039062 C 208.296875 20.246094 208.296875 17.335938 206.503906 15.542969 C 204.710938 13.75 201.800781 13.75 200.007812 15.542969 L 199.273438 16.277344 C 197.480469 18.070312 197.480469 20.980469 199.277344 22.773438 C 200.171875 23.671875 201.347656 24.117188 202.523438 24.117188 Z M 202.523438 24.117188 " fill-opacity="1" fill-rule="nonzero"/><path fill="#ffbd59" d="M 177.128906 49.511719 C 178.300781 49.511719 179.480469 49.066406 180.375 48.167969 L 194.550781 33.996094 C 196.34375 32.199219 196.34375 29.292969 194.550781 27.5 C 192.757812 25.707031 189.847656 25.703125 188.054688 27.5 L 173.878906 41.671875 C 172.085938 43.464844 172.085938 46.375 173.878906 48.167969 C 174.777344 49.066406 175.953125 49.511719 177.128906 49.511719 Z M 177.128906 49.511719 " fill-opacity="1" fill-rule="nonzero"/><path fill="#ffbd59" d="M 151.734375 74.910156 C 152.910156 74.910156 154.085938 74.460938 154.980469 73.5625 L 169.15625 59.390625 C 170.949219 57.59375 170.949219 54.6875 169.15625 52.894531 C 167.363281 51.097656 164.453125 51.097656 162.660156 52.894531 L 148.484375 67.066406 C 146.691406 68.859375 146.691406 71.769531 148.484375 73.5625 C 149.382812 74.460938 150.558594 74.910156 151.734375 74.910156 Z M 151.734375 74.910156 " fill-opacity="1" fill-rule="nonzero"/><path fill="#ffbd59" d="M 126.339844 100.304688 C 127.515625 100.304688 128.6875 99.855469 129.585938 98.957031 L 143.757812 84.785156 C 145.554688 82.988281 145.554688 80.082031 143.757812 78.289062 C 141.964844 76.492188 139.054688 76.496094 137.261719 78.289062 L 123.089844 92.460938 C 121.296875 94.257812 121.296875 97.164062 123.089844 98.957031 C 123.988281 99.855469 125.164062 100.304688 126.339844 100.304688 Z M 126.339844 100.304688 " fill-opacity="1" fill-rule="nonzero"/></svg>